%TF.GenerationSoftware,KiCad,Pcbnew,(6.0.2)*%
%TF.CreationDate,2022-09-22T18:35:42-04:00*%
%TF.ProjectId,Neopixel Board,4e656f70-6978-4656-9c20-426f6172642e,rev?*%
%TF.SameCoordinates,Original*%
%TF.FileFunction,Copper,L1,Top*%
%TF.FilePolarity,Positive*%
%FSLAX46Y46*%
G04 Gerber Fmt 4.6, Leading zero omitted, Abs format (unit mm)*
G04 Created by KiCad (PCBNEW (6.0.2)) date 2022-09-22 18:35:42*
%MOMM*%
%LPD*%
G01*
G04 APERTURE LIST*
%TA.AperFunction,SMDPad,CuDef*%
%ADD10R,0.700000X0.700000*%
%TD*%
%TA.AperFunction,ComponentPad*%
%ADD11R,1.700000X1.700000*%
%TD*%
%TA.AperFunction,ComponentPad*%
%ADD12O,1.700000X1.700000*%
%TD*%
%TA.AperFunction,Conductor*%
%ADD13C,0.250000*%
%TD*%
G04 APERTURE END LIST*
D10*
%TO.P,U3,1,DO*%
%TO.N,Net-(U2-Pad3)*%
X146659000Y-94700000D03*
%TO.P,U3,2,GND*%
%TO.N,GND*%
X146659000Y-95800000D03*
%TO.P,U3,3,DI*%
%TO.N,Net-(J1-Pad2)*%
X148489000Y-95800000D03*
%TO.P,U3,4,VDD*%
%TO.N,Net-(J1-Pad3)*%
X148489000Y-94700000D03*
%TD*%
%TO.P,U1,1,DO*%
%TO.N,unconnected-(U1-Pad1)*%
X146659000Y-100288000D03*
%TO.P,U1,2,GND*%
%TO.N,GND*%
X146659000Y-101388000D03*
%TO.P,U1,3,DI*%
%TO.N,Net-(U1-Pad3)*%
X148489000Y-101388000D03*
%TO.P,U1,4,VDD*%
%TO.N,Net-(J1-Pad3)*%
X148489000Y-100288000D03*
%TD*%
D11*
%TO.P,J1,1,Pin_1*%
%TO.N,GND*%
X145176000Y-85090000D03*
D12*
%TO.P,J1,2,Pin_2*%
%TO.N,Net-(J1-Pad2)*%
X147716000Y-85090000D03*
%TO.P,J1,3,Pin_3*%
%TO.N,Net-(J1-Pad3)*%
X150256000Y-85090000D03*
%TD*%
D10*
%TO.P,U2,1,DO*%
%TO.N,Net-(U1-Pad3)*%
X146659000Y-97494000D03*
%TO.P,U2,2,GND*%
%TO.N,GND*%
X146659000Y-98594000D03*
%TO.P,U2,3,DI*%
%TO.N,Net-(U2-Pad3)*%
X148489000Y-98594000D03*
%TO.P,U2,4,VDD*%
%TO.N,Net-(J1-Pad3)*%
X148489000Y-97494000D03*
%TD*%
D13*
%TO.N,Net-(J1-Pad2)*%
X147783031Y-85157031D02*
X147783031Y-95713031D01*
X147870000Y-95800000D02*
X148489000Y-95800000D01*
X147783031Y-95713031D02*
X147870000Y-95800000D01*
X147716000Y-85090000D02*
X147783031Y-85157031D01*
%TO.N,Net-(J1-Pad3)*%
X149818000Y-100288000D02*
X148489000Y-100288000D01*
X150256000Y-94219000D02*
X150256000Y-96759000D01*
X149521000Y-97494000D02*
X148489000Y-97494000D01*
X150256000Y-85090000D02*
X150256000Y-94219000D01*
X150256000Y-99934000D02*
X149860000Y-100330000D01*
X149860000Y-100330000D02*
X149818000Y-100288000D01*
X150256000Y-96759000D02*
X150256000Y-99934000D01*
X149775000Y-94700000D02*
X148489000Y-94700000D01*
X150256000Y-94219000D02*
X149775000Y-94700000D01*
X150256000Y-96759000D02*
X149521000Y-97494000D01*
%TO.N,Net-(U1-Pad3)*%
X147333511Y-100832511D02*
X147889000Y-101388000D01*
X147889000Y-101388000D02*
X148489000Y-101388000D01*
X146659000Y-97494000D02*
X147259000Y-97494000D01*
X147259000Y-97494000D02*
X147333511Y-97568511D01*
X147333511Y-97568511D02*
X147333511Y-100832511D01*
%TO.N,Net-(U2-Pad3)*%
X146659000Y-94700000D02*
X147259000Y-94700000D01*
X147814489Y-98168511D02*
X148239978Y-98594000D01*
X147333511Y-96533511D02*
X147814489Y-97014489D01*
X147814489Y-97014489D02*
X147814489Y-98168511D01*
X147259000Y-94700000D02*
X147333511Y-94774511D01*
X148239978Y-98594000D02*
X148489000Y-98594000D01*
X147333511Y-94774511D02*
X147333511Y-96533511D01*
%TD*%
%TA.AperFunction,Conductor*%
%TO.N,GND*%
G36*
X151707121Y-83205002D02*
G01*
X151753614Y-83258658D01*
X151765000Y-83311000D01*
X151765000Y-84547609D01*
X151744998Y-84615730D01*
X151691342Y-84662223D01*
X151621068Y-84672327D01*
X151556488Y-84642833D01*
X151523451Y-84597852D01*
X151459419Y-84450589D01*
X151459419Y-84450588D01*
X151457354Y-84445840D01*
X151336014Y-84258277D01*
X151185670Y-84093051D01*
X151181619Y-84089852D01*
X151181615Y-84089848D01*
X151014414Y-83957800D01*
X151014410Y-83957798D01*
X151010359Y-83954598D01*
X150814789Y-83846638D01*
X150809920Y-83844914D01*
X150809916Y-83844912D01*
X150609087Y-83773795D01*
X150609083Y-83773794D01*
X150604212Y-83772069D01*
X150599119Y-83771162D01*
X150599116Y-83771161D01*
X150389373Y-83733800D01*
X150389367Y-83733799D01*
X150384284Y-83732894D01*
X150310452Y-83731992D01*
X150166081Y-83730228D01*
X150166079Y-83730228D01*
X150160911Y-83730165D01*
X149940091Y-83763955D01*
X149727756Y-83833357D01*
X149529607Y-83936507D01*
X149525474Y-83939610D01*
X149525471Y-83939612D01*
X149442450Y-84001946D01*
X149350965Y-84070635D01*
X149196629Y-84232138D01*
X149089201Y-84389621D01*
X149034293Y-84434621D01*
X148963768Y-84442792D01*
X148900021Y-84411538D01*
X148879324Y-84387054D01*
X148798822Y-84262617D01*
X148798820Y-84262614D01*
X148796014Y-84258277D01*
X148645670Y-84093051D01*
X148641619Y-84089852D01*
X148641615Y-84089848D01*
X148474414Y-83957800D01*
X148474410Y-83957798D01*
X148470359Y-83954598D01*
X148274789Y-83846638D01*
X148269920Y-83844914D01*
X148269916Y-83844912D01*
X148069087Y-83773795D01*
X148069083Y-83773794D01*
X148064212Y-83772069D01*
X148059119Y-83771162D01*
X148059116Y-83771161D01*
X147849373Y-83733800D01*
X147849367Y-83733799D01*
X147844284Y-83732894D01*
X147770452Y-83731992D01*
X147626081Y-83730228D01*
X147626079Y-83730228D01*
X147620911Y-83730165D01*
X147400091Y-83763955D01*
X147187756Y-83833357D01*
X146989607Y-83936507D01*
X146985474Y-83939610D01*
X146985471Y-83939612D01*
X146902450Y-84001946D01*
X146810965Y-84070635D01*
X146807393Y-84074373D01*
X146729898Y-84155466D01*
X146668374Y-84190895D01*
X146597462Y-84187438D01*
X146539676Y-84146192D01*
X146520823Y-84112644D01*
X146479324Y-84001946D01*
X146470786Y-83986351D01*
X146394285Y-83884276D01*
X146381724Y-83871715D01*
X146279649Y-83795214D01*
X146264054Y-83786676D01*
X146143606Y-83741522D01*
X146128351Y-83737895D01*
X146077486Y-83732369D01*
X146070672Y-83732000D01*
X145448115Y-83732000D01*
X145432876Y-83736475D01*
X145431671Y-83737865D01*
X145430000Y-83745548D01*
X145430000Y-86429884D01*
X145434475Y-86445123D01*
X145435865Y-86446328D01*
X145443548Y-86447999D01*
X146070669Y-86447999D01*
X146077490Y-86447629D01*
X146128352Y-86442105D01*
X146143604Y-86438479D01*
X146264054Y-86393324D01*
X146279649Y-86384786D01*
X146381724Y-86308285D01*
X146394285Y-86295724D01*
X146470786Y-86193649D01*
X146479324Y-86178054D01*
X146520225Y-86068952D01*
X146562867Y-86012188D01*
X146629428Y-85987488D01*
X146698777Y-86002696D01*
X146733444Y-86030684D01*
X146758865Y-86060031D01*
X146758869Y-86060035D01*
X146762250Y-86063938D01*
X146934126Y-86206632D01*
X147021846Y-86257891D01*
X147087101Y-86296023D01*
X147135825Y-86347661D01*
X147149531Y-86404811D01*
X147149531Y-93715500D01*
X147129529Y-93783621D01*
X147075873Y-93830114D01*
X147023531Y-93841500D01*
X146260866Y-93841500D01*
X146198684Y-93848255D01*
X146062295Y-93899385D01*
X145945739Y-93986739D01*
X145858385Y-94103295D01*
X145807255Y-94239684D01*
X145800500Y-94301866D01*
X145800500Y-95098134D01*
X145807255Y-95160316D01*
X145810029Y-95167715D01*
X145824562Y-95206482D01*
X145829745Y-95277289D01*
X145824562Y-95294942D01*
X145810522Y-95332394D01*
X145806895Y-95347649D01*
X145801369Y-95398514D01*
X145801000Y-95405328D01*
X145801000Y-95527885D01*
X145805475Y-95543124D01*
X145806865Y-95544329D01*
X145814548Y-95546000D01*
X146164014Y-95546000D01*
X146192165Y-95549301D01*
X146198684Y-95551745D01*
X146206532Y-95552598D01*
X146206534Y-95552598D01*
X146257469Y-95558131D01*
X146260866Y-95558500D01*
X146574011Y-95558500D01*
X146642132Y-95578502D01*
X146688625Y-95632158D01*
X146700011Y-95684500D01*
X146700011Y-95928000D01*
X146680009Y-95996121D01*
X146626353Y-96042614D01*
X146574011Y-96054000D01*
X145819116Y-96054000D01*
X145803877Y-96058475D01*
X145802672Y-96059865D01*
X145801001Y-96067548D01*
X145801001Y-96194669D01*
X145801371Y-96201490D01*
X145806895Y-96252352D01*
X145810521Y-96267604D01*
X145855676Y-96388054D01*
X145864214Y-96403649D01*
X145940715Y-96505724D01*
X145953274Y-96518283D01*
X145990072Y-96545862D01*
X146032586Y-96602722D01*
X146037611Y-96673541D01*
X146003551Y-96735834D01*
X145990071Y-96747514D01*
X145945739Y-96780739D01*
X145858385Y-96897295D01*
X145807255Y-97033684D01*
X145800500Y-97095866D01*
X145800500Y-97892134D01*
X145807255Y-97954316D01*
X145810029Y-97961715D01*
X145824562Y-98000482D01*
X145829745Y-98071289D01*
X145824562Y-98088942D01*
X145810522Y-98126394D01*
X145806895Y-98141649D01*
X145801369Y-98192514D01*
X145801000Y-98199328D01*
X145801000Y-98321885D01*
X145805475Y-98337124D01*
X145806865Y-98338329D01*
X145814548Y-98340000D01*
X146164014Y-98340000D01*
X146192165Y-98343301D01*
X146198684Y-98345745D01*
X146206532Y-98346598D01*
X146206534Y-98346598D01*
X146257469Y-98352131D01*
X146260866Y-98352500D01*
X146574011Y-98352500D01*
X146642132Y-98372502D01*
X146688625Y-98426158D01*
X146700011Y-98478500D01*
X146700011Y-98722000D01*
X146680009Y-98790121D01*
X146626353Y-98836614D01*
X146574011Y-98848000D01*
X145819116Y-98848000D01*
X145803877Y-98852475D01*
X145802672Y-98853865D01*
X145801001Y-98861548D01*
X145801001Y-98988669D01*
X145801371Y-98995490D01*
X145806895Y-99046352D01*
X145810521Y-99061604D01*
X145855676Y-99182054D01*
X145864214Y-99197649D01*
X145940715Y-99299724D01*
X145953274Y-99312283D01*
X145990072Y-99339862D01*
X146032586Y-99396722D01*
X146037611Y-99467541D01*
X146003551Y-99529834D01*
X145990071Y-99541514D01*
X145945739Y-99574739D01*
X145858385Y-99691295D01*
X145807255Y-99827684D01*
X145800500Y-99889866D01*
X145800500Y-100686134D01*
X145807255Y-100748316D01*
X145810029Y-100755715D01*
X145824562Y-100794482D01*
X145829745Y-100865289D01*
X145824562Y-100882942D01*
X145810522Y-100920394D01*
X145806895Y-100935649D01*
X145801369Y-100986514D01*
X145801000Y-100993328D01*
X145801000Y-101115885D01*
X145805475Y-101131124D01*
X145806865Y-101132329D01*
X145814548Y-101134000D01*
X146164014Y-101134000D01*
X146192165Y-101137301D01*
X146198684Y-101139745D01*
X146206532Y-101140598D01*
X146206534Y-101140598D01*
X146257469Y-101146131D01*
X146260866Y-101146500D01*
X146711342Y-101146500D01*
X146779463Y-101166502D01*
X146819795Y-101208361D01*
X146828969Y-101223873D01*
X146843290Y-101238194D01*
X146856130Y-101253227D01*
X146868039Y-101269618D01*
X146874148Y-101274672D01*
X146878850Y-101279679D01*
X146910901Y-101343029D01*
X146913000Y-101365932D01*
X146913000Y-102227884D01*
X146917475Y-102243123D01*
X146918865Y-102244328D01*
X146926548Y-102245999D01*
X147053669Y-102245999D01*
X147060490Y-102245629D01*
X147111352Y-102240105D01*
X147126604Y-102236479D01*
X147247054Y-102191324D01*
X147262649Y-102182786D01*
X147364724Y-102106285D01*
X147377285Y-102093724D01*
X147451722Y-101994403D01*
X147508581Y-101951888D01*
X147579400Y-101946862D01*
X147602568Y-101954322D01*
X147604517Y-101955165D01*
X147615187Y-101960391D01*
X147653940Y-101981695D01*
X147661623Y-101983668D01*
X147665473Y-101985192D01*
X147719918Y-102026779D01*
X147775739Y-102101261D01*
X147892295Y-102188615D01*
X148028684Y-102239745D01*
X148090866Y-102246500D01*
X148887134Y-102246500D01*
X148949316Y-102239745D01*
X149085705Y-102188615D01*
X149202261Y-102101261D01*
X149289615Y-101984705D01*
X149340745Y-101848316D01*
X149347500Y-101786134D01*
X149347500Y-101047500D01*
X149367502Y-100979379D01*
X149421158Y-100932886D01*
X149473500Y-100921500D01*
X149598857Y-100921500D01*
X149639350Y-100928567D01*
X149643704Y-100930785D01*
X149651749Y-100932583D01*
X149674294Y-100939909D01*
X149681855Y-100943181D01*
X149727894Y-100950473D01*
X149737326Y-100951967D01*
X149745101Y-100953451D01*
X149767135Y-100958376D01*
X149799909Y-100965702D01*
X149807832Y-100965453D01*
X149807833Y-100965453D01*
X149807894Y-100965451D01*
X149808144Y-100965443D01*
X149831815Y-100966933D01*
X149832111Y-100966980D01*
X149832114Y-100966980D01*
X149839943Y-100968220D01*
X149847835Y-100967474D01*
X149847836Y-100967474D01*
X149895858Y-100962935D01*
X149903755Y-100962438D01*
X149936972Y-100961393D01*
X149959889Y-100960673D01*
X149967798Y-100958375D01*
X149991094Y-100953932D01*
X149991404Y-100953903D01*
X149991407Y-100953902D01*
X149999292Y-100953157D01*
X150052144Y-100934129D01*
X150059673Y-100931683D01*
X150105981Y-100918230D01*
X150105985Y-100918228D01*
X150113593Y-100916018D01*
X150120416Y-100911983D01*
X150120420Y-100911981D01*
X150120688Y-100911823D01*
X150142132Y-100901733D01*
X150142423Y-100901628D01*
X150142431Y-100901624D01*
X150149889Y-100898939D01*
X150196365Y-100867354D01*
X150202996Y-100863145D01*
X150251362Y-100834542D01*
X150257182Y-100828722D01*
X150275453Y-100813606D01*
X150275710Y-100813431D01*
X150282271Y-100808972D01*
X150319418Y-100766837D01*
X150324837Y-100761067D01*
X150648247Y-100437657D01*
X150656537Y-100430113D01*
X150663018Y-100426000D01*
X150709659Y-100376332D01*
X150712413Y-100373491D01*
X150732135Y-100353769D01*
X150734612Y-100350576D01*
X150742317Y-100341555D01*
X150767159Y-100315100D01*
X150772586Y-100309321D01*
X150776407Y-100302371D01*
X150782346Y-100291568D01*
X150793202Y-100275041D01*
X150800757Y-100265302D01*
X150800758Y-100265300D01*
X150805614Y-100259040D01*
X150823174Y-100218460D01*
X150828391Y-100207812D01*
X150845875Y-100176009D01*
X150845876Y-100176007D01*
X150849695Y-100169060D01*
X150854733Y-100149437D01*
X150861137Y-100130734D01*
X150866033Y-100119420D01*
X150866033Y-100119419D01*
X150869181Y-100112145D01*
X150870420Y-100104322D01*
X150870423Y-100104312D01*
X150876099Y-100068476D01*
X150878505Y-100056856D01*
X150887528Y-100021711D01*
X150887528Y-100021710D01*
X150889500Y-100014030D01*
X150889500Y-99993776D01*
X150891051Y-99974065D01*
X150892980Y-99961886D01*
X150894220Y-99954057D01*
X150890059Y-99910038D01*
X150889500Y-99898181D01*
X150889500Y-96818776D01*
X150891051Y-96799065D01*
X150891565Y-96795823D01*
X150894220Y-96779057D01*
X150890059Y-96735038D01*
X150889500Y-96723181D01*
X150889500Y-94278776D01*
X150891051Y-94259065D01*
X150892980Y-94246886D01*
X150894220Y-94239057D01*
X150890059Y-94195038D01*
X150889500Y-94183181D01*
X150889500Y-86370427D01*
X150909502Y-86302306D01*
X150950618Y-86262550D01*
X150953994Y-86260896D01*
X151135860Y-86131173D01*
X151294096Y-85973489D01*
X151424453Y-85792077D01*
X151445320Y-85749857D01*
X151521135Y-85596455D01*
X151521136Y-85596453D01*
X151523430Y-85591811D01*
X151523890Y-85592038D01*
X151565521Y-85538682D01*
X151632523Y-85515205D01*
X151701582Y-85531679D01*
X151750772Y-85582874D01*
X151765000Y-85641038D01*
X151765000Y-102744000D01*
X151744998Y-102812121D01*
X151691342Y-102858614D01*
X151639000Y-102870000D01*
X143636000Y-102870000D01*
X143567879Y-102849998D01*
X143521386Y-102796342D01*
X143510000Y-102744000D01*
X143510000Y-101782669D01*
X145801001Y-101782669D01*
X145801371Y-101789490D01*
X145806895Y-101840352D01*
X145810521Y-101855604D01*
X145855676Y-101976054D01*
X145864214Y-101991649D01*
X145940715Y-102093724D01*
X145953276Y-102106285D01*
X146055351Y-102182786D01*
X146070946Y-102191324D01*
X146191394Y-102236478D01*
X146206649Y-102240105D01*
X146257514Y-102245631D01*
X146264328Y-102246000D01*
X146386885Y-102246000D01*
X146402124Y-102241525D01*
X146403329Y-102240135D01*
X146405000Y-102232452D01*
X146405000Y-101660115D01*
X146400525Y-101644876D01*
X146399135Y-101643671D01*
X146391452Y-101642000D01*
X145819116Y-101642000D01*
X145803877Y-101646475D01*
X145802672Y-101647865D01*
X145801001Y-101655548D01*
X145801001Y-101782669D01*
X143510000Y-101782669D01*
X143510000Y-85984669D01*
X143818001Y-85984669D01*
X143818371Y-85991490D01*
X143823895Y-86042352D01*
X143827521Y-86057604D01*
X143872676Y-86178054D01*
X143881214Y-86193649D01*
X143957715Y-86295724D01*
X143970276Y-86308285D01*
X144072351Y-86384786D01*
X144087946Y-86393324D01*
X144208394Y-86438478D01*
X144223649Y-86442105D01*
X144274514Y-86447631D01*
X144281328Y-86448000D01*
X144903885Y-86448000D01*
X144919124Y-86443525D01*
X144920329Y-86442135D01*
X144922000Y-86434452D01*
X144922000Y-85362115D01*
X144917525Y-85346876D01*
X144916135Y-85345671D01*
X144908452Y-85344000D01*
X143836116Y-85344000D01*
X143820877Y-85348475D01*
X143819672Y-85349865D01*
X143818001Y-85357548D01*
X143818001Y-85984669D01*
X143510000Y-85984669D01*
X143510000Y-84817885D01*
X143818000Y-84817885D01*
X143822475Y-84833124D01*
X143823865Y-84834329D01*
X143831548Y-84836000D01*
X144903885Y-84836000D01*
X144919124Y-84831525D01*
X144920329Y-84830135D01*
X144922000Y-84822452D01*
X144922000Y-83750116D01*
X144917525Y-83734877D01*
X144916135Y-83733672D01*
X144908452Y-83732001D01*
X144281331Y-83732001D01*
X144274510Y-83732371D01*
X144223648Y-83737895D01*
X144208396Y-83741521D01*
X144087946Y-83786676D01*
X144072351Y-83795214D01*
X143970276Y-83871715D01*
X143957715Y-83884276D01*
X143881214Y-83986351D01*
X143872676Y-84001946D01*
X143827522Y-84122394D01*
X143823895Y-84137649D01*
X143818369Y-84188514D01*
X143818000Y-84195328D01*
X143818000Y-84817885D01*
X143510000Y-84817885D01*
X143510000Y-83311000D01*
X143530002Y-83242879D01*
X143583658Y-83196386D01*
X143636000Y-83185000D01*
X151639000Y-83185000D01*
X151707121Y-83205002D01*
G37*
%TD.AperFunction*%
%TD*%
M02*
