G04 #@! TF.GenerationSoftware,KiCad,Pcbnew,(6.0.2)*
G04 #@! TF.CreationDate,2022-09-22T18:34:12-04:00*
G04 #@! TF.ProjectId,Control Board,436f6e74-726f-46c2-9042-6f6172642e6b,rev?*
G04 #@! TF.SameCoordinates,Original*
G04 #@! TF.FileFunction,Copper,L1,Top*
G04 #@! TF.FilePolarity,Positive*
%FSLAX46Y46*%
G04 Gerber Fmt 4.6, Leading zero omitted, Abs format (unit mm)*
G04 Created by KiCad (PCBNEW (6.0.2)) date 2022-09-22 18:34:12*
%MOMM*%
%LPD*%
G01*
G04 APERTURE LIST*
G04 Aperture macros list*
%AMRoundRect*
0 Rectangle with rounded corners*
0 $1 Rounding radius*
0 $2 $3 $4 $5 $6 $7 $8 $9 X,Y pos of 4 corners*
0 Add a 4 corners polygon primitive as box body*
4,1,4,$2,$3,$4,$5,$6,$7,$8,$9,$2,$3,0*
0 Add four circle primitives for the rounded corners*
1,1,$1+$1,$2,$3*
1,1,$1+$1,$4,$5*
1,1,$1+$1,$6,$7*
1,1,$1+$1,$8,$9*
0 Add four rect primitives between the rounded corners*
20,1,$1+$1,$2,$3,$4,$5,0*
20,1,$1+$1,$4,$5,$6,$7,0*
20,1,$1+$1,$6,$7,$8,$9,0*
20,1,$1+$1,$8,$9,$2,$3,0*%
%AMRotRect*
0 Rectangle, with rotation*
0 The origin of the aperture is its center*
0 $1 length*
0 $2 width*
0 $3 Rotation angle, in degrees counterclockwise*
0 Add horizontal line*
21,1,$1,$2,0,0,$3*%
%AMFreePoly0*
4,1,14,0.318306,0.106694,0.381693,0.043306,0.400000,-0.000888,0.400000,-0.062500,0.381693,-0.106694,0.337500,-0.125000,-0.337500,-0.125000,-0.381693,-0.106694,-0.400000,-0.062500,-0.400000,0.062500,-0.381693,0.106694,-0.337500,0.125000,0.274112,0.125000,0.318306,0.106694,0.318306,0.106694,$1*%
%AMFreePoly1*
4,1,14,0.381693,0.106694,0.400000,0.062500,0.400000,0.000888,0.381693,-0.043306,0.318306,-0.106694,0.274112,-0.125000,-0.337500,-0.125000,-0.381693,-0.106694,-0.400000,-0.062500,-0.400000,0.062500,-0.381693,0.106694,-0.337500,0.125000,0.337500,0.125000,0.381693,0.106694,0.381693,0.106694,$1*%
%AMFreePoly2*
4,1,14,0.106694,0.381693,0.125000,0.337500,0.125000,-0.337500,0.106694,-0.381693,0.062500,-0.400000,-0.062500,-0.400000,-0.106694,-0.381693,-0.125000,-0.337500,-0.125000,0.274112,-0.106694,0.318306,-0.043306,0.381693,0.000888,0.400000,0.062500,0.400000,0.106694,0.381693,0.106694,0.381693,$1*%
%AMFreePoly3*
4,1,14,0.043306,0.381693,0.106694,0.318306,0.125000,0.274112,0.125000,-0.337500,0.106694,-0.381693,0.062500,-0.400000,-0.062500,-0.400000,-0.106694,-0.381693,-0.125000,-0.337500,-0.125000,0.337500,-0.106694,0.381693,-0.062500,0.400000,-0.000888,0.400000,0.043306,0.381693,0.043306,0.381693,$1*%
%AMFreePoly4*
4,1,14,0.381693,0.106694,0.400000,0.062500,0.400000,-0.062500,0.381693,-0.106694,0.337500,-0.125000,-0.274112,-0.125000,-0.318306,-0.106694,-0.381693,-0.043306,-0.400000,0.000888,-0.400000,0.062500,-0.381693,0.106694,-0.337500,0.125000,0.337500,0.125000,0.381693,0.106694,0.381693,0.106694,$1*%
%AMFreePoly5*
4,1,14,0.381693,0.106694,0.400000,0.062500,0.400000,-0.062500,0.381693,-0.106694,0.337500,-0.125000,-0.337500,-0.125000,-0.381693,-0.106694,-0.400000,-0.062500,-0.400000,-0.000888,-0.381693,0.043306,-0.318306,0.106694,-0.274112,0.125000,0.337500,0.125000,0.381693,0.106694,0.381693,0.106694,$1*%
%AMFreePoly6*
4,1,14,0.106694,0.381693,0.125000,0.337500,0.125000,-0.274112,0.106694,-0.318306,0.043306,-0.381693,-0.000888,-0.400000,-0.062500,-0.400000,-0.106694,-0.381693,-0.125000,-0.337500,-0.125000,0.337500,-0.106694,0.381693,-0.062500,0.400000,0.062500,0.400000,0.106694,0.381693,0.106694,0.381693,$1*%
%AMFreePoly7*
4,1,14,0.106694,0.381693,0.125000,0.337500,0.125000,-0.337500,0.106694,-0.381693,0.062500,-0.400000,0.000888,-0.400000,-0.043306,-0.381693,-0.106694,-0.318306,-0.125000,-0.274112,-0.125000,0.337500,-0.106694,0.381693,-0.062500,0.400000,0.062500,0.400000,0.106694,0.381693,0.106694,0.381693,$1*%
G04 Aperture macros list end*
G04 #@! TA.AperFunction,ComponentPad*
%ADD10C,1.308000*%
G04 #@! TD*
G04 #@! TA.AperFunction,ComponentPad*
%ADD11R,1.308000X1.308000*%
G04 #@! TD*
G04 #@! TA.AperFunction,SMDPad,CuDef*
%ADD12RoundRect,0.250000X-0.325000X-0.650000X0.325000X-0.650000X0.325000X0.650000X-0.325000X0.650000X0*%
G04 #@! TD*
G04 #@! TA.AperFunction,SMDPad,CuDef*
%ADD13RoundRect,0.100000X-0.637500X-0.100000X0.637500X-0.100000X0.637500X0.100000X-0.637500X0.100000X0*%
G04 #@! TD*
G04 #@! TA.AperFunction,SMDPad,CuDef*
%ADD14RoundRect,0.135000X-0.185000X0.135000X-0.185000X-0.135000X0.185000X-0.135000X0.185000X0.135000X0*%
G04 #@! TD*
G04 #@! TA.AperFunction,SMDPad,CuDef*
%ADD15RoundRect,0.150000X-0.512500X-0.150000X0.512500X-0.150000X0.512500X0.150000X-0.512500X0.150000X0*%
G04 #@! TD*
G04 #@! TA.AperFunction,ComponentPad*
%ADD16R,1.700000X1.700000*%
G04 #@! TD*
G04 #@! TA.AperFunction,ComponentPad*
%ADD17O,1.700000X1.700000*%
G04 #@! TD*
G04 #@! TA.AperFunction,SMDPad,CuDef*
%ADD18RoundRect,0.250000X-0.250000X-0.475000X0.250000X-0.475000X0.250000X0.475000X-0.250000X0.475000X0*%
G04 #@! TD*
G04 #@! TA.AperFunction,SMDPad,CuDef*
%ADD19R,2.000000X1.500000*%
G04 #@! TD*
G04 #@! TA.AperFunction,SMDPad,CuDef*
%ADD20R,2.000000X3.800000*%
G04 #@! TD*
G04 #@! TA.AperFunction,SMDPad,CuDef*
%ADD21RoundRect,0.100000X-0.100000X0.130000X-0.100000X-0.130000X0.100000X-0.130000X0.100000X0.130000X0*%
G04 #@! TD*
G04 #@! TA.AperFunction,SMDPad,CuDef*
%ADD22RoundRect,0.140000X-0.170000X0.140000X-0.170000X-0.140000X0.170000X-0.140000X0.170000X0.140000X0*%
G04 #@! TD*
G04 #@! TA.AperFunction,SMDPad,CuDef*
%ADD23R,2.200000X1.500000*%
G04 #@! TD*
G04 #@! TA.AperFunction,SMDPad,CuDef*
%ADD24RoundRect,0.250000X0.475000X-0.250000X0.475000X0.250000X-0.475000X0.250000X-0.475000X-0.250000X0*%
G04 #@! TD*
G04 #@! TA.AperFunction,SMDPad,CuDef*
%ADD25FreePoly0,45.000000*%
G04 #@! TD*
G04 #@! TA.AperFunction,SMDPad,CuDef*
%ADD26RoundRect,0.062500X-0.194454X-0.282843X0.282843X0.194454X0.194454X0.282843X-0.282843X-0.194454X0*%
G04 #@! TD*
G04 #@! TA.AperFunction,SMDPad,CuDef*
%ADD27FreePoly1,45.000000*%
G04 #@! TD*
G04 #@! TA.AperFunction,SMDPad,CuDef*
%ADD28FreePoly2,45.000000*%
G04 #@! TD*
G04 #@! TA.AperFunction,SMDPad,CuDef*
%ADD29RoundRect,0.062500X0.194454X-0.282843X0.282843X-0.194454X-0.194454X0.282843X-0.282843X0.194454X0*%
G04 #@! TD*
G04 #@! TA.AperFunction,SMDPad,CuDef*
%ADD30FreePoly3,45.000000*%
G04 #@! TD*
G04 #@! TA.AperFunction,SMDPad,CuDef*
%ADD31FreePoly4,45.000000*%
G04 #@! TD*
G04 #@! TA.AperFunction,SMDPad,CuDef*
%ADD32FreePoly5,45.000000*%
G04 #@! TD*
G04 #@! TA.AperFunction,SMDPad,CuDef*
%ADD33FreePoly6,45.000000*%
G04 #@! TD*
G04 #@! TA.AperFunction,SMDPad,CuDef*
%ADD34FreePoly7,45.000000*%
G04 #@! TD*
G04 #@! TA.AperFunction,SMDPad,CuDef*
%ADD35RotRect,2.400000X2.400000X45.000000*%
G04 #@! TD*
G04 #@! TA.AperFunction,SMDPad,CuDef*
%ADD36RoundRect,0.140000X0.170000X-0.140000X0.170000X0.140000X-0.170000X0.140000X-0.170000X-0.140000X0*%
G04 #@! TD*
G04 #@! TA.AperFunction,SMDPad,CuDef*
%ADD37R,0.579000X0.332000*%
G04 #@! TD*
G04 #@! TA.AperFunction,SMDPad,CuDef*
%ADD38R,0.579000X0.507000*%
G04 #@! TD*
G04 #@! TA.AperFunction,ComponentPad*
%ADD39C,1.676400*%
G04 #@! TD*
G04 #@! TA.AperFunction,SMDPad,CuDef*
%ADD40R,1.900000X0.400000*%
G04 #@! TD*
G04 #@! TA.AperFunction,SMDPad,CuDef*
%ADD41R,0.800000X0.500000*%
G04 #@! TD*
G04 #@! TA.AperFunction,SMDPad,CuDef*
%ADD42R,1.000000X0.500000*%
G04 #@! TD*
G04 #@! TA.AperFunction,ViaPad*
%ADD43C,0.800000*%
G04 #@! TD*
G04 #@! TA.AperFunction,Conductor*
%ADD44C,0.250000*%
G04 #@! TD*
G04 APERTURE END LIST*
D10*
X134350000Y-84782500D03*
D11*
X132350000Y-84782500D03*
D12*
X134825000Y-81915000D03*
X131875000Y-81915000D03*
D13*
X144467500Y-99650000D03*
X144467500Y-100300000D03*
X144467500Y-100950000D03*
X144467500Y-101600000D03*
X144467500Y-102250000D03*
X144467500Y-102900000D03*
X144467500Y-103550000D03*
X138742500Y-103550000D03*
X138742500Y-102900000D03*
X138742500Y-102250000D03*
X138742500Y-101600000D03*
X138742500Y-100950000D03*
X138742500Y-100300000D03*
X138742500Y-99650000D03*
D14*
X131572000Y-107694000D03*
X131572000Y-108714000D03*
X130556000Y-107694000D03*
X130556000Y-108714000D03*
D15*
X123692500Y-87315000D03*
X123692500Y-89215000D03*
X121417500Y-89215000D03*
X121417500Y-88265000D03*
X121417500Y-87315000D03*
D16*
X144130000Y-118740000D03*
D17*
X144130000Y-121280000D03*
X141590000Y-118740000D03*
X141590000Y-121280000D03*
X139050000Y-118740000D03*
X139050000Y-121280000D03*
D18*
X122870000Y-92075000D03*
X120970000Y-92075000D03*
X126304000Y-115570000D03*
X128204000Y-115570000D03*
D19*
X140360000Y-93740000D03*
X140360000Y-91440000D03*
D20*
X146660000Y-91440000D03*
D19*
X140360000Y-89140000D03*
D21*
X127254000Y-108900000D03*
X127254000Y-109540000D03*
D22*
X137160000Y-99540000D03*
X137160000Y-98580000D03*
D23*
X144780000Y-115545000D03*
X144780000Y-109245000D03*
D18*
X127950000Y-90805000D03*
X126050000Y-90805000D03*
D24*
X137795000Y-89220000D03*
X137795000Y-91120000D03*
D25*
X129746548Y-113454264D03*
D26*
X130064746Y-113772462D03*
X130382944Y-114090660D03*
X130701142Y-114408858D03*
X131019340Y-114727056D03*
X131337538Y-115045254D03*
D27*
X131655736Y-115363452D03*
D28*
X132504264Y-115363452D03*
D29*
X132822462Y-115045254D03*
X133140660Y-114727056D03*
X133458858Y-114408858D03*
X133777056Y-114090660D03*
X134095254Y-113772462D03*
D30*
X134413452Y-113454264D03*
D31*
X134413452Y-112605736D03*
D26*
X134095254Y-112287538D03*
X133777056Y-111969340D03*
X133458858Y-111651142D03*
X133140660Y-111332944D03*
X132822462Y-111014746D03*
D32*
X132504264Y-110696548D03*
D33*
X131655736Y-110696548D03*
D29*
X131337538Y-111014746D03*
X131019340Y-111332944D03*
X130701142Y-111651142D03*
X130382944Y-111969340D03*
X130064746Y-112287538D03*
D34*
X129746548Y-112605736D03*
D35*
X132080000Y-113030000D03*
D22*
X146050000Y-99540000D03*
X146050000Y-98580000D03*
D36*
X123571000Y-97437000D03*
X123571000Y-98397000D03*
D37*
X125730000Y-87430000D03*
D38*
X125730000Y-88000000D03*
D39*
X122555000Y-110490000D03*
X122555000Y-113030000D03*
X122555000Y-115570000D03*
D40*
X126365000Y-121215000D03*
X126365000Y-120015000D03*
X126365000Y-118815000D03*
D11*
X130080000Y-119380000D03*
D10*
X132080000Y-119380000D03*
X134080000Y-119380000D03*
D41*
X127488000Y-96490000D03*
X127488000Y-97390000D03*
X127488000Y-98290000D03*
X127488000Y-99190000D03*
X124988000Y-99190000D03*
X124988000Y-98290000D03*
X124988000Y-97390000D03*
D42*
X125088000Y-96490000D03*
D43*
X130175000Y-81915000D03*
X133350000Y-81915000D03*
X136525000Y-100965000D03*
X136525000Y-105410000D03*
X140970000Y-106045000D03*
X139065000Y-107950000D03*
X142240000Y-107315000D03*
X132216520Y-106807906D03*
X128905000Y-100330000D03*
X136525480Y-97789520D03*
X130175000Y-98425000D03*
X127000000Y-93980000D03*
X132106514Y-94879986D03*
X122555000Y-88265000D03*
X133350000Y-113030000D03*
X123952000Y-90678000D03*
X132080000Y-114300000D03*
X130810000Y-113030000D03*
X132080000Y-111760000D03*
X140335000Y-103505000D03*
X140335000Y-100965000D03*
X142875000Y-102235000D03*
X140518750Y-95701250D03*
X139065000Y-112395000D03*
X133988465Y-95631000D03*
X127000000Y-88077978D03*
X135890000Y-110998000D03*
X140335000Y-115570000D03*
X135128000Y-110236000D03*
X136906000Y-111760000D03*
X124968000Y-117348000D03*
X127254000Y-112268000D03*
X125730000Y-113792000D03*
X130556000Y-106172000D03*
X128270000Y-108712000D03*
D44*
X134350000Y-82390000D02*
X134825000Y-81915000D01*
X134350000Y-84782500D02*
X134350000Y-82390000D01*
X132350000Y-82390000D02*
X131875000Y-81915000D01*
X132350000Y-84782500D02*
X132350000Y-82390000D01*
X132106514Y-85025986D02*
X132106514Y-94879986D01*
X137795000Y-96520000D02*
X136525480Y-97789520D01*
X137795000Y-91119040D02*
X137795000Y-96520000D01*
X140360000Y-95542500D02*
X140518750Y-95701250D01*
X140360000Y-93740000D02*
X140360000Y-95542500D01*
X126931396Y-118815000D02*
X126365000Y-118815000D01*
X131019340Y-114727056D02*
X126931396Y-118815000D01*
X127639511Y-118742603D02*
X127639511Y-120539511D01*
X127639511Y-120539511D02*
X126964022Y-121215000D01*
X126964022Y-121215000D02*
X126365000Y-121215000D01*
X131336860Y-115045254D02*
X127639511Y-118742603D01*
X131337538Y-115045254D02*
X131336860Y-115045254D01*
X120970000Y-92075000D02*
X122555000Y-93660000D01*
X122555000Y-93660000D02*
X122555000Y-110490000D01*
X137190000Y-100300000D02*
X138742500Y-100300000D01*
X136525000Y-100965000D02*
X137190000Y-100300000D01*
X134930092Y-114760522D02*
X137630511Y-112060103D01*
X137630511Y-112060103D02*
X137630511Y-106515511D01*
X133810522Y-114760522D02*
X134930092Y-114760522D01*
X133458858Y-114408858D02*
X133810522Y-114760522D01*
X137630511Y-106515511D02*
X136525000Y-105410000D01*
X146685000Y-104775000D02*
X146685000Y-101829639D01*
X146685000Y-101829639D02*
X145155361Y-100300000D01*
X145155361Y-100300000D02*
X144467500Y-100300000D01*
X145415000Y-106045000D02*
X146685000Y-104775000D01*
X140970000Y-106045000D02*
X145415000Y-106045000D01*
X138340489Y-113119511D02*
X132080000Y-119380000D01*
X138340489Y-108674511D02*
X138340489Y-113119511D01*
X139065000Y-107950000D02*
X138340489Y-108674511D01*
X145415000Y-107315000D02*
X142240000Y-107315000D01*
X147320000Y-99060000D02*
X147320000Y-105410000D01*
X147320000Y-105410000D02*
X145415000Y-107315000D01*
X127488000Y-99190000D02*
X127488000Y-106153000D01*
X127488000Y-106153000D02*
X130049000Y-108714000D01*
X128905000Y-99057000D02*
X128905000Y-100330000D01*
X128138000Y-98290000D02*
X128905000Y-99057000D01*
X127488000Y-98290000D02*
X128138000Y-98290000D01*
X130175000Y-105791000D02*
X130556000Y-106172000D01*
X130175000Y-98425000D02*
X130175000Y-105791000D01*
X136525480Y-97789520D02*
X136525480Y-99060480D01*
X130073000Y-98425000D02*
X130175000Y-98425000D01*
X128138000Y-96490000D02*
X130073000Y-98425000D01*
X127488000Y-96490000D02*
X128138000Y-96490000D01*
X139065000Y-106045000D02*
X127000000Y-93980000D01*
X139065000Y-106680000D02*
X139065000Y-106045000D01*
X141630000Y-109245000D02*
X139065000Y-106680000D01*
X144780000Y-109245000D02*
X141630000Y-109245000D01*
X127099520Y-91854520D02*
X126050000Y-90805000D01*
X131832930Y-95631000D02*
X128056450Y-91854520D01*
X128056450Y-91854520D02*
X127099520Y-91854520D01*
X133988465Y-95631000D02*
X131832930Y-95631000D01*
X124941000Y-97437000D02*
X124988000Y-97390000D01*
X137795000Y-89220000D02*
X137875000Y-89140000D01*
X129540000Y-115570000D02*
X130701142Y-114408858D01*
X138742500Y-100950000D02*
X140320000Y-100950000D01*
X138742500Y-101600000D02*
X140335000Y-101600000D01*
X138742500Y-103550000D02*
X140290000Y-103550000D01*
X140320000Y-100950000D02*
X140335000Y-100965000D01*
X137875000Y-89140000D02*
X140360000Y-89140000D01*
X130701142Y-114408858D02*
X132080000Y-113030000D01*
X133458858Y-111651142D02*
X132080000Y-113030000D01*
X144467500Y-102250000D02*
X142890000Y-102250000D01*
X140290000Y-103550000D02*
X140335000Y-103505000D01*
X123571000Y-97437000D02*
X124941000Y-97437000D01*
X128204000Y-115570000D02*
X129540000Y-115570000D01*
X142890000Y-102250000D02*
X142875000Y-102235000D01*
X134080000Y-118396000D02*
X134080000Y-119380000D01*
X147320000Y-97790000D02*
X147320000Y-99060000D01*
X140518750Y-95701250D02*
X145231250Y-95701250D01*
X146050000Y-99540000D02*
X144577500Y-99540000D01*
X145231250Y-95701250D02*
X147320000Y-97790000D01*
X124780000Y-89535000D02*
X126050000Y-90805000D01*
X147320000Y-99060000D02*
X146840000Y-99540000D01*
X143047000Y-103550000D02*
X144467500Y-103550000D01*
X139065000Y-113411000D02*
X134080000Y-118396000D01*
X144577500Y-99540000D02*
X144467500Y-99650000D01*
X146840000Y-99540000D02*
X146050000Y-99540000D01*
X142539000Y-99650000D02*
X141986000Y-100203000D01*
X125730000Y-88265000D02*
X124780000Y-89215000D01*
X141986000Y-102489000D02*
X143047000Y-103550000D01*
X124780000Y-89215000D02*
X123692500Y-89215000D01*
X125730000Y-88000000D02*
X125730000Y-88265000D01*
X124780000Y-89215000D02*
X124780000Y-89535000D01*
X139065000Y-112395000D02*
X139065000Y-113411000D01*
X141986000Y-100203000D02*
X141986000Y-102489000D01*
X144467500Y-99650000D02*
X142539000Y-99650000D01*
X126344011Y-87421989D02*
X123799489Y-87421989D01*
X123799489Y-87421989D02*
X123692500Y-87315000D01*
X127000000Y-88077978D02*
X126344011Y-87421989D01*
X135890000Y-111977716D02*
X135890000Y-110998000D01*
X134413452Y-113454264D02*
X135890000Y-111977716D01*
X144780000Y-115545000D02*
X145304511Y-116069511D01*
X121033928Y-87315000D02*
X120430480Y-87918448D01*
X121417500Y-89215000D02*
X120970000Y-89662500D01*
X145304511Y-120105489D02*
X144130000Y-121280000D01*
X120430480Y-88680480D02*
X120965000Y-89215000D01*
X120965000Y-89215000D02*
X121417500Y-89215000D01*
X145304511Y-116069511D02*
X145304511Y-120105489D01*
X121417500Y-87315000D02*
X121033928Y-87315000D01*
X120970000Y-89662500D02*
X120970000Y-92075000D01*
X140335000Y-115570000D02*
X140360000Y-115545000D01*
X120430480Y-87918448D02*
X120430480Y-88680480D01*
X140360000Y-115545000D02*
X144780000Y-115545000D01*
X134413452Y-112605736D02*
X135128000Y-111891188D01*
X135128000Y-111891188D02*
X135128000Y-110236000D01*
X136906000Y-111986341D02*
X136906000Y-111760000D01*
X134768215Y-114124126D02*
X136906000Y-111986341D01*
X134446918Y-114124126D02*
X134768215Y-114124126D01*
X134095254Y-113772462D02*
X134446918Y-114124126D01*
X124968000Y-114554000D02*
X124968000Y-117348000D01*
X128590000Y-109540000D02*
X127254000Y-109540000D01*
X129286000Y-110236000D02*
X128590000Y-109540000D01*
X129286000Y-110236000D02*
X127254000Y-112268000D01*
X125730000Y-113792000D02*
X124968000Y-114554000D01*
X130701142Y-111651142D02*
X129286000Y-110236000D01*
X123571000Y-98397000D02*
X124881000Y-98397000D01*
X127508000Y-107696000D02*
X128270000Y-108458000D01*
X146660000Y-91440000D02*
X140360000Y-91440000D01*
X125288978Y-98290000D02*
X127088978Y-96490000D01*
X124881000Y-98397000D02*
X124988000Y-98290000D01*
X127088978Y-96490000D02*
X127488000Y-96490000D01*
X137160000Y-99540000D02*
X138632500Y-99540000D01*
X127353520Y-114520480D02*
X126304000Y-115570000D01*
X130382944Y-114090660D02*
X129953124Y-114520480D01*
X138632500Y-99540000D02*
X138742500Y-99650000D01*
X129953124Y-114520480D02*
X127353520Y-114520480D01*
X126304000Y-115570000D02*
X126492000Y-115382000D01*
X128082000Y-108900000D02*
X128270000Y-108712000D01*
X126492000Y-115382000D02*
X126492000Y-108204000D01*
X127254000Y-108900000D02*
X128082000Y-108900000D01*
X137795000Y-91120000D02*
X138115000Y-91440000D01*
X131572000Y-107694000D02*
X130556000Y-107694000D01*
X128270000Y-108458000D02*
X128270000Y-108712000D01*
X124988000Y-98290000D02*
X125288978Y-98290000D01*
X136525480Y-99060480D02*
X137005000Y-99540000D01*
X127000000Y-107696000D02*
X127508000Y-107696000D01*
X137005000Y-99540000D02*
X137160000Y-99540000D01*
X138115000Y-91440000D02*
X140360000Y-91440000D01*
X130556000Y-107694000D02*
X130556000Y-106172000D01*
X126492000Y-108204000D02*
X127000000Y-107696000D01*
X132216520Y-108069480D02*
X132216520Y-106807906D01*
X131337538Y-111014746D02*
X130985874Y-110663082D01*
X130985874Y-109300126D02*
X131572000Y-108714000D01*
X130985874Y-110663082D02*
X130985874Y-109300126D01*
X131572000Y-108714000D02*
X132216520Y-108069480D01*
X130536354Y-108733646D02*
X130556000Y-108714000D01*
X131019340Y-111332944D02*
X130536354Y-110849958D01*
X130536354Y-110849958D02*
X130536354Y-108733646D01*
X130556000Y-108714000D02*
X130049000Y-108714000D01*
G04 #@! TA.AperFunction,Conductor*
G36*
X121323527Y-93328502D02*
G01*
X121344501Y-93345405D01*
X121884595Y-93885499D01*
X121918621Y-93947811D01*
X121921500Y-93974594D01*
X121921500Y-109223974D01*
X121901498Y-109292095D01*
X121867770Y-109327187D01*
X121686051Y-109454427D01*
X121519427Y-109621051D01*
X121384269Y-109814078D01*
X121381948Y-109819056D01*
X121381946Y-109819059D01*
X121290492Y-110015182D01*
X121284682Y-110027642D01*
X121283260Y-110032950D01*
X121283259Y-110032952D01*
X121225399Y-110248891D01*
X121223694Y-110255255D01*
X121203156Y-110490000D01*
X121223694Y-110724745D01*
X121225118Y-110730059D01*
X121225118Y-110730060D01*
X121280284Y-110935943D01*
X121284682Y-110952358D01*
X121287004Y-110957338D01*
X121287005Y-110957340D01*
X121368407Y-111131905D01*
X121384269Y-111165922D01*
X121519427Y-111358949D01*
X121686051Y-111525573D01*
X121760057Y-111577392D01*
X121873445Y-111656787D01*
X121917774Y-111712244D01*
X121925083Y-111782863D01*
X121893053Y-111846224D01*
X121873445Y-111863213D01*
X121686051Y-111994427D01*
X121519427Y-112161051D01*
X121384269Y-112354078D01*
X121381948Y-112359056D01*
X121381946Y-112359059D01*
X121332915Y-112464206D01*
X121284682Y-112567642D01*
X121283260Y-112572950D01*
X121283259Y-112572952D01*
X121234074Y-112756517D01*
X121223694Y-112795255D01*
X121203156Y-113030000D01*
X121223694Y-113264745D01*
X121225118Y-113270059D01*
X121225118Y-113270060D01*
X121282202Y-113483101D01*
X121284682Y-113492358D01*
X121287004Y-113497338D01*
X121287005Y-113497340D01*
X121356355Y-113646060D01*
X121384269Y-113705922D01*
X121519427Y-113898949D01*
X121686051Y-114065573D01*
X121788658Y-114137419D01*
X121873445Y-114196787D01*
X121917774Y-114252244D01*
X121925083Y-114322863D01*
X121893053Y-114386224D01*
X121873445Y-114403213D01*
X121794020Y-114458827D01*
X121686051Y-114534427D01*
X121519427Y-114701051D01*
X121384269Y-114894078D01*
X121284682Y-115107642D01*
X121283260Y-115112950D01*
X121283259Y-115112952D01*
X121238505Y-115279980D01*
X121223694Y-115335255D01*
X121203156Y-115570000D01*
X121223694Y-115804745D01*
X121225118Y-115810059D01*
X121225118Y-115810060D01*
X121279802Y-116014144D01*
X121284682Y-116032358D01*
X121287004Y-116037338D01*
X121287005Y-116037340D01*
X121373348Y-116222501D01*
X121384269Y-116245922D01*
X121519427Y-116438949D01*
X121686051Y-116605573D01*
X121879078Y-116740731D01*
X121884056Y-116743052D01*
X121884059Y-116743054D01*
X122087660Y-116837995D01*
X122092642Y-116840318D01*
X122097950Y-116841740D01*
X122097952Y-116841741D01*
X122230132Y-116877158D01*
X122320255Y-116901306D01*
X122555000Y-116921844D01*
X122789745Y-116901306D01*
X122879868Y-116877158D01*
X123012048Y-116841741D01*
X123012050Y-116841740D01*
X123017358Y-116840318D01*
X123022340Y-116837995D01*
X123225941Y-116743054D01*
X123225944Y-116743052D01*
X123230922Y-116740731D01*
X123423949Y-116605573D01*
X123590573Y-116438949D01*
X123725731Y-116245922D01*
X123736653Y-116222501D01*
X123822995Y-116037340D01*
X123822996Y-116037338D01*
X123825318Y-116032358D01*
X123830199Y-116014144D01*
X123884882Y-115810060D01*
X123884882Y-115810059D01*
X123886306Y-115804745D01*
X123906844Y-115570000D01*
X123886306Y-115335255D01*
X123871495Y-115279980D01*
X123826741Y-115112952D01*
X123826740Y-115112950D01*
X123825318Y-115107642D01*
X123725731Y-114894078D01*
X123590573Y-114701051D01*
X123423949Y-114534427D01*
X123315980Y-114458827D01*
X123236555Y-114403213D01*
X123192226Y-114347756D01*
X123184917Y-114277137D01*
X123216947Y-114213776D01*
X123236555Y-114196787D01*
X123321342Y-114137419D01*
X123423949Y-114065573D01*
X123590573Y-113898949D01*
X123725731Y-113705922D01*
X123753646Y-113646060D01*
X123822995Y-113497340D01*
X123822996Y-113497338D01*
X123825318Y-113492358D01*
X123827799Y-113483101D01*
X123884882Y-113270060D01*
X123884882Y-113270059D01*
X123886306Y-113264745D01*
X123906844Y-113030000D01*
X123886306Y-112795255D01*
X123875926Y-112756517D01*
X123826741Y-112572952D01*
X123826740Y-112572950D01*
X123825318Y-112567642D01*
X123777085Y-112464206D01*
X123728054Y-112359059D01*
X123728052Y-112359056D01*
X123725731Y-112354078D01*
X123590573Y-112161051D01*
X123423949Y-111994427D01*
X123236555Y-111863213D01*
X123192226Y-111807756D01*
X123184917Y-111737137D01*
X123216947Y-111673776D01*
X123236555Y-111656787D01*
X123349943Y-111577392D01*
X123423949Y-111525573D01*
X123590573Y-111358949D01*
X123725731Y-111165922D01*
X123741594Y-111131905D01*
X123822995Y-110957340D01*
X123822996Y-110957338D01*
X123825318Y-110952358D01*
X123829717Y-110935943D01*
X123884882Y-110730060D01*
X123884882Y-110730059D01*
X123886306Y-110724745D01*
X123906844Y-110490000D01*
X123886306Y-110255255D01*
X123884601Y-110248891D01*
X123826741Y-110032952D01*
X123826740Y-110032950D01*
X123825318Y-110027642D01*
X123819508Y-110015182D01*
X123728054Y-109819059D01*
X123728052Y-109819056D01*
X123725731Y-109814078D01*
X123590573Y-109621051D01*
X123423949Y-109454427D01*
X123242230Y-109327187D01*
X123197901Y-109271730D01*
X123188500Y-109223974D01*
X123188500Y-99310236D01*
X123208502Y-99242115D01*
X123262158Y-99195622D01*
X123324386Y-99184624D01*
X123333060Y-99185307D01*
X123333068Y-99185307D01*
X123335516Y-99185500D01*
X123806484Y-99185500D01*
X123808932Y-99185307D01*
X123808940Y-99185307D01*
X123836844Y-99183111D01*
X123836849Y-99183110D01*
X123843254Y-99182606D01*
X123849430Y-99180812D01*
X123849434Y-99180811D01*
X123918348Y-99160790D01*
X123989344Y-99160993D01*
X124048960Y-99199547D01*
X124078268Y-99264212D01*
X124079500Y-99281787D01*
X124079500Y-99488134D01*
X124086255Y-99550316D01*
X124137385Y-99686705D01*
X124224739Y-99803261D01*
X124341295Y-99890615D01*
X124477684Y-99941745D01*
X124539866Y-99948500D01*
X125436134Y-99948500D01*
X125498316Y-99941745D01*
X125634705Y-99890615D01*
X125751261Y-99803261D01*
X125838615Y-99686705D01*
X125889745Y-99550316D01*
X125896500Y-99488134D01*
X125896500Y-98891866D01*
X125895917Y-98886498D01*
X125890598Y-98837534D01*
X125890598Y-98837532D01*
X125889745Y-98829684D01*
X125886973Y-98822289D01*
X125872705Y-98784229D01*
X125867522Y-98713422D01*
X125872705Y-98695771D01*
X125886973Y-98657711D01*
X125886973Y-98657709D01*
X125889745Y-98650316D01*
X125892897Y-98621303D01*
X125920140Y-98555741D01*
X125929065Y-98545817D01*
X126364405Y-98110477D01*
X126426717Y-98076451D01*
X126497532Y-98081516D01*
X126554368Y-98124063D01*
X126579179Y-98190583D01*
X126579500Y-98199572D01*
X126579500Y-98588134D01*
X126586255Y-98650316D01*
X126589027Y-98657709D01*
X126589027Y-98657711D01*
X126603295Y-98695771D01*
X126608478Y-98766578D01*
X126603295Y-98784229D01*
X126589027Y-98822289D01*
X126586255Y-98829684D01*
X126585402Y-98837532D01*
X126585402Y-98837534D01*
X126580083Y-98886498D01*
X126579500Y-98891866D01*
X126579500Y-99488134D01*
X126586255Y-99550316D01*
X126637385Y-99686705D01*
X126724739Y-99803261D01*
X126731919Y-99808642D01*
X126731920Y-99808643D01*
X126804065Y-99862713D01*
X126846580Y-99919573D01*
X126854500Y-99963539D01*
X126854500Y-106074233D01*
X126853973Y-106085416D01*
X126852298Y-106092909D01*
X126852547Y-106100835D01*
X126852547Y-106100836D01*
X126854438Y-106160986D01*
X126854500Y-106164945D01*
X126854500Y-106192856D01*
X126854997Y-106196790D01*
X126854997Y-106196791D01*
X126855005Y-106196856D01*
X126855938Y-106208693D01*
X126857327Y-106252889D01*
X126861152Y-106266054D01*
X126862978Y-106272339D01*
X126866987Y-106291700D01*
X126869526Y-106311797D01*
X126872445Y-106319168D01*
X126872445Y-106319170D01*
X126885804Y-106352912D01*
X126889649Y-106364142D01*
X126901982Y-106406593D01*
X126906015Y-106413412D01*
X126906017Y-106413417D01*
X126912293Y-106424028D01*
X126920988Y-106441776D01*
X126928448Y-106460617D01*
X126933110Y-106467033D01*
X126933110Y-106467034D01*
X126954436Y-106496387D01*
X126960952Y-106506307D01*
X126983458Y-106544362D01*
X126997779Y-106558683D01*
X127010619Y-106573716D01*
X127022528Y-106590107D01*
X127056218Y-106617978D01*
X127056605Y-106618298D01*
X127065384Y-106626288D01*
X127286501Y-106847405D01*
X127320527Y-106909717D01*
X127315462Y-106980532D01*
X127272915Y-107037368D01*
X127206395Y-107062179D01*
X127197406Y-107062500D01*
X127078763Y-107062500D01*
X127067579Y-107061973D01*
X127060091Y-107060299D01*
X127052168Y-107060548D01*
X126992033Y-107062438D01*
X126988075Y-107062500D01*
X126960144Y-107062500D01*
X126956229Y-107062995D01*
X126956225Y-107062995D01*
X126956167Y-107063003D01*
X126956138Y-107063006D01*
X126944296Y-107063939D01*
X126900110Y-107065327D01*
X126882744Y-107070372D01*
X126880658Y-107070978D01*
X126861306Y-107074986D01*
X126849068Y-107076532D01*
X126849066Y-107076533D01*
X126841203Y-107077526D01*
X126800086Y-107093806D01*
X126788885Y-107097641D01*
X126746406Y-107109982D01*
X126739587Y-107114015D01*
X126739582Y-107114017D01*
X126728971Y-107120293D01*
X126711221Y-107128990D01*
X126692383Y-107136448D01*
X126685967Y-107141109D01*
X126685966Y-107141110D01*
X126667284Y-107154684D01*
X126661506Y-107158882D01*
X126656625Y-107162428D01*
X126646701Y-107168947D01*
X126615460Y-107187422D01*
X126615455Y-107187426D01*
X126608637Y-107191458D01*
X126594313Y-107205782D01*
X126579281Y-107218621D01*
X126562893Y-107230528D01*
X126535507Y-107263632D01*
X126534712Y-107264593D01*
X126526722Y-107273373D01*
X126099747Y-107700348D01*
X126091461Y-107707888D01*
X126084982Y-107712000D01*
X126079557Y-107717777D01*
X126038357Y-107761651D01*
X126035602Y-107764493D01*
X126015865Y-107784230D01*
X126013385Y-107787427D01*
X126005682Y-107796447D01*
X125975414Y-107828679D01*
X125971595Y-107835625D01*
X125971593Y-107835628D01*
X125965652Y-107846434D01*
X125954801Y-107862953D01*
X125942386Y-107878959D01*
X125939241Y-107886228D01*
X125939238Y-107886232D01*
X125924826Y-107919537D01*
X125919609Y-107930187D01*
X125898305Y-107968940D01*
X125896334Y-107976615D01*
X125896334Y-107976616D01*
X125893267Y-107988562D01*
X125886863Y-108007266D01*
X125878819Y-108025855D01*
X125877580Y-108033678D01*
X125877577Y-108033688D01*
X125871901Y-108069524D01*
X125869495Y-108081144D01*
X125860472Y-108116289D01*
X125858500Y-108123970D01*
X125858500Y-108144224D01*
X125856949Y-108163934D01*
X125853780Y-108183943D01*
X125854526Y-108191835D01*
X125857941Y-108227961D01*
X125858500Y-108239819D01*
X125858500Y-112757500D01*
X125838498Y-112825621D01*
X125784842Y-112872114D01*
X125732500Y-112883500D01*
X125634513Y-112883500D01*
X125628061Y-112884872D01*
X125628056Y-112884872D01*
X125541113Y-112903353D01*
X125447712Y-112923206D01*
X125441682Y-112925891D01*
X125441681Y-112925891D01*
X125279278Y-112998197D01*
X125279276Y-112998198D01*
X125273248Y-113000882D01*
X125118747Y-113113134D01*
X125114326Y-113118044D01*
X125114325Y-113118045D01*
X125009578Y-113234379D01*
X124990960Y-113255056D01*
X124932686Y-113355990D01*
X124902408Y-113408433D01*
X124895473Y-113420444D01*
X124836458Y-113602072D01*
X124835768Y-113608633D01*
X124835768Y-113608635D01*
X124819093Y-113767292D01*
X124792080Y-113832949D01*
X124782879Y-113843217D01*
X124612103Y-114013992D01*
X124575742Y-114050353D01*
X124567463Y-114057887D01*
X124560982Y-114062000D01*
X124514357Y-114111651D01*
X124511602Y-114114493D01*
X124491865Y-114134230D01*
X124489385Y-114137427D01*
X124481682Y-114146447D01*
X124451414Y-114178679D01*
X124447595Y-114185625D01*
X124447593Y-114185628D01*
X124441652Y-114196434D01*
X124430801Y-114212953D01*
X124418386Y-114228959D01*
X124415241Y-114236228D01*
X124415238Y-114236232D01*
X124400826Y-114269537D01*
X124395609Y-114280187D01*
X124374305Y-114318940D01*
X124372334Y-114326615D01*
X124372334Y-114326616D01*
X124369267Y-114338562D01*
X124362863Y-114357266D01*
X124354819Y-114375855D01*
X124353580Y-114383678D01*
X124353577Y-114383688D01*
X124347901Y-114419524D01*
X124345495Y-114431144D01*
X124343499Y-114438919D01*
X124334500Y-114473970D01*
X124334500Y-114494224D01*
X124332949Y-114513934D01*
X124329780Y-114533943D01*
X124330526Y-114541835D01*
X124333941Y-114577961D01*
X124334500Y-114589819D01*
X124334500Y-116645476D01*
X124314498Y-116713597D01*
X124302142Y-116729779D01*
X124228960Y-116811056D01*
X124176472Y-116901968D01*
X124145424Y-116955745D01*
X124133473Y-116976444D01*
X124074458Y-117158072D01*
X124054496Y-117348000D01*
X124055186Y-117354565D01*
X124068974Y-117485747D01*
X124074458Y-117537928D01*
X124133473Y-117719556D01*
X124136776Y-117725278D01*
X124136777Y-117725279D01*
X124147038Y-117743051D01*
X124228960Y-117884944D01*
X124233375Y-117889847D01*
X124233379Y-117889852D01*
X124249969Y-117908277D01*
X124356747Y-118026866D01*
X124511248Y-118139118D01*
X124517276Y-118141802D01*
X124517278Y-118141803D01*
X124636856Y-118195042D01*
X124685712Y-118216794D01*
X124783118Y-118237498D01*
X124853260Y-118252408D01*
X124915734Y-118286137D01*
X124950055Y-118348286D01*
X124945045Y-118419884D01*
X124913255Y-118504684D01*
X124906500Y-118566866D01*
X124906500Y-119063134D01*
X124913255Y-119125316D01*
X124964385Y-119261705D01*
X124969771Y-119268891D01*
X125022953Y-119339852D01*
X125047801Y-119406358D01*
X125032748Y-119475741D01*
X125022953Y-119490982D01*
X124970214Y-119561352D01*
X124961676Y-119576946D01*
X124916522Y-119697394D01*
X124912895Y-119712649D01*
X124907369Y-119763514D01*
X124907000Y-119770328D01*
X124907000Y-119796885D01*
X124911475Y-119812124D01*
X124912865Y-119813329D01*
X124920548Y-119815000D01*
X126439000Y-119815000D01*
X126507121Y-119835002D01*
X126553614Y-119888658D01*
X126565000Y-119941000D01*
X126565000Y-120089000D01*
X126544998Y-120157121D01*
X126491342Y-120203614D01*
X126439000Y-120215000D01*
X124925116Y-120215000D01*
X124909877Y-120219475D01*
X124908672Y-120220865D01*
X124907001Y-120228548D01*
X124907001Y-120259669D01*
X124907371Y-120266490D01*
X124912895Y-120317352D01*
X124916521Y-120332604D01*
X124961676Y-120453054D01*
X124970214Y-120468648D01*
X125022953Y-120539018D01*
X125047801Y-120605524D01*
X125032748Y-120674907D01*
X125022953Y-120690148D01*
X124964385Y-120768295D01*
X124913255Y-120904684D01*
X124906500Y-120966866D01*
X124906500Y-121463134D01*
X124913255Y-121525316D01*
X124964385Y-121661705D01*
X125051739Y-121778261D01*
X125168295Y-121865615D01*
X125304684Y-121916745D01*
X125366866Y-121923500D01*
X127363134Y-121923500D01*
X127425316Y-121916745D01*
X127561705Y-121865615D01*
X127678261Y-121778261D01*
X127765615Y-121661705D01*
X127808254Y-121547966D01*
X137718257Y-121547966D01*
X137748565Y-121682446D01*
X137751645Y-121692275D01*
X137831770Y-121889603D01*
X137836413Y-121898794D01*
X137947694Y-122080388D01*
X137953777Y-122088699D01*
X138093213Y-122249667D01*
X138100580Y-122256883D01*
X138264434Y-122392916D01*
X138272881Y-122398831D01*
X138456756Y-122506279D01*
X138466042Y-122510729D01*
X138665001Y-122586703D01*
X138674899Y-122589579D01*
X138778250Y-122610606D01*
X138792299Y-122609410D01*
X138796000Y-122599065D01*
X138796000Y-121552115D01*
X138791525Y-121536876D01*
X138790135Y-121535671D01*
X138782452Y-121534000D01*
X137733225Y-121534000D01*
X137719694Y-121537973D01*
X137718257Y-121547966D01*
X127808254Y-121547966D01*
X127816745Y-121525316D01*
X127823500Y-121463134D01*
X127823500Y-121303616D01*
X127843502Y-121235495D01*
X127860405Y-121214521D01*
X128031758Y-121043168D01*
X128040048Y-121035624D01*
X128046529Y-121031511D01*
X128093170Y-120981843D01*
X128095924Y-120979002D01*
X128115646Y-120959280D01*
X128118130Y-120956078D01*
X128125828Y-120947066D01*
X128150672Y-120920609D01*
X128156097Y-120914832D01*
X128165858Y-120897077D01*
X128176709Y-120880558D01*
X128189125Y-120864552D01*
X128192275Y-120857273D01*
X128206685Y-120823974D01*
X128211902Y-120813324D01*
X128233206Y-120774571D01*
X128238244Y-120754948D01*
X128244648Y-120736245D01*
X128249544Y-120724931D01*
X128249544Y-120724930D01*
X128252692Y-120717656D01*
X128253931Y-120709833D01*
X128253934Y-120709823D01*
X128259610Y-120673987D01*
X128262016Y-120662367D01*
X128271039Y-120627222D01*
X128271039Y-120627221D01*
X128273011Y-120619541D01*
X128273011Y-120599287D01*
X128274562Y-120579576D01*
X128274891Y-120577502D01*
X128277731Y-120559568D01*
X128273570Y-120515549D01*
X128273011Y-120503692D01*
X128273011Y-120078669D01*
X128918001Y-120078669D01*
X128918371Y-120085490D01*
X128923895Y-120136352D01*
X128927521Y-120151604D01*
X128972676Y-120272054D01*
X128981214Y-120287649D01*
X129057715Y-120389724D01*
X129070276Y-120402285D01*
X129172351Y-120478786D01*
X129187946Y-120487324D01*
X129308394Y-120532478D01*
X129323649Y-120536105D01*
X129374514Y-120541631D01*
X129381328Y-120542000D01*
X129807885Y-120542000D01*
X129823124Y-120537525D01*
X129824329Y-120536135D01*
X129826000Y-120528452D01*
X129826000Y-119652115D01*
X129821525Y-119636876D01*
X129820135Y-119635671D01*
X129812452Y-119634000D01*
X128936116Y-119634000D01*
X128920877Y-119638475D01*
X128919672Y-119639865D01*
X128918001Y-119647548D01*
X128918001Y-120078669D01*
X128273011Y-120078669D01*
X128273011Y-119057197D01*
X128293013Y-118989076D01*
X128309916Y-118968102D01*
X128703743Y-118574275D01*
X128766055Y-118540249D01*
X128836870Y-118545314D01*
X128893706Y-118587861D01*
X128918517Y-118654381D01*
X128918212Y-118671099D01*
X128918553Y-118671117D01*
X128918000Y-118681328D01*
X128918000Y-119107885D01*
X128922475Y-119123124D01*
X128923865Y-119124329D01*
X128931548Y-119126000D01*
X129807885Y-119126000D01*
X129823124Y-119121525D01*
X129824329Y-119120135D01*
X129826000Y-119112452D01*
X129826000Y-118236116D01*
X129821525Y-118220877D01*
X129820135Y-118219672D01*
X129812452Y-118218001D01*
X129381331Y-118218001D01*
X129371123Y-118218554D01*
X129371041Y-118217039D01*
X129307092Y-118205574D01*
X129255077Y-118157253D01*
X129237443Y-118088482D01*
X129259790Y-118021093D01*
X129274273Y-118003745D01*
X129733813Y-117544206D01*
X131081244Y-116196775D01*
X131143556Y-116162749D01*
X131218561Y-116169463D01*
X131229281Y-116173904D01*
X131229281Y-116173903D01*
X131260528Y-116186846D01*
X131264680Y-116188566D01*
X131267914Y-116189515D01*
X131267918Y-116189517D01*
X131362510Y-116217291D01*
X131370078Y-116219513D01*
X131428181Y-116221587D01*
X131507202Y-116224408D01*
X131507205Y-116224408D01*
X131516207Y-116224729D01*
X131524935Y-116222501D01*
X131524937Y-116222501D01*
X131653536Y-116189676D01*
X131653541Y-116189674D01*
X131657887Y-116188565D01*
X131682185Y-116178500D01*
X131702597Y-116170045D01*
X131702605Y-116170041D01*
X131705722Y-116168750D01*
X131789686Y-116122901D01*
X131795191Y-116119895D01*
X131802106Y-116116119D01*
X131909126Y-116016481D01*
X131912751Y-116010371D01*
X131918375Y-116004111D01*
X131990905Y-115931581D01*
X132053217Y-115897555D01*
X132124032Y-115902620D01*
X132169095Y-115931581D01*
X132282472Y-116044958D01*
X132282060Y-116045370D01*
X132285924Y-116048374D01*
X132328532Y-116094139D01*
X132454285Y-116168753D01*
X132458435Y-116170472D01*
X132458441Y-116170475D01*
X132466718Y-116173903D01*
X132502111Y-116188564D01*
X132535956Y-116198502D01*
X132599945Y-116217292D01*
X132599948Y-116217292D01*
X132607510Y-116219513D01*
X132663494Y-116221512D01*
X132744634Y-116224409D01*
X132744637Y-116224409D01*
X132753639Y-116224730D01*
X132762367Y-116222502D01*
X132762369Y-116222502D01*
X132890968Y-116189677D01*
X132890973Y-116189675D01*
X132895319Y-116188566D01*
X132899468Y-116186847D01*
X132899472Y-116186846D01*
X132940037Y-116170043D01*
X132940044Y-116170040D01*
X132943155Y-116168751D01*
X132946112Y-116167136D01*
X132946119Y-116167133D01*
X133032622Y-116119898D01*
X133039543Y-116116119D01*
X133146563Y-116016481D01*
X133150188Y-116010371D01*
X133155812Y-116004111D01*
X133185770Y-115974153D01*
X133186182Y-115974565D01*
X133189186Y-115970701D01*
X133234951Y-115928093D01*
X133274376Y-115861647D01*
X133306032Y-115825980D01*
X133333706Y-115804745D01*
X133394211Y-115758318D01*
X133535525Y-115617003D01*
X133602226Y-115530078D01*
X133625484Y-115506821D01*
X133709122Y-115442643D01*
X133709129Y-115442637D01*
X133712409Y-115440120D01*
X133717881Y-115434648D01*
X133780193Y-115400622D01*
X133795118Y-115398302D01*
X133821186Y-115395838D01*
X133834484Y-115394581D01*
X133846341Y-115394022D01*
X134851325Y-115394022D01*
X134862509Y-115394549D01*
X134870001Y-115396224D01*
X134876904Y-115396007D01*
X134942417Y-115422160D01*
X134983656Y-115479952D01*
X134987103Y-115550865D01*
X134953721Y-115610374D01*
X132369053Y-118195042D01*
X132306741Y-118229068D01*
X132255377Y-118229526D01*
X132207703Y-118220043D01*
X132207698Y-118220043D01*
X132202035Y-118218916D01*
X132196260Y-118218840D01*
X132196256Y-118218840D01*
X132088997Y-118217436D01*
X131988401Y-118216119D01*
X131982704Y-118217098D01*
X131982703Y-118217098D01*
X131898609Y-118231548D01*
X131777834Y-118252301D01*
X131577387Y-118326250D01*
X131572426Y-118329202D01*
X131572425Y-118329202D01*
X131398740Y-118432533D01*
X131398737Y-118432535D01*
X131393772Y-118435489D01*
X131389428Y-118439299D01*
X131389422Y-118439303D01*
X131349679Y-118474157D01*
X131285275Y-118504034D01*
X131214942Y-118494349D01*
X131165775Y-118454991D01*
X131102285Y-118370276D01*
X131089724Y-118357715D01*
X130987649Y-118281214D01*
X130972054Y-118272676D01*
X130851606Y-118227522D01*
X130836351Y-118223895D01*
X130785486Y-118218369D01*
X130778672Y-118218000D01*
X130352115Y-118218000D01*
X130336876Y-118222475D01*
X130335671Y-118223865D01*
X130334000Y-118231548D01*
X130334000Y-120523884D01*
X130338475Y-120539123D01*
X130339865Y-120540328D01*
X130347548Y-120541999D01*
X130778669Y-120541999D01*
X130785490Y-120541629D01*
X130836352Y-120536105D01*
X130851604Y-120532479D01*
X130972054Y-120487324D01*
X130987649Y-120478786D01*
X131089724Y-120402285D01*
X131102281Y-120389728D01*
X131163691Y-120307788D01*
X131220551Y-120265273D01*
X131291369Y-120260247D01*
X131342923Y-120285005D01*
X131345281Y-120287302D01*
X131350083Y-120290511D01*
X131350086Y-120290513D01*
X131431587Y-120344970D01*
X131522927Y-120406001D01*
X131528230Y-120408279D01*
X131528233Y-120408281D01*
X131710503Y-120486590D01*
X131719229Y-120490339D01*
X131790650Y-120506500D01*
X131921977Y-120536217D01*
X131921980Y-120536217D01*
X131927613Y-120537492D01*
X131933384Y-120537719D01*
X131933386Y-120537719D01*
X131998363Y-120540272D01*
X132141101Y-120545880D01*
X132246822Y-120530551D01*
X132346829Y-120516051D01*
X132346834Y-120516050D01*
X132352543Y-120515222D01*
X132358007Y-120513367D01*
X132358012Y-120513366D01*
X132549389Y-120448402D01*
X132554857Y-120446546D01*
X132741268Y-120342151D01*
X132905533Y-120205533D01*
X132981251Y-120114493D01*
X133040187Y-120074909D01*
X133111169Y-120073473D01*
X133171660Y-120110640D01*
X133181021Y-120122342D01*
X133188818Y-120133374D01*
X133192241Y-120138218D01*
X133196383Y-120142253D01*
X133232658Y-120177590D01*
X133345281Y-120287302D01*
X133350084Y-120290512D01*
X133350085Y-120290512D01*
X133390254Y-120317352D01*
X133522927Y-120406001D01*
X133528230Y-120408279D01*
X133528233Y-120408281D01*
X133710503Y-120486590D01*
X133719229Y-120490339D01*
X133790650Y-120506500D01*
X133921977Y-120536217D01*
X133921980Y-120536217D01*
X133927613Y-120537492D01*
X133933384Y-120537719D01*
X133933386Y-120537719D01*
X133998363Y-120540272D01*
X134141101Y-120545880D01*
X134246822Y-120530551D01*
X134346829Y-120516051D01*
X134346834Y-120516050D01*
X134352543Y-120515222D01*
X134358007Y-120513367D01*
X134358012Y-120513366D01*
X134549389Y-120448402D01*
X134554857Y-120446546D01*
X134741268Y-120342151D01*
X134905533Y-120205533D01*
X135002453Y-120089000D01*
X135038460Y-120045706D01*
X135042151Y-120041268D01*
X135146546Y-119854857D01*
X135192887Y-119718341D01*
X135213366Y-119658012D01*
X135213367Y-119658007D01*
X135215222Y-119652543D01*
X135217061Y-119639865D01*
X135234912Y-119516745D01*
X135245880Y-119441101D01*
X135247480Y-119380000D01*
X135227930Y-119167244D01*
X135213890Y-119117460D01*
X135171504Y-118967172D01*
X135171503Y-118967170D01*
X135169936Y-118961613D01*
X135156698Y-118934767D01*
X135077995Y-118775174D01*
X135075440Y-118769993D01*
X135056139Y-118744145D01*
X135028174Y-118706695D01*
X137687251Y-118706695D01*
X137687548Y-118711848D01*
X137687548Y-118711851D01*
X137691199Y-118775174D01*
X137700110Y-118929715D01*
X137701247Y-118934761D01*
X137701248Y-118934767D01*
X137708551Y-118967172D01*
X137749222Y-119147639D01*
X137833266Y-119354616D01*
X137870685Y-119415678D01*
X137947291Y-119540688D01*
X137949987Y-119545088D01*
X138096250Y-119713938D01*
X138268126Y-119856632D01*
X138273705Y-119859892D01*
X138341955Y-119899774D01*
X138390679Y-119951412D01*
X138403750Y-120021195D01*
X138377019Y-120086967D01*
X138336562Y-120120327D01*
X138328457Y-120124546D01*
X138319738Y-120130036D01*
X138149433Y-120257905D01*
X138141726Y-120264748D01*
X137994590Y-120418717D01*
X137988104Y-120426727D01*
X137868098Y-120602649D01*
X137863000Y-120611623D01*
X137773338Y-120804783D01*
X137769775Y-120814470D01*
X137714389Y-121014183D01*
X137715912Y-121022607D01*
X137728292Y-121026000D01*
X139178000Y-121026000D01*
X139246121Y-121046002D01*
X139292614Y-121099658D01*
X139304000Y-121152000D01*
X139304000Y-122598517D01*
X139308064Y-122612359D01*
X139321478Y-122614393D01*
X139328184Y-122613534D01*
X139338262Y-122611392D01*
X139542255Y-122550191D01*
X139551842Y-122546433D01*
X139743095Y-122452739D01*
X139751945Y-122447464D01*
X139925328Y-122323792D01*
X139933200Y-122317139D01*
X140084052Y-122166812D01*
X140090730Y-122158965D01*
X140218022Y-121981819D01*
X140219279Y-121982722D01*
X140266373Y-121939362D01*
X140336311Y-121927145D01*
X140401751Y-121954678D01*
X140429579Y-121986511D01*
X140489987Y-122085088D01*
X140636250Y-122253938D01*
X140808126Y-122396632D01*
X141001000Y-122509338D01*
X141209692Y-122589030D01*
X141214760Y-122590061D01*
X141214763Y-122590062D01*
X141309862Y-122609410D01*
X141428597Y-122633567D01*
X141433772Y-122633757D01*
X141433774Y-122633757D01*
X141646673Y-122641564D01*
X141646677Y-122641564D01*
X141651837Y-122641753D01*
X141656957Y-122641097D01*
X141656959Y-122641097D01*
X141868288Y-122614025D01*
X141868289Y-122614025D01*
X141873416Y-122613368D01*
X141878366Y-122611883D01*
X142082429Y-122550661D01*
X142082434Y-122550659D01*
X142087384Y-122549174D01*
X142287994Y-122450896D01*
X142469860Y-122321173D01*
X142628096Y-122163489D01*
X142758453Y-121982077D01*
X142759776Y-121983028D01*
X142806645Y-121939857D01*
X142876580Y-121927625D01*
X142942026Y-121955144D01*
X142969875Y-121986994D01*
X143029987Y-122085088D01*
X143176250Y-122253938D01*
X143348126Y-122396632D01*
X143541000Y-122509338D01*
X143749692Y-122589030D01*
X143754760Y-122590061D01*
X143754763Y-122590062D01*
X143849862Y-122609410D01*
X143968597Y-122633567D01*
X143973772Y-122633757D01*
X143973774Y-122633757D01*
X144186673Y-122641564D01*
X144186677Y-122641564D01*
X144191837Y-122641753D01*
X144196957Y-122641097D01*
X144196959Y-122641097D01*
X144408288Y-122614025D01*
X144408289Y-122614025D01*
X144413416Y-122613368D01*
X144418366Y-122611883D01*
X144622429Y-122550661D01*
X144622434Y-122550659D01*
X144627384Y-122549174D01*
X144827994Y-122450896D01*
X145009860Y-122321173D01*
X145168096Y-122163489D01*
X145298453Y-121982077D01*
X145311995Y-121954678D01*
X145395136Y-121786453D01*
X145395137Y-121786451D01*
X145397430Y-121781811D01*
X145462370Y-121568069D01*
X145491529Y-121346590D01*
X145493156Y-121280000D01*
X145474852Y-121057361D01*
X145446821Y-120945765D01*
X145449625Y-120874823D01*
X145479930Y-120825974D01*
X145696758Y-120609146D01*
X145705048Y-120601602D01*
X145711529Y-120597489D01*
X145758170Y-120547821D01*
X145760924Y-120544980D01*
X145780645Y-120525259D01*
X145783123Y-120522064D01*
X145790829Y-120513042D01*
X145810951Y-120491614D01*
X145821097Y-120480810D01*
X145830857Y-120463057D01*
X145841710Y-120446534D01*
X145849264Y-120436795D01*
X145854124Y-120430530D01*
X145871687Y-120389946D01*
X145876894Y-120379316D01*
X145898206Y-120340549D01*
X145900177Y-120332872D01*
X145900179Y-120332867D01*
X145903243Y-120320931D01*
X145909649Y-120302219D01*
X145914545Y-120290906D01*
X145917692Y-120283634D01*
X145920408Y-120266490D01*
X145924608Y-120239970D01*
X145927015Y-120228349D01*
X145936039Y-120193200D01*
X145936039Y-120193199D01*
X145938011Y-120185519D01*
X145938011Y-120165258D01*
X145939562Y-120145547D01*
X145939713Y-120144598D01*
X145942730Y-120125546D01*
X145938570Y-120081535D01*
X145938011Y-120069678D01*
X145938011Y-116903681D01*
X145958013Y-116835560D01*
X146011669Y-116789067D01*
X146019782Y-116785699D01*
X146118295Y-116748768D01*
X146118296Y-116748767D01*
X146126705Y-116745615D01*
X146243261Y-116658261D01*
X146330615Y-116541705D01*
X146381745Y-116405316D01*
X146388500Y-116343134D01*
X146388500Y-114746866D01*
X146381745Y-114684684D01*
X146330615Y-114548295D01*
X146243261Y-114431739D01*
X146126705Y-114344385D01*
X145990316Y-114293255D01*
X145928134Y-114286500D01*
X143631866Y-114286500D01*
X143569684Y-114293255D01*
X143433295Y-114344385D01*
X143316739Y-114431739D01*
X143229385Y-114548295D01*
X143178255Y-114684684D01*
X143171500Y-114746866D01*
X143171500Y-114785500D01*
X143151498Y-114853621D01*
X143097842Y-114900114D01*
X143045500Y-114911500D01*
X141015224Y-114911500D01*
X140947103Y-114891498D01*
X140941163Y-114887436D01*
X140940909Y-114887251D01*
X140791752Y-114778882D01*
X140785724Y-114776198D01*
X140785722Y-114776197D01*
X140623319Y-114703891D01*
X140623318Y-114703891D01*
X140617288Y-114701206D01*
X140523887Y-114681353D01*
X140436944Y-114662872D01*
X140436939Y-114662872D01*
X140430487Y-114661500D01*
X140239513Y-114661500D01*
X140233061Y-114662872D01*
X140233056Y-114662872D01*
X140146113Y-114681353D01*
X140052712Y-114701206D01*
X140046682Y-114703891D01*
X140046681Y-114703891D01*
X139884278Y-114776197D01*
X139884276Y-114776198D01*
X139878248Y-114778882D01*
X139723747Y-114891134D01*
X139595960Y-115033056D01*
X139500473Y-115198444D01*
X139441458Y-115380072D01*
X139440768Y-115386633D01*
X139440768Y-115386635D01*
X139433860Y-115452359D01*
X139421496Y-115570000D01*
X139441458Y-115759928D01*
X139500473Y-115941556D01*
X139503776Y-115947278D01*
X139503777Y-115947279D01*
X139519293Y-115974153D01*
X139595960Y-116106944D01*
X139600378Y-116111851D01*
X139600379Y-116111852D01*
X139656250Y-116173903D01*
X139723747Y-116248866D01*
X139878248Y-116361118D01*
X139884276Y-116363802D01*
X139884278Y-116363803D01*
X139994137Y-116412715D01*
X140052712Y-116438794D01*
X140146113Y-116458647D01*
X140233056Y-116477128D01*
X140233061Y-116477128D01*
X140239513Y-116478500D01*
X140430487Y-116478500D01*
X140436939Y-116477128D01*
X140436944Y-116477128D01*
X140523887Y-116458647D01*
X140617288Y-116438794D01*
X140675863Y-116412715D01*
X140785722Y-116363803D01*
X140785724Y-116363802D01*
X140791752Y-116361118D01*
X140946253Y-116248866D01*
X140972074Y-116220189D01*
X141032520Y-116182950D01*
X141065710Y-116178500D01*
X143045500Y-116178500D01*
X143113621Y-116198502D01*
X143160114Y-116252158D01*
X143171500Y-116304500D01*
X143171500Y-116343134D01*
X143178255Y-116405316D01*
X143229385Y-116541705D01*
X143316739Y-116658261D01*
X143433295Y-116745615D01*
X143569684Y-116796745D01*
X143631866Y-116803500D01*
X144545011Y-116803500D01*
X144613132Y-116823502D01*
X144659625Y-116877158D01*
X144671011Y-116929500D01*
X144671011Y-117255500D01*
X144651009Y-117323621D01*
X144597353Y-117370114D01*
X144545011Y-117381500D01*
X143231866Y-117381500D01*
X143169684Y-117388255D01*
X143033295Y-117439385D01*
X142916739Y-117526739D01*
X142829385Y-117643295D01*
X142826233Y-117651703D01*
X142784919Y-117761907D01*
X142742277Y-117818671D01*
X142675716Y-117843371D01*
X142606367Y-117828163D01*
X142573743Y-117802476D01*
X142523151Y-117746875D01*
X142523142Y-117746866D01*
X142519670Y-117743051D01*
X142515619Y-117739852D01*
X142515615Y-117739848D01*
X142348414Y-117607800D01*
X142348410Y-117607798D01*
X142344359Y-117604598D01*
X142148789Y-117496638D01*
X142143920Y-117494914D01*
X142143916Y-117494912D01*
X141943087Y-117423795D01*
X141943083Y-117423794D01*
X141938212Y-117422069D01*
X141933119Y-117421162D01*
X141933116Y-117421161D01*
X141723373Y-117383800D01*
X141723367Y-117383799D01*
X141718284Y-117382894D01*
X141644452Y-117381992D01*
X141500081Y-117380228D01*
X141500079Y-117380228D01*
X141494911Y-117380165D01*
X141274091Y-117413955D01*
X141061756Y-117483357D01*
X140863607Y-117586507D01*
X140859474Y-117589610D01*
X140859471Y-117589612D01*
X140689100Y-117717530D01*
X140684965Y-117720635D01*
X140645525Y-117761907D01*
X140591280Y-117818671D01*
X140530629Y-117882138D01*
X140423201Y-118039621D01*
X140368293Y-118084621D01*
X140297768Y-118092792D01*
X140234021Y-118061538D01*
X140213324Y-118037054D01*
X140132822Y-117912617D01*
X140132820Y-117912614D01*
X140130014Y-117908277D01*
X139979670Y-117743051D01*
X139975619Y-117739852D01*
X139975615Y-117739848D01*
X139808414Y-117607800D01*
X139808410Y-117607798D01*
X139804359Y-117604598D01*
X139608789Y-117496638D01*
X139603920Y-117494914D01*
X139603916Y-117494912D01*
X139403087Y-117423795D01*
X139403083Y-117423794D01*
X139398212Y-117422069D01*
X139393119Y-117421162D01*
X139393116Y-117421161D01*
X139183373Y-117383800D01*
X139183367Y-117383799D01*
X139178284Y-117382894D01*
X139104452Y-117381992D01*
X138960081Y-117380228D01*
X138960079Y-117380228D01*
X138954911Y-117380165D01*
X138734091Y-117413955D01*
X138521756Y-117483357D01*
X138323607Y-117586507D01*
X138319474Y-117589610D01*
X138319471Y-117589612D01*
X138149100Y-117717530D01*
X138144965Y-117720635D01*
X138105525Y-117761907D01*
X138051280Y-117818671D01*
X137990629Y-117882138D01*
X137864743Y-118066680D01*
X137847596Y-118103621D01*
X137791767Y-118223895D01*
X137770688Y-118269305D01*
X137710989Y-118484570D01*
X137687251Y-118706695D01*
X135028174Y-118706695D01*
X134951059Y-118603426D01*
X134947607Y-118598803D01*
X134944369Y-118595810D01*
X134913842Y-118532201D01*
X134922607Y-118461747D01*
X134949101Y-118422803D01*
X139457247Y-113914657D01*
X139465537Y-113907113D01*
X139472018Y-113903000D01*
X139484461Y-113889750D01*
X139518658Y-113853333D01*
X139521413Y-113850491D01*
X139541135Y-113830769D01*
X139543612Y-113827576D01*
X139551317Y-113818555D01*
X139576159Y-113792100D01*
X139581586Y-113786321D01*
X139585407Y-113779371D01*
X139591346Y-113768568D01*
X139602202Y-113752041D01*
X139609757Y-113742302D01*
X139609758Y-113742300D01*
X139614614Y-113736040D01*
X139632174Y-113695460D01*
X139637391Y-113684812D01*
X139654875Y-113653009D01*
X139654876Y-113653007D01*
X139658695Y-113646060D01*
X139663733Y-113626437D01*
X139670137Y-113607734D01*
X139675033Y-113596420D01*
X139675033Y-113596419D01*
X139678181Y-113589145D01*
X139679420Y-113581322D01*
X139679423Y-113581312D01*
X139685099Y-113545476D01*
X139687505Y-113533856D01*
X139696528Y-113498711D01*
X139696528Y-113498710D01*
X139698500Y-113491030D01*
X139698500Y-113470776D01*
X139700051Y-113451065D01*
X139701980Y-113438886D01*
X139703220Y-113431057D01*
X139699059Y-113387038D01*
X139698500Y-113375181D01*
X139698500Y-113097524D01*
X139718502Y-113029403D01*
X139730858Y-113013221D01*
X139804040Y-112931944D01*
X139899527Y-112766556D01*
X139958542Y-112584928D01*
X139960883Y-112562660D01*
X139977814Y-112401565D01*
X139978504Y-112395000D01*
X139975267Y-112364206D01*
X139959232Y-112211635D01*
X139959232Y-112211633D01*
X139958542Y-112205072D01*
X139899527Y-112023444D01*
X139883207Y-111995176D01*
X139807341Y-111863774D01*
X139804040Y-111858056D01*
X139793387Y-111846224D01*
X139680675Y-111721045D01*
X139680674Y-111721044D01*
X139676253Y-111716134D01*
X139521752Y-111603882D01*
X139515724Y-111601198D01*
X139515722Y-111601197D01*
X139353319Y-111528891D01*
X139353318Y-111528891D01*
X139347288Y-111526206D01*
X139225698Y-111500361D01*
X139166944Y-111487872D01*
X139166939Y-111487872D01*
X139160487Y-111486500D01*
X139099989Y-111486500D01*
X139031868Y-111466498D01*
X138985375Y-111412842D01*
X138973989Y-111360500D01*
X138973989Y-108989105D01*
X138993991Y-108920984D01*
X139010894Y-108900010D01*
X139015499Y-108895405D01*
X139077811Y-108861379D01*
X139104594Y-108858500D01*
X139160487Y-108858500D01*
X139166939Y-108857128D01*
X139166944Y-108857128D01*
X139277655Y-108833595D01*
X139347288Y-108818794D01*
X139353319Y-108816109D01*
X139515722Y-108743803D01*
X139515724Y-108743802D01*
X139521752Y-108741118D01*
X139676253Y-108628866D01*
X139796688Y-108495109D01*
X139857134Y-108457869D01*
X139928117Y-108459221D01*
X139979419Y-108490324D01*
X141126348Y-109637253D01*
X141133888Y-109645539D01*
X141138000Y-109652018D01*
X141143777Y-109657443D01*
X141187651Y-109698643D01*
X141190493Y-109701398D01*
X141210230Y-109721135D01*
X141213427Y-109723615D01*
X141222447Y-109731318D01*
X141254679Y-109761586D01*
X141261625Y-109765405D01*
X141261628Y-109765407D01*
X141272434Y-109771348D01*
X141288953Y-109782199D01*
X141304959Y-109794614D01*
X141312228Y-109797759D01*
X141312232Y-109797762D01*
X141345537Y-109812174D01*
X141356187Y-109817391D01*
X141394940Y-109838695D01*
X141410574Y-109842709D01*
X141414562Y-109843733D01*
X141433267Y-109850137D01*
X141451855Y-109858181D01*
X141459678Y-109859420D01*
X141459688Y-109859423D01*
X141495524Y-109865099D01*
X141507144Y-109867505D01*
X141542289Y-109876528D01*
X141549970Y-109878500D01*
X141570224Y-109878500D01*
X141589934Y-109880051D01*
X141609943Y-109883220D01*
X141617835Y-109882474D01*
X141653961Y-109879059D01*
X141665819Y-109878500D01*
X143045500Y-109878500D01*
X143113621Y-109898502D01*
X143160114Y-109952158D01*
X143171500Y-110004500D01*
X143171500Y-110043134D01*
X143178255Y-110105316D01*
X143229385Y-110241705D01*
X143316739Y-110358261D01*
X143433295Y-110445615D01*
X143569684Y-110496745D01*
X143631866Y-110503500D01*
X145928134Y-110503500D01*
X145990316Y-110496745D01*
X146126705Y-110445615D01*
X146243261Y-110358261D01*
X146330615Y-110241705D01*
X146381745Y-110105316D01*
X146388500Y-110043134D01*
X146388500Y-108446866D01*
X146381745Y-108384684D01*
X146330615Y-108248295D01*
X146243261Y-108131739D01*
X146126705Y-108044385D01*
X145990316Y-107993255D01*
X145982464Y-107992402D01*
X145982460Y-107992401D01*
X145934384Y-107987179D01*
X145868821Y-107959937D01*
X145828395Y-107901575D01*
X145825939Y-107830620D01*
X145854442Y-107782404D01*
X145852107Y-107780472D01*
X145880298Y-107746395D01*
X145888288Y-107737616D01*
X147712253Y-105913652D01*
X147720539Y-105906112D01*
X147727018Y-105902000D01*
X147737149Y-105891211D01*
X147798360Y-105855245D01*
X147869300Y-105858082D01*
X147927445Y-105898821D01*
X147954334Y-105964528D01*
X147955000Y-105977463D01*
X147955000Y-123593567D01*
X147934998Y-123661688D01*
X147881342Y-123708181D01*
X147811068Y-123718285D01*
X147752496Y-123691331D01*
X147751407Y-123692750D01*
X147748129Y-123690235D01*
X147745030Y-123687517D01*
X147504369Y-123526713D01*
X147500670Y-123524889D01*
X147500665Y-123524886D01*
X147248473Y-123400519D01*
X147248471Y-123400518D01*
X147244778Y-123398697D01*
X147240878Y-123397373D01*
X146974609Y-123306986D01*
X146974605Y-123306985D01*
X146970699Y-123305659D01*
X146966655Y-123304855D01*
X146966649Y-123304853D01*
X146690863Y-123249996D01*
X146690860Y-123249996D01*
X146686820Y-123249192D01*
X146682709Y-123248923D01*
X146682705Y-123248922D01*
X146402119Y-123230532D01*
X146398000Y-123230262D01*
X146393881Y-123230532D01*
X146113295Y-123248922D01*
X146113291Y-123248923D01*
X146109180Y-123249192D01*
X146105140Y-123249996D01*
X146105137Y-123249996D01*
X145829351Y-123304853D01*
X145829345Y-123304855D01*
X145825301Y-123305659D01*
X145821395Y-123306985D01*
X145821391Y-123306986D01*
X145555122Y-123397373D01*
X145551222Y-123398697D01*
X145547529Y-123400518D01*
X145547527Y-123400519D01*
X145295335Y-123524886D01*
X145295330Y-123524889D01*
X145291631Y-123526713D01*
X145050970Y-123687517D01*
X145047876Y-123690231D01*
X145047870Y-123690235D01*
X144836447Y-123875649D01*
X144833358Y-123878358D01*
X144830649Y-123881447D01*
X144645235Y-124092870D01*
X144645231Y-124092876D01*
X144642517Y-124095970D01*
X144481713Y-124336631D01*
X144479889Y-124340330D01*
X144479886Y-124340335D01*
X144355519Y-124592527D01*
X144353697Y-124596222D01*
X144352374Y-124600120D01*
X144352373Y-124600122D01*
X144337005Y-124645396D01*
X144260659Y-124870301D01*
X144259855Y-124874345D01*
X144259853Y-124874351D01*
X144236137Y-124993581D01*
X144203229Y-125056491D01*
X144141534Y-125091623D01*
X144112558Y-125095000D01*
X124492442Y-125095000D01*
X124424321Y-125074998D01*
X124377828Y-125021342D01*
X124368863Y-124993581D01*
X124345147Y-124874351D01*
X124345145Y-124874345D01*
X124344341Y-124870301D01*
X124267996Y-124645396D01*
X124252627Y-124600122D01*
X124252626Y-124600120D01*
X124251303Y-124596222D01*
X124249481Y-124592527D01*
X124125114Y-124340335D01*
X124125111Y-124340330D01*
X124123287Y-124336631D01*
X123962483Y-124095970D01*
X123959769Y-124092876D01*
X123959765Y-124092870D01*
X123774351Y-123881447D01*
X123771642Y-123878358D01*
X123768553Y-123875649D01*
X123557130Y-123690235D01*
X123557124Y-123690231D01*
X123554030Y-123687517D01*
X123313369Y-123526713D01*
X123309670Y-123524889D01*
X123309665Y-123524886D01*
X123057473Y-123400519D01*
X123057471Y-123400518D01*
X123053778Y-123398697D01*
X123049878Y-123397373D01*
X122783609Y-123306986D01*
X122783605Y-123306985D01*
X122779699Y-123305659D01*
X122775655Y-123304855D01*
X122775649Y-123304853D01*
X122499863Y-123249996D01*
X122499860Y-123249996D01*
X122495820Y-123249192D01*
X122491709Y-123248923D01*
X122491705Y-123248922D01*
X122211119Y-123230532D01*
X122207000Y-123230262D01*
X122202881Y-123230532D01*
X121922295Y-123248922D01*
X121922291Y-123248923D01*
X121918180Y-123249192D01*
X121914140Y-123249996D01*
X121914137Y-123249996D01*
X121638351Y-123304853D01*
X121638345Y-123304855D01*
X121634301Y-123305659D01*
X121630395Y-123306985D01*
X121630391Y-123306986D01*
X121364122Y-123397373D01*
X121360222Y-123398697D01*
X121356529Y-123400518D01*
X121356527Y-123400519D01*
X121104335Y-123524886D01*
X121104330Y-123524889D01*
X121100631Y-123526713D01*
X120859970Y-123687517D01*
X120856871Y-123690235D01*
X120853593Y-123692750D01*
X120852517Y-123691348D01*
X120794653Y-123718179D01*
X120724321Y-123708481D01*
X120670398Y-123662300D01*
X120650000Y-123593567D01*
X120650000Y-93434500D01*
X120670002Y-93366379D01*
X120723658Y-93319886D01*
X120776000Y-93308500D01*
X121255406Y-93308500D01*
X121323527Y-93328502D01*
G37*
G04 #@! TD.AperFunction*
G04 #@! TA.AperFunction,Conductor*
G36*
X138793621Y-92093502D02*
G01*
X138840114Y-92147158D01*
X138851500Y-92199500D01*
X138851500Y-92238134D01*
X138858255Y-92300316D01*
X138909385Y-92436705D01*
X138914770Y-92443890D01*
X138914771Y-92443892D01*
X138967640Y-92514435D01*
X138992488Y-92580942D01*
X138977435Y-92650324D01*
X138967640Y-92665565D01*
X138909385Y-92743295D01*
X138858255Y-92879684D01*
X138851500Y-92941866D01*
X138851500Y-94538134D01*
X138858255Y-94600316D01*
X138909385Y-94736705D01*
X138996739Y-94853261D01*
X139113295Y-94940615D01*
X139249684Y-94991745D01*
X139311866Y-94998500D01*
X139600500Y-94998500D01*
X139668621Y-95018502D01*
X139715114Y-95072158D01*
X139726500Y-95124500D01*
X139726500Y-95222707D01*
X139709619Y-95285707D01*
X139684223Y-95329694D01*
X139625208Y-95511322D01*
X139624518Y-95517883D01*
X139624518Y-95517885D01*
X139613319Y-95624435D01*
X139605246Y-95701250D01*
X139605936Y-95707815D01*
X139617825Y-95820928D01*
X139625208Y-95891178D01*
X139684223Y-96072806D01*
X139687526Y-96078528D01*
X139687527Y-96078529D01*
X139704042Y-96107134D01*
X139779710Y-96238194D01*
X139784128Y-96243101D01*
X139784129Y-96243102D01*
X139836119Y-96300843D01*
X139907497Y-96380116D01*
X139959966Y-96418237D01*
X140050741Y-96484189D01*
X140061998Y-96492368D01*
X140068026Y-96495052D01*
X140068028Y-96495053D01*
X140214033Y-96560058D01*
X140236462Y-96570044D01*
X140329862Y-96589897D01*
X140416806Y-96608378D01*
X140416811Y-96608378D01*
X140423263Y-96609750D01*
X140614237Y-96609750D01*
X140620689Y-96608378D01*
X140620694Y-96608378D01*
X140707638Y-96589897D01*
X140801038Y-96570044D01*
X140823467Y-96560058D01*
X140969472Y-96495053D01*
X140969474Y-96495052D01*
X140975502Y-96492368D01*
X140986760Y-96484189D01*
X141108421Y-96395796D01*
X141130003Y-96380116D01*
X141134418Y-96375213D01*
X141139330Y-96370790D01*
X141140455Y-96372039D01*
X141193764Y-96339199D01*
X141226950Y-96334750D01*
X144916656Y-96334750D01*
X144984777Y-96354752D01*
X145005751Y-96371655D01*
X146281778Y-97647682D01*
X146315804Y-97709994D01*
X146314657Y-97768372D01*
X146304000Y-97809514D01*
X146304000Y-98625500D01*
X146283998Y-98693621D01*
X146230342Y-98740114D01*
X146178000Y-98751500D01*
X145814516Y-98751500D01*
X145812068Y-98751693D01*
X145812060Y-98751693D01*
X145784156Y-98753889D01*
X145784151Y-98753890D01*
X145777746Y-98754394D01*
X145678995Y-98783084D01*
X145628016Y-98797894D01*
X145628014Y-98797895D01*
X145620403Y-98800106D01*
X145613581Y-98804141D01*
X145613580Y-98804141D01*
X145592760Y-98816454D01*
X145528621Y-98834000D01*
X145256442Y-98834000D01*
X145241203Y-98838475D01*
X145219940Y-98863013D01*
X145160214Y-98901396D01*
X145124716Y-98906500D01*
X144656263Y-98906500D01*
X144645079Y-98905973D01*
X144637591Y-98904299D01*
X144629668Y-98904548D01*
X144569533Y-98906438D01*
X144565575Y-98906500D01*
X144537644Y-98906500D01*
X144533729Y-98906995D01*
X144533725Y-98906995D01*
X144533667Y-98907003D01*
X144533638Y-98907006D01*
X144521796Y-98907939D01*
X144477610Y-98909327D01*
X144460244Y-98914372D01*
X144458158Y-98914978D01*
X144438806Y-98918986D01*
X144426568Y-98920532D01*
X144426566Y-98920533D01*
X144418703Y-98921526D01*
X144411332Y-98924445D01*
X144411330Y-98924445D01*
X144390603Y-98932652D01*
X144344218Y-98941501D01*
X143790116Y-98941501D01*
X143786031Y-98942039D01*
X143786027Y-98942039D01*
X143679337Y-98956084D01*
X143679335Y-98956084D01*
X143671150Y-98957162D01*
X143590573Y-98990538D01*
X143551050Y-99006909D01*
X143502832Y-99016500D01*
X142617767Y-99016500D01*
X142606584Y-99015973D01*
X142599091Y-99014298D01*
X142591165Y-99014547D01*
X142591164Y-99014547D01*
X142531014Y-99016438D01*
X142527055Y-99016500D01*
X142499144Y-99016500D01*
X142495210Y-99016997D01*
X142495209Y-99016997D01*
X142495144Y-99017005D01*
X142483307Y-99017938D01*
X142451490Y-99018938D01*
X142447029Y-99019078D01*
X142439110Y-99019327D01*
X142421454Y-99024456D01*
X142419658Y-99024978D01*
X142400306Y-99028986D01*
X142393235Y-99029880D01*
X142380203Y-99031526D01*
X142372834Y-99034443D01*
X142372832Y-99034444D01*
X142339097Y-99047800D01*
X142327869Y-99051645D01*
X142285407Y-99063982D01*
X142278584Y-99068017D01*
X142278582Y-99068018D01*
X142267972Y-99074293D01*
X142250224Y-99082988D01*
X142231383Y-99090448D01*
X142224967Y-99095110D01*
X142224966Y-99095110D01*
X142195613Y-99116436D01*
X142185693Y-99122952D01*
X142154465Y-99141420D01*
X142154462Y-99141422D01*
X142147638Y-99145458D01*
X142133317Y-99159779D01*
X142118284Y-99172619D01*
X142101893Y-99184528D01*
X142079654Y-99211410D01*
X142073712Y-99218593D01*
X142065722Y-99227374D01*
X141593742Y-99699353D01*
X141585463Y-99706887D01*
X141578982Y-99711000D01*
X141542760Y-99749573D01*
X141532357Y-99760651D01*
X141529602Y-99763493D01*
X141509865Y-99783230D01*
X141507385Y-99786427D01*
X141499682Y-99795447D01*
X141469414Y-99827679D01*
X141465595Y-99834625D01*
X141465593Y-99834628D01*
X141459652Y-99845434D01*
X141448801Y-99861953D01*
X141436386Y-99877959D01*
X141433241Y-99885228D01*
X141433238Y-99885232D01*
X141418826Y-99918537D01*
X141413609Y-99929187D01*
X141392305Y-99967940D01*
X141390334Y-99975615D01*
X141390334Y-99975616D01*
X141387267Y-99987562D01*
X141380863Y-100006266D01*
X141372819Y-100024855D01*
X141371580Y-100032678D01*
X141371577Y-100032688D01*
X141365901Y-100068524D01*
X141363495Y-100080144D01*
X141358682Y-100098891D01*
X141352500Y-100122970D01*
X141352500Y-100143224D01*
X141350949Y-100162934D01*
X141347780Y-100182943D01*
X141348526Y-100190835D01*
X141351941Y-100226961D01*
X141352500Y-100238819D01*
X141352500Y-102410233D01*
X141351973Y-102421416D01*
X141350298Y-102428909D01*
X141350547Y-102436835D01*
X141350547Y-102436836D01*
X141352438Y-102496986D01*
X141352500Y-102500945D01*
X141352500Y-102528856D01*
X141352997Y-102532790D01*
X141352997Y-102532791D01*
X141353005Y-102532856D01*
X141353938Y-102544693D01*
X141355327Y-102588889D01*
X141360978Y-102608339D01*
X141364987Y-102627700D01*
X141365723Y-102633522D01*
X141367526Y-102647797D01*
X141370445Y-102655168D01*
X141370445Y-102655170D01*
X141383804Y-102688912D01*
X141387649Y-102700142D01*
X141399982Y-102742593D01*
X141404015Y-102749412D01*
X141404017Y-102749417D01*
X141410293Y-102760028D01*
X141418988Y-102777776D01*
X141426448Y-102796617D01*
X141431110Y-102803033D01*
X141431110Y-102803034D01*
X141452436Y-102832387D01*
X141458952Y-102842307D01*
X141481458Y-102880362D01*
X141495779Y-102894683D01*
X141508619Y-102909716D01*
X141520528Y-102926107D01*
X141526634Y-102931158D01*
X141554605Y-102954298D01*
X141563384Y-102962288D01*
X142543343Y-103942247D01*
X142550887Y-103950537D01*
X142555000Y-103957018D01*
X142560777Y-103962443D01*
X142604667Y-104003658D01*
X142607509Y-104006413D01*
X142627231Y-104026135D01*
X142630355Y-104028558D01*
X142630359Y-104028562D01*
X142630424Y-104028612D01*
X142639445Y-104036317D01*
X142671679Y-104066586D01*
X142678627Y-104070405D01*
X142678629Y-104070407D01*
X142689432Y-104076346D01*
X142705959Y-104087202D01*
X142715698Y-104094757D01*
X142715700Y-104094758D01*
X142721960Y-104099614D01*
X142762540Y-104117174D01*
X142773188Y-104122391D01*
X142811940Y-104143695D01*
X142819616Y-104145666D01*
X142819619Y-104145667D01*
X142831562Y-104148733D01*
X142850267Y-104155137D01*
X142868855Y-104163181D01*
X142876678Y-104164420D01*
X142876688Y-104164423D01*
X142912524Y-104170099D01*
X142924144Y-104172505D01*
X142959289Y-104181528D01*
X142966970Y-104183500D01*
X142987224Y-104183500D01*
X143006934Y-104185051D01*
X143026943Y-104188220D01*
X143034835Y-104187474D01*
X143060467Y-104185051D01*
X143070962Y-104184059D01*
X143082819Y-104183500D01*
X143502832Y-104183500D01*
X143551050Y-104193091D01*
X143671150Y-104242838D01*
X143679338Y-104243916D01*
X143786021Y-104257961D01*
X143790115Y-104258500D01*
X144467417Y-104258500D01*
X145144884Y-104258499D01*
X145148969Y-104257961D01*
X145148973Y-104257961D01*
X145255663Y-104243916D01*
X145255665Y-104243916D01*
X145263850Y-104242838D01*
X145383951Y-104193091D01*
X145404248Y-104184684D01*
X145404250Y-104184683D01*
X145411876Y-104181524D01*
X145451396Y-104151199D01*
X145532436Y-104089014D01*
X145532437Y-104089013D01*
X145538987Y-104083987D01*
X145544013Y-104077437D01*
X145544016Y-104077434D01*
X145600626Y-104003658D01*
X145636524Y-103956875D01*
X145697838Y-103808850D01*
X145713500Y-103689885D01*
X145713499Y-103410116D01*
X145712075Y-103399295D01*
X145698916Y-103299337D01*
X145698916Y-103299335D01*
X145697838Y-103291150D01*
X145690411Y-103273219D01*
X145682821Y-103202630D01*
X145690411Y-103176780D01*
X145694678Y-103166480D01*
X145694679Y-103166477D01*
X145697838Y-103158850D01*
X145713500Y-103039885D01*
X145713499Y-102760116D01*
X145711193Y-102742593D01*
X145698916Y-102649337D01*
X145698916Y-102649335D01*
X145697838Y-102641150D01*
X145690140Y-102622565D01*
X145682550Y-102551977D01*
X145690140Y-102526126D01*
X145694189Y-102516351D01*
X145698428Y-102500531D01*
X145702716Y-102467960D01*
X145700505Y-102453778D01*
X145687348Y-102450000D01*
X145665569Y-102450000D01*
X145597448Y-102429998D01*
X145565607Y-102400705D01*
X145538987Y-102366013D01*
X145518068Y-102349961D01*
X145476202Y-102292622D01*
X145471982Y-102221751D01*
X145506747Y-102159848D01*
X145518070Y-102150038D01*
X145532433Y-102139017D01*
X145532438Y-102139012D01*
X145538987Y-102133987D01*
X145565608Y-102099295D01*
X145622946Y-102057428D01*
X145665569Y-102050000D01*
X145686965Y-102050000D01*
X145700737Y-102045956D01*
X145703415Y-102028083D01*
X145733293Y-101963679D01*
X145793246Y-101925652D01*
X145864241Y-101926074D01*
X145917119Y-101957662D01*
X146014595Y-102055138D01*
X146048621Y-102117450D01*
X146051500Y-102144233D01*
X146051500Y-104460405D01*
X146031498Y-104528526D01*
X146014595Y-104549500D01*
X145189500Y-105374595D01*
X145127188Y-105408621D01*
X145100405Y-105411500D01*
X141678200Y-105411500D01*
X141610079Y-105391498D01*
X141590853Y-105375157D01*
X141590580Y-105375460D01*
X141585668Y-105371037D01*
X141581253Y-105366134D01*
X141522194Y-105323225D01*
X141432094Y-105257763D01*
X141432093Y-105257762D01*
X141426752Y-105253882D01*
X141420724Y-105251198D01*
X141420722Y-105251197D01*
X141258319Y-105178891D01*
X141258318Y-105178891D01*
X141252288Y-105176206D01*
X141158887Y-105156353D01*
X141071944Y-105137872D01*
X141071939Y-105137872D01*
X141065487Y-105136500D01*
X140874513Y-105136500D01*
X140868061Y-105137872D01*
X140868056Y-105137872D01*
X140781113Y-105156353D01*
X140687712Y-105176206D01*
X140681682Y-105178891D01*
X140681681Y-105178891D01*
X140519278Y-105251197D01*
X140519276Y-105251198D01*
X140513248Y-105253882D01*
X140358747Y-105366134D01*
X140354326Y-105371044D01*
X140354325Y-105371045D01*
X140247191Y-105490030D01*
X140230960Y-105508056D01*
X140227659Y-105513774D01*
X140142968Y-105660463D01*
X140135473Y-105673444D01*
X140076458Y-105855072D01*
X140075768Y-105861633D01*
X140075768Y-105861635D01*
X140060685Y-106005144D01*
X140056496Y-106045000D01*
X140057186Y-106051565D01*
X140073617Y-106207894D01*
X140076458Y-106234928D01*
X140135473Y-106416556D01*
X140230960Y-106581944D01*
X140320601Y-106681500D01*
X140339222Y-106702181D01*
X140345734Y-106715750D01*
X140345842Y-106715774D01*
X140359516Y-106724425D01*
X140382344Y-106741010D01*
X140483454Y-106814471D01*
X140513248Y-106836118D01*
X140519276Y-106838802D01*
X140519278Y-106838803D01*
X140681681Y-106911109D01*
X140687712Y-106913794D01*
X140780858Y-106933593D01*
X140868056Y-106952128D01*
X140868061Y-106952128D01*
X140874513Y-106953500D01*
X141065487Y-106953500D01*
X141071939Y-106952128D01*
X141071944Y-106952128D01*
X141213716Y-106921993D01*
X141284507Y-106927395D01*
X141341139Y-106970212D01*
X141365633Y-107036850D01*
X141359746Y-107084176D01*
X141346458Y-107125072D01*
X141345768Y-107131633D01*
X141345768Y-107131635D01*
X141335864Y-107225870D01*
X141326496Y-107315000D01*
X141327186Y-107321565D01*
X141345311Y-107494011D01*
X141346458Y-107504928D01*
X141405473Y-107686556D01*
X141500960Y-107851944D01*
X141609229Y-107972189D01*
X141615737Y-107985750D01*
X141615841Y-107985773D01*
X141629508Y-107994419D01*
X141783248Y-108106118D01*
X141789276Y-108108802D01*
X141789278Y-108108803D01*
X141940462Y-108176114D01*
X141957712Y-108183794D01*
X142024974Y-108198091D01*
X142138056Y-108222128D01*
X142138061Y-108222128D01*
X142144513Y-108223500D01*
X142335487Y-108223500D01*
X142341939Y-108222128D01*
X142341944Y-108222128D01*
X142455026Y-108198091D01*
X142522288Y-108183794D01*
X142539538Y-108176114D01*
X142690722Y-108108803D01*
X142690724Y-108108802D01*
X142696752Y-108106118D01*
X142851253Y-107993866D01*
X142855668Y-107988963D01*
X142860580Y-107984540D01*
X142861705Y-107985789D01*
X142915014Y-107952949D01*
X142948200Y-107948500D01*
X143202178Y-107948500D01*
X143270299Y-107968502D01*
X143316792Y-108022158D01*
X143326896Y-108092432D01*
X143303004Y-108150065D01*
X143234771Y-108241108D01*
X143234770Y-108241110D01*
X143229385Y-108248295D01*
X143178255Y-108384684D01*
X143171500Y-108446866D01*
X143171500Y-108485500D01*
X143151498Y-108553621D01*
X143097842Y-108600114D01*
X143045500Y-108611500D01*
X141944594Y-108611500D01*
X141876473Y-108591498D01*
X141855503Y-108574599D01*
X141466359Y-108185455D01*
X141455398Y-108165382D01*
X141449501Y-108163772D01*
X141426496Y-108145591D01*
X140196362Y-106915457D01*
X140185398Y-106895378D01*
X140179494Y-106893766D01*
X140156498Y-106875593D01*
X139735403Y-106454498D01*
X139701379Y-106392188D01*
X139698500Y-106365405D01*
X139698500Y-106123768D01*
X139699027Y-106112585D01*
X139700702Y-106105092D01*
X139700010Y-106083058D01*
X139698562Y-106037002D01*
X139698500Y-106033044D01*
X139698500Y-106005144D01*
X139697996Y-106001153D01*
X139697063Y-105989311D01*
X139696639Y-105975794D01*
X139695674Y-105945111D01*
X139691197Y-105929700D01*
X139690021Y-105925652D01*
X139686012Y-105906293D01*
X139685846Y-105904983D01*
X139683474Y-105886203D01*
X139680558Y-105878837D01*
X139680556Y-105878831D01*
X139667200Y-105845098D01*
X139663355Y-105833868D01*
X139653230Y-105799017D01*
X139653230Y-105799016D01*
X139651019Y-105791407D01*
X139640705Y-105773966D01*
X139632008Y-105756213D01*
X139627472Y-105744758D01*
X139624552Y-105737383D01*
X139598563Y-105701612D01*
X139592047Y-105691692D01*
X139569542Y-105653638D01*
X139555221Y-105639317D01*
X139542380Y-105624283D01*
X139530472Y-105607893D01*
X139496395Y-105579702D01*
X139487616Y-105571712D01*
X138388999Y-104473095D01*
X138354973Y-104410783D01*
X138360038Y-104339968D01*
X138402585Y-104283132D01*
X138469105Y-104258321D01*
X138478094Y-104258000D01*
X138524385Y-104258000D01*
X138539624Y-104253525D01*
X138540829Y-104252135D01*
X138542500Y-104244452D01*
X138542500Y-103734500D01*
X138562502Y-103666379D01*
X138616158Y-103619886D01*
X138668500Y-103608500D01*
X138819872Y-103608500D01*
X138887993Y-103628502D01*
X138934486Y-103682158D01*
X138944590Y-103752432D01*
X138942992Y-103761285D01*
X138942500Y-103763547D01*
X138942500Y-104239884D01*
X138946975Y-104255123D01*
X138948365Y-104256328D01*
X138956048Y-104257999D01*
X139415723Y-104257999D01*
X139423935Y-104257461D01*
X139530533Y-104243428D01*
X139546348Y-104239190D01*
X139678993Y-104184247D01*
X139693176Y-104176059D01*
X139807080Y-104088656D01*
X139818656Y-104077080D01*
X139906059Y-103963176D01*
X139914247Y-103948993D01*
X139969189Y-103816351D01*
X139973428Y-103800531D01*
X139977716Y-103767960D01*
X139975505Y-103753778D01*
X139962348Y-103750000D01*
X139773337Y-103750000D01*
X139705216Y-103729998D01*
X139658723Y-103676342D01*
X139648619Y-103606068D01*
X139678113Y-103541488D01*
X139696632Y-103524038D01*
X139807436Y-103439014D01*
X139807437Y-103439013D01*
X139813987Y-103433987D01*
X139840608Y-103399295D01*
X139897946Y-103357428D01*
X139940569Y-103350000D01*
X139961965Y-103350000D01*
X139975736Y-103345956D01*
X139977765Y-103332417D01*
X139973428Y-103299467D01*
X139969190Y-103283652D01*
X139965140Y-103273874D01*
X139957550Y-103203285D01*
X139965140Y-103177434D01*
X139969678Y-103166479D01*
X139969678Y-103166478D01*
X139972838Y-103158850D01*
X139988500Y-103039885D01*
X139988499Y-102760116D01*
X139986193Y-102742593D01*
X139973916Y-102649337D01*
X139973916Y-102649335D01*
X139972838Y-102641150D01*
X139965411Y-102623219D01*
X139957821Y-102552630D01*
X139965411Y-102526780D01*
X139969678Y-102516480D01*
X139969679Y-102516477D01*
X139972838Y-102508850D01*
X139988500Y-102389885D01*
X139988499Y-102110116D01*
X139987075Y-102099295D01*
X139973916Y-101999337D01*
X139973916Y-101999335D01*
X139972838Y-101991150D01*
X139965140Y-101972565D01*
X139957550Y-101901977D01*
X139965140Y-101876126D01*
X139969189Y-101866351D01*
X139973428Y-101850531D01*
X139977716Y-101817960D01*
X139975505Y-101803778D01*
X139962348Y-101800000D01*
X139940569Y-101800000D01*
X139872448Y-101779998D01*
X139840607Y-101750705D01*
X139813987Y-101716013D01*
X139696631Y-101625962D01*
X139654764Y-101568624D01*
X139650542Y-101497753D01*
X139685306Y-101435850D01*
X139748019Y-101402569D01*
X139773335Y-101400000D01*
X139961965Y-101400000D01*
X139975736Y-101395956D01*
X139977765Y-101382417D01*
X139973428Y-101349467D01*
X139969191Y-101333655D01*
X139964869Y-101323221D01*
X139957278Y-101252631D01*
X139964869Y-101226779D01*
X139969190Y-101216348D01*
X139973428Y-101200531D01*
X139977716Y-101167960D01*
X139975505Y-101153778D01*
X139962348Y-101150000D01*
X139773337Y-101150000D01*
X139705216Y-101129998D01*
X139658723Y-101076342D01*
X139648619Y-101006068D01*
X139678113Y-100941488D01*
X139696632Y-100924038D01*
X139807436Y-100839014D01*
X139807437Y-100839013D01*
X139813987Y-100833987D01*
X139840608Y-100799295D01*
X139897946Y-100757428D01*
X139940569Y-100750000D01*
X139961965Y-100750000D01*
X139975736Y-100745956D01*
X139977765Y-100732417D01*
X139973428Y-100699467D01*
X139969190Y-100683652D01*
X139965140Y-100673874D01*
X139957550Y-100603285D01*
X139965140Y-100577434D01*
X139969678Y-100566479D01*
X139969678Y-100566478D01*
X139972838Y-100558850D01*
X139988500Y-100439885D01*
X139988499Y-100160116D01*
X139986276Y-100143224D01*
X139973916Y-100049337D01*
X139973916Y-100049335D01*
X139972838Y-100041150D01*
X139965411Y-100023219D01*
X139957821Y-99952630D01*
X139965411Y-99926780D01*
X139969678Y-99916480D01*
X139969679Y-99916477D01*
X139972838Y-99908850D01*
X139981187Y-99845434D01*
X139987962Y-99793972D01*
X139987962Y-99793971D01*
X139988500Y-99789885D01*
X139988499Y-99510116D01*
X139986053Y-99491531D01*
X139973916Y-99399337D01*
X139973916Y-99399335D01*
X139972838Y-99391150D01*
X139911524Y-99243124D01*
X139906498Y-99236574D01*
X139819014Y-99122564D01*
X139819013Y-99122563D01*
X139813987Y-99116013D01*
X139807437Y-99110987D01*
X139807434Y-99110984D01*
X139727943Y-99049989D01*
X139686875Y-99018476D01*
X139538850Y-98957162D01*
X139530662Y-98956084D01*
X139423972Y-98942038D01*
X139423971Y-98942038D01*
X139419885Y-98941500D01*
X138870663Y-98941500D01*
X138825536Y-98932155D01*
X138825529Y-98932178D01*
X138825234Y-98932092D01*
X138820626Y-98931138D01*
X138810645Y-98926819D01*
X138802822Y-98925580D01*
X138802812Y-98925577D01*
X138766976Y-98919901D01*
X138755356Y-98917495D01*
X138720211Y-98908472D01*
X138720210Y-98908472D01*
X138712530Y-98906500D01*
X138692276Y-98906500D01*
X138672565Y-98904949D01*
X138670034Y-98904548D01*
X138652557Y-98901780D01*
X138644665Y-98902526D01*
X138608539Y-98905941D01*
X138596681Y-98906500D01*
X138081049Y-98906500D01*
X138012928Y-98886498D01*
X137975246Y-98848924D01*
X137968201Y-98838030D01*
X137959309Y-98834000D01*
X137681379Y-98834000D01*
X137617240Y-98816454D01*
X137596420Y-98804141D01*
X137596419Y-98804141D01*
X137589597Y-98800106D01*
X137581986Y-98797895D01*
X137581984Y-98797894D01*
X137531005Y-98783084D01*
X137432254Y-98754394D01*
X137425849Y-98753890D01*
X137425844Y-98753889D01*
X137397940Y-98751693D01*
X137397932Y-98751693D01*
X137395484Y-98751500D01*
X137284980Y-98751500D01*
X137216859Y-98731498D01*
X137170366Y-98677842D01*
X137158980Y-98625500D01*
X137158980Y-98492044D01*
X137178982Y-98423923D01*
X137191338Y-98407741D01*
X137227402Y-98367688D01*
X137287846Y-98330450D01*
X137321036Y-98326000D01*
X137953558Y-98326000D01*
X137967089Y-98322027D01*
X137968224Y-98314129D01*
X137966619Y-98308605D01*
X145243381Y-98308605D01*
X145243421Y-98322705D01*
X145250691Y-98326000D01*
X145777885Y-98326000D01*
X145793124Y-98321525D01*
X145794329Y-98320135D01*
X145796000Y-98312452D01*
X145796000Y-97811576D01*
X145791656Y-97796781D01*
X145781225Y-97794937D01*
X145771641Y-97796688D01*
X145628216Y-97838357D01*
X145613780Y-97844604D01*
X145486501Y-97919876D01*
X145474074Y-97929516D01*
X145369516Y-98034074D01*
X145359876Y-98046501D01*
X145284604Y-98173780D01*
X145278357Y-98188216D01*
X145243381Y-98308605D01*
X137966619Y-98308605D01*
X137931643Y-98188216D01*
X137925396Y-98173780D01*
X137850124Y-98046501D01*
X137840484Y-98034074D01*
X137735926Y-97929516D01*
X137723494Y-97919872D01*
X137591561Y-97841847D01*
X137543108Y-97789955D01*
X137530403Y-97720104D01*
X137557478Y-97654473D01*
X137566605Y-97644299D01*
X138187247Y-97023657D01*
X138195537Y-97016113D01*
X138202018Y-97012000D01*
X138248659Y-96962332D01*
X138251413Y-96959491D01*
X138271134Y-96939770D01*
X138273612Y-96936575D01*
X138281318Y-96927553D01*
X138306158Y-96901101D01*
X138311586Y-96895321D01*
X138321346Y-96877568D01*
X138332199Y-96861045D01*
X138339753Y-96851306D01*
X138344613Y-96845041D01*
X138362176Y-96804457D01*
X138367383Y-96793827D01*
X138388695Y-96755060D01*
X138390666Y-96747383D01*
X138390668Y-96747378D01*
X138393732Y-96735442D01*
X138400138Y-96716730D01*
X138405034Y-96705417D01*
X138408181Y-96698145D01*
X138411459Y-96677452D01*
X138415097Y-96654481D01*
X138417504Y-96642860D01*
X138426528Y-96607711D01*
X138426528Y-96607710D01*
X138428500Y-96600030D01*
X138428500Y-96579769D01*
X138430051Y-96560058D01*
X138431979Y-96547885D01*
X138433219Y-96540057D01*
X138429059Y-96496046D01*
X138428500Y-96484189D01*
X138428500Y-92207538D01*
X138448502Y-92139417D01*
X138502158Y-92092924D01*
X138514624Y-92088014D01*
X138538717Y-92079976D01*
X138578593Y-92073500D01*
X138725500Y-92073500D01*
X138793621Y-92093502D01*
G37*
G04 #@! TD.AperFunction*
G04 #@! TA.AperFunction,Conductor*
G36*
X133684121Y-81300002D02*
G01*
X133730614Y-81353658D01*
X133742000Y-81406000D01*
X133742000Y-81642885D01*
X133746475Y-81658124D01*
X133747865Y-81659329D01*
X133755548Y-81661000D01*
X135889884Y-81661000D01*
X135905123Y-81656525D01*
X135906328Y-81655135D01*
X135907999Y-81647452D01*
X135907999Y-81406000D01*
X135928001Y-81337879D01*
X135981657Y-81291386D01*
X136033999Y-81280000D01*
X144462227Y-81280000D01*
X144530348Y-81300002D01*
X144576841Y-81353658D01*
X144586945Y-81423932D01*
X144566992Y-81476001D01*
X144481713Y-81603631D01*
X144479889Y-81607330D01*
X144479886Y-81607335D01*
X144355519Y-81859527D01*
X144353697Y-81863222D01*
X144352374Y-81867120D01*
X144352373Y-81867122D01*
X144337005Y-81912396D01*
X144260659Y-82137301D01*
X144259855Y-82141345D01*
X144259853Y-82141351D01*
X144219118Y-82346141D01*
X144204192Y-82421180D01*
X144203923Y-82425291D01*
X144203922Y-82425295D01*
X144191462Y-82615400D01*
X144187307Y-82678797D01*
X144185262Y-82710000D01*
X144185532Y-82714119D01*
X144196991Y-82888946D01*
X144204192Y-82998820D01*
X144204996Y-83002860D01*
X144204996Y-83002863D01*
X144255938Y-83258963D01*
X144260659Y-83282699D01*
X144261985Y-83286605D01*
X144261986Y-83286609D01*
X144347714Y-83539152D01*
X144353697Y-83556778D01*
X144355518Y-83560471D01*
X144355519Y-83560473D01*
X144470397Y-83793422D01*
X144481713Y-83816369D01*
X144642517Y-84057030D01*
X144645231Y-84060124D01*
X144645235Y-84060130D01*
X144830649Y-84271553D01*
X144833358Y-84274642D01*
X144836447Y-84277351D01*
X145047870Y-84462765D01*
X145047876Y-84462769D01*
X145050970Y-84465483D01*
X145291631Y-84626287D01*
X145295330Y-84628111D01*
X145295335Y-84628114D01*
X145547527Y-84752481D01*
X145551222Y-84754303D01*
X145555120Y-84755626D01*
X145555122Y-84755627D01*
X145821391Y-84846014D01*
X145821395Y-84846015D01*
X145825301Y-84847341D01*
X145829345Y-84848145D01*
X145829351Y-84848147D01*
X146105137Y-84903004D01*
X146105140Y-84903004D01*
X146109180Y-84903808D01*
X146113291Y-84904077D01*
X146113295Y-84904078D01*
X146393881Y-84922468D01*
X146398000Y-84922738D01*
X146402119Y-84922468D01*
X146682705Y-84904078D01*
X146682709Y-84904077D01*
X146686820Y-84903808D01*
X146690860Y-84903004D01*
X146690863Y-84903004D01*
X146966649Y-84848147D01*
X146966655Y-84848145D01*
X146970699Y-84847341D01*
X146974605Y-84846015D01*
X146974609Y-84846014D01*
X147240878Y-84755627D01*
X147240880Y-84755626D01*
X147244778Y-84754303D01*
X147248473Y-84752481D01*
X147500665Y-84628114D01*
X147500670Y-84628111D01*
X147504369Y-84626287D01*
X147745030Y-84465483D01*
X147748131Y-84462763D01*
X147751407Y-84460250D01*
X147752483Y-84461652D01*
X147810347Y-84434821D01*
X147880679Y-84444519D01*
X147934602Y-84490700D01*
X147955000Y-84559433D01*
X147955000Y-88925692D01*
X147934998Y-88993813D01*
X147881342Y-89040306D01*
X147811068Y-89050410D01*
X147784772Y-89043674D01*
X147770316Y-89038255D01*
X147708134Y-89031500D01*
X145611866Y-89031500D01*
X145549684Y-89038255D01*
X145413295Y-89089385D01*
X145296739Y-89176739D01*
X145209385Y-89293295D01*
X145158255Y-89429684D01*
X145151500Y-89491866D01*
X145151500Y-90680500D01*
X145131498Y-90748621D01*
X145077842Y-90795114D01*
X145025500Y-90806500D01*
X141994500Y-90806500D01*
X141926379Y-90786498D01*
X141879886Y-90732842D01*
X141868500Y-90680500D01*
X141868500Y-90641866D01*
X141861745Y-90579684D01*
X141810615Y-90443295D01*
X141752047Y-90365148D01*
X141727199Y-90298642D01*
X141742252Y-90229259D01*
X141752047Y-90214018D01*
X141804786Y-90143648D01*
X141813324Y-90128054D01*
X141858478Y-90007606D01*
X141862105Y-89992351D01*
X141867631Y-89941486D01*
X141868000Y-89934672D01*
X141868000Y-89412115D01*
X141863525Y-89396876D01*
X141862135Y-89395671D01*
X141854452Y-89394000D01*
X139086115Y-89394000D01*
X139070876Y-89398475D01*
X139048611Y-89424170D01*
X139048303Y-89423903D01*
X139041096Y-89437101D01*
X138978782Y-89471122D01*
X138952006Y-89474000D01*
X136580116Y-89474000D01*
X136564877Y-89478475D01*
X136563672Y-89479865D01*
X136562001Y-89487548D01*
X136562001Y-89517095D01*
X136562338Y-89523614D01*
X136572257Y-89619206D01*
X136575149Y-89632600D01*
X136626588Y-89786784D01*
X136632761Y-89799962D01*
X136718063Y-89937807D01*
X136727099Y-89949208D01*
X136841828Y-90063738D01*
X136850762Y-90070794D01*
X136891823Y-90128712D01*
X136895053Y-90199635D01*
X136859426Y-90261046D01*
X136851593Y-90267846D01*
X136845652Y-90271522D01*
X136720695Y-90396697D01*
X136716855Y-90402927D01*
X136716854Y-90402928D01*
X136684885Y-90454792D01*
X136627885Y-90547262D01*
X136572203Y-90715139D01*
X136561500Y-90819600D01*
X136561500Y-91420400D01*
X136561837Y-91423646D01*
X136561837Y-91423650D01*
X136564654Y-91450794D01*
X136572474Y-91526166D01*
X136574655Y-91532702D01*
X136574655Y-91532704D01*
X136600028Y-91608755D01*
X136628450Y-91693946D01*
X136721522Y-91844348D01*
X136846697Y-91969305D01*
X136852927Y-91973145D01*
X136852928Y-91973146D01*
X136958952Y-92038500D01*
X136997262Y-92062115D01*
X137051112Y-92079976D01*
X137075167Y-92087955D01*
X137133527Y-92128386D01*
X137160764Y-92193950D01*
X137161500Y-92207548D01*
X137161500Y-96205405D01*
X137141498Y-96273526D01*
X137124595Y-96294500D01*
X136574980Y-96844115D01*
X136512668Y-96878141D01*
X136485885Y-96881020D01*
X136429993Y-96881020D01*
X136423541Y-96882392D01*
X136423536Y-96882392D01*
X136362712Y-96895321D01*
X136243192Y-96920726D01*
X136237162Y-96923411D01*
X136237161Y-96923411D01*
X136074758Y-96995717D01*
X136074756Y-96995718D01*
X136068728Y-96998402D01*
X136063387Y-97002282D01*
X136063386Y-97002283D01*
X136013323Y-97038656D01*
X135914227Y-97110654D01*
X135909806Y-97115564D01*
X135909805Y-97115565D01*
X135854781Y-97176676D01*
X135786440Y-97252576D01*
X135783139Y-97258294D01*
X135705434Y-97392883D01*
X135690953Y-97417964D01*
X135631938Y-97599592D01*
X135631248Y-97606153D01*
X135631248Y-97606155D01*
X135615196Y-97758879D01*
X135611976Y-97789520D01*
X135612666Y-97796085D01*
X135626708Y-97929684D01*
X135631938Y-97979448D01*
X135690953Y-98161076D01*
X135786440Y-98326464D01*
X135859617Y-98407735D01*
X135890333Y-98471741D01*
X135891980Y-98492044D01*
X135891980Y-98981713D01*
X135891453Y-98992896D01*
X135889778Y-99000389D01*
X135890027Y-99008315D01*
X135890027Y-99008316D01*
X135891918Y-99068466D01*
X135891980Y-99072425D01*
X135891980Y-99100336D01*
X135892477Y-99104270D01*
X135892477Y-99104271D01*
X135892485Y-99104336D01*
X135893418Y-99116173D01*
X135894807Y-99160369D01*
X135900458Y-99179819D01*
X135904467Y-99199180D01*
X135907006Y-99219277D01*
X135909925Y-99226648D01*
X135909925Y-99226650D01*
X135923284Y-99260392D01*
X135927129Y-99271622D01*
X135939462Y-99314073D01*
X135943495Y-99320892D01*
X135943497Y-99320897D01*
X135949773Y-99331508D01*
X135958468Y-99349256D01*
X135965928Y-99368097D01*
X135970590Y-99374513D01*
X135970590Y-99374514D01*
X135991916Y-99403867D01*
X135998432Y-99413787D01*
X136020938Y-99451842D01*
X136035259Y-99466163D01*
X136048099Y-99481196D01*
X136060008Y-99497587D01*
X136075153Y-99510116D01*
X136094085Y-99525778D01*
X136102864Y-99533768D01*
X136318669Y-99749573D01*
X136350571Y-99803514D01*
X136386382Y-99926780D01*
X136386557Y-99927381D01*
X136386354Y-99998378D01*
X136347800Y-100057994D01*
X136291757Y-100085781D01*
X136242712Y-100096206D01*
X136236682Y-100098891D01*
X136236681Y-100098891D01*
X136074278Y-100171197D01*
X136074276Y-100171198D01*
X136068248Y-100173882D01*
X136062907Y-100177762D01*
X136062906Y-100177763D01*
X136012843Y-100214136D01*
X135913747Y-100286134D01*
X135909326Y-100291044D01*
X135909325Y-100291045D01*
X135812688Y-100398372D01*
X135785960Y-100428056D01*
X135690473Y-100593444D01*
X135631458Y-100775072D01*
X135630768Y-100781633D01*
X135630768Y-100781635D01*
X135621802Y-100866944D01*
X135611496Y-100965000D01*
X135612186Y-100971565D01*
X135628187Y-101123803D01*
X135631458Y-101154928D01*
X135690473Y-101336556D01*
X135693776Y-101342278D01*
X135693777Y-101342279D01*
X135720589Y-101388718D01*
X135785960Y-101501944D01*
X135790378Y-101506851D01*
X135790379Y-101506852D01*
X135894220Y-101622179D01*
X135900734Y-101635751D01*
X135900843Y-101635775D01*
X135914519Y-101644427D01*
X136060798Y-101750705D01*
X136068248Y-101756118D01*
X136074276Y-101758802D01*
X136074278Y-101758803D01*
X136206301Y-101817583D01*
X136242712Y-101833794D01*
X136322074Y-101850663D01*
X136423056Y-101872128D01*
X136423061Y-101872128D01*
X136429513Y-101873500D01*
X136620487Y-101873500D01*
X136626939Y-101872128D01*
X136626944Y-101872128D01*
X136727926Y-101850663D01*
X136807288Y-101833794D01*
X136843699Y-101817583D01*
X136975722Y-101758803D01*
X136975724Y-101758802D01*
X136981752Y-101756118D01*
X136989203Y-101750705D01*
X137043871Y-101710986D01*
X137136253Y-101643866D01*
X137264040Y-101501944D01*
X137309959Y-101422410D01*
X137361341Y-101373417D01*
X137431055Y-101359981D01*
X137496966Y-101386367D01*
X137506517Y-101395367D01*
X137522652Y-101400000D01*
X137711663Y-101400000D01*
X137779784Y-101420002D01*
X137826277Y-101473658D01*
X137836381Y-101543932D01*
X137806887Y-101608512D01*
X137788368Y-101625962D01*
X137765036Y-101643866D01*
X137671013Y-101716013D01*
X137649559Y-101743973D01*
X137644393Y-101750705D01*
X137587054Y-101792572D01*
X137544431Y-101800000D01*
X137523035Y-101800000D01*
X137509264Y-101804044D01*
X137507235Y-101817583D01*
X137511572Y-101850533D01*
X137515810Y-101866348D01*
X137519860Y-101876126D01*
X137527450Y-101946715D01*
X137519861Y-101972564D01*
X137512162Y-101991150D01*
X137496500Y-102110115D01*
X137496501Y-102389884D01*
X137497039Y-102393969D01*
X137497039Y-102393973D01*
X137506779Y-102467960D01*
X137512162Y-102508850D01*
X137518807Y-102524892D01*
X137519589Y-102526780D01*
X137527179Y-102597370D01*
X137519589Y-102623220D01*
X137515322Y-102633520D01*
X137515321Y-102633523D01*
X137512162Y-102641150D01*
X137496500Y-102760115D01*
X137496501Y-103039884D01*
X137512162Y-103158850D01*
X137519589Y-103176780D01*
X137519860Y-103177434D01*
X137527450Y-103248023D01*
X137519860Y-103273874D01*
X137515810Y-103283650D01*
X137511572Y-103299468D01*
X137510463Y-103307892D01*
X137481741Y-103372819D01*
X137422475Y-103411911D01*
X137351484Y-103412756D01*
X137296446Y-103380541D01*
X135751363Y-101835458D01*
X135740398Y-101815377D01*
X135734494Y-101813765D01*
X135711489Y-101795584D01*
X127947122Y-94031217D01*
X127913096Y-93968905D01*
X127910907Y-93955292D01*
X127894232Y-93796635D01*
X127894232Y-93796633D01*
X127893542Y-93790072D01*
X127834527Y-93608444D01*
X127739040Y-93443056D01*
X127686512Y-93384717D01*
X127615675Y-93306045D01*
X127615674Y-93306044D01*
X127611253Y-93301134D01*
X127456752Y-93188882D01*
X127450724Y-93186198D01*
X127450722Y-93186197D01*
X127288319Y-93113891D01*
X127288318Y-93113891D01*
X127282288Y-93111206D01*
X127188887Y-93091353D01*
X127101944Y-93072872D01*
X127101939Y-93072872D01*
X127095487Y-93071500D01*
X126904513Y-93071500D01*
X126898061Y-93072872D01*
X126898056Y-93072872D01*
X126811113Y-93091353D01*
X126717712Y-93111206D01*
X126711682Y-93113891D01*
X126711681Y-93113891D01*
X126549278Y-93186197D01*
X126549276Y-93186198D01*
X126543248Y-93188882D01*
X126388747Y-93301134D01*
X126384326Y-93306044D01*
X126384325Y-93306045D01*
X126313489Y-93384717D01*
X126260960Y-93443056D01*
X126165473Y-93608444D01*
X126106458Y-93790072D01*
X126105768Y-93796633D01*
X126105768Y-93796635D01*
X126092033Y-93927316D01*
X126086496Y-93980000D01*
X126106458Y-94169928D01*
X126165473Y-94351556D01*
X126260960Y-94516944D01*
X126265378Y-94521851D01*
X126265379Y-94521852D01*
X126283098Y-94541531D01*
X126388747Y-94658866D01*
X126423038Y-94683780D01*
X126530982Y-94762206D01*
X126543248Y-94771118D01*
X126549276Y-94773802D01*
X126549278Y-94773803D01*
X126697695Y-94839882D01*
X126717712Y-94848794D01*
X126811113Y-94868647D01*
X126898056Y-94887128D01*
X126898061Y-94887128D01*
X126904513Y-94888500D01*
X126960406Y-94888500D01*
X127028527Y-94908502D01*
X127049501Y-94925405D01*
X127640501Y-95516405D01*
X127674527Y-95578717D01*
X127669462Y-95649532D01*
X127626915Y-95706368D01*
X127560395Y-95731179D01*
X127551406Y-95731500D01*
X127039866Y-95731500D01*
X126977684Y-95738255D01*
X126841295Y-95789385D01*
X126724739Y-95876739D01*
X126719358Y-95883919D01*
X126642767Y-95986113D01*
X126642765Y-95986116D01*
X126637385Y-95993295D01*
X126615548Y-96051546D01*
X126586661Y-96096412D01*
X126311595Y-96371478D01*
X126249283Y-96405504D01*
X126178468Y-96400439D01*
X126121632Y-96357892D01*
X126096821Y-96291372D01*
X126096500Y-96282383D01*
X126096500Y-96191866D01*
X126089745Y-96129684D01*
X126038615Y-95993295D01*
X125951261Y-95876739D01*
X125834705Y-95789385D01*
X125698316Y-95738255D01*
X125636134Y-95731500D01*
X124539866Y-95731500D01*
X124477684Y-95738255D01*
X124341295Y-95789385D01*
X124224739Y-95876739D01*
X124137385Y-95993295D01*
X124086255Y-96129684D01*
X124079500Y-96191866D01*
X124079500Y-96552734D01*
X124059498Y-96620855D01*
X124005842Y-96667348D01*
X123935568Y-96677452D01*
X123918346Y-96673731D01*
X123849356Y-96653687D01*
X123841391Y-96652232D01*
X123827969Y-96655052D01*
X123825000Y-96666513D01*
X123825000Y-97164885D01*
X123829475Y-97180124D01*
X123830865Y-97181329D01*
X123838548Y-97183000D01*
X124021885Y-97183000D01*
X124043424Y-97176676D01*
X124092551Y-97145104D01*
X124128049Y-97140000D01*
X124231784Y-97140000D01*
X124299905Y-97160002D01*
X124307349Y-97165174D01*
X124328905Y-97181329D01*
X124341295Y-97190615D01*
X124477684Y-97241745D01*
X124539866Y-97248500D01*
X125112000Y-97248500D01*
X125180121Y-97268502D01*
X125226614Y-97322158D01*
X125238000Y-97374500D01*
X125238000Y-97392883D01*
X125217998Y-97461004D01*
X125201095Y-97481978D01*
X125188478Y-97494595D01*
X125126166Y-97528621D01*
X125099383Y-97531500D01*
X124539866Y-97531500D01*
X124477684Y-97538255D01*
X124341295Y-97589385D01*
X124269192Y-97643423D01*
X124239300Y-97665826D01*
X124172794Y-97690674D01*
X124163735Y-97691000D01*
X124092379Y-97691000D01*
X124028240Y-97673454D01*
X124007420Y-97661141D01*
X124007419Y-97661141D01*
X124000597Y-97657106D01*
X123992986Y-97654895D01*
X123992984Y-97654894D01*
X123942005Y-97640084D01*
X123843254Y-97611394D01*
X123836849Y-97610890D01*
X123836844Y-97610889D01*
X123808940Y-97608693D01*
X123808932Y-97608693D01*
X123806484Y-97608500D01*
X123443000Y-97608500D01*
X123374879Y-97588498D01*
X123328386Y-97534842D01*
X123317000Y-97482500D01*
X123317000Y-96668576D01*
X123312656Y-96653781D01*
X123292570Y-96650231D01*
X123228970Y-96618678D01*
X123192526Y-96557749D01*
X123188500Y-96526154D01*
X123188500Y-93738763D01*
X123189027Y-93727579D01*
X123190701Y-93720091D01*
X123188562Y-93652032D01*
X123188500Y-93648075D01*
X123188500Y-93620144D01*
X123187994Y-93616138D01*
X123187061Y-93604292D01*
X123186509Y-93586705D01*
X123185673Y-93560110D01*
X123180022Y-93540658D01*
X123176014Y-93521306D01*
X123174468Y-93509068D01*
X123174467Y-93509066D01*
X123173474Y-93501203D01*
X123161067Y-93469867D01*
X123154588Y-93399167D01*
X123187360Y-93336187D01*
X123248980Y-93300924D01*
X123265221Y-93298156D01*
X123269212Y-93297742D01*
X123282600Y-93294851D01*
X123436784Y-93243412D01*
X123449962Y-93237239D01*
X123587807Y-93151937D01*
X123599208Y-93142901D01*
X123713739Y-93028171D01*
X123722751Y-93016760D01*
X123807816Y-92878757D01*
X123813963Y-92865576D01*
X123865138Y-92711290D01*
X123868005Y-92697914D01*
X123877672Y-92603562D01*
X123878000Y-92597146D01*
X123878000Y-92347115D01*
X123873525Y-92331876D01*
X123872135Y-92330671D01*
X123864452Y-92329000D01*
X122742000Y-92329000D01*
X122673879Y-92308998D01*
X122627386Y-92255342D01*
X122616000Y-92203000D01*
X122616000Y-91802885D01*
X123124000Y-91802885D01*
X123128475Y-91818124D01*
X123129865Y-91819329D01*
X123137548Y-91821000D01*
X123859884Y-91821000D01*
X123875123Y-91816525D01*
X123876328Y-91815135D01*
X123877999Y-91807452D01*
X123877999Y-91552905D01*
X123877662Y-91546386D01*
X123867743Y-91450794D01*
X123864851Y-91437400D01*
X123813412Y-91283216D01*
X123807239Y-91270038D01*
X123721937Y-91132193D01*
X123712901Y-91120792D01*
X123598171Y-91006261D01*
X123586760Y-90997249D01*
X123448757Y-90912184D01*
X123435576Y-90906037D01*
X123281290Y-90854862D01*
X123267914Y-90851995D01*
X123173562Y-90842328D01*
X123167145Y-90842000D01*
X123142115Y-90842000D01*
X123126876Y-90846475D01*
X123125671Y-90847865D01*
X123124000Y-90855548D01*
X123124000Y-91802885D01*
X122616000Y-91802885D01*
X122616000Y-90860116D01*
X122611525Y-90844877D01*
X122610135Y-90843672D01*
X122602452Y-90842001D01*
X122572905Y-90842001D01*
X122566386Y-90842338D01*
X122470794Y-90852257D01*
X122457400Y-90855149D01*
X122303216Y-90906588D01*
X122290038Y-90912761D01*
X122152193Y-90998063D01*
X122140792Y-91007099D01*
X122026262Y-91121828D01*
X122019206Y-91130762D01*
X121961288Y-91171823D01*
X121890365Y-91175053D01*
X121828954Y-91139426D01*
X121822154Y-91131593D01*
X121818478Y-91125652D01*
X121693303Y-91000695D01*
X121663382Y-90982251D01*
X121615890Y-90929478D01*
X121603500Y-90874992D01*
X121603500Y-90149500D01*
X121623502Y-90081379D01*
X121677158Y-90034886D01*
X121729500Y-90023500D01*
X121996502Y-90023500D01*
X121998950Y-90023307D01*
X121998958Y-90023307D01*
X122027421Y-90021067D01*
X122027426Y-90021066D01*
X122033831Y-90020562D01*
X122133769Y-89991528D01*
X122185988Y-89976357D01*
X122185990Y-89976356D01*
X122193601Y-89974145D01*
X122260346Y-89934672D01*
X122329980Y-89893491D01*
X122329983Y-89893489D01*
X122336807Y-89889453D01*
X122454453Y-89771807D01*
X122456706Y-89767998D01*
X122512996Y-89727345D01*
X122583888Y-89723494D01*
X122645609Y-89758582D01*
X122652276Y-89766276D01*
X122655547Y-89771807D01*
X122773193Y-89889453D01*
X122780017Y-89893489D01*
X122780020Y-89893491D01*
X122849654Y-89934672D01*
X122916399Y-89974145D01*
X122924010Y-89976356D01*
X122924012Y-89976357D01*
X122976231Y-89991528D01*
X123076169Y-90020562D01*
X123082574Y-90021066D01*
X123082579Y-90021067D01*
X123111042Y-90023307D01*
X123111050Y-90023307D01*
X123113498Y-90023500D01*
X124271502Y-90023500D01*
X124273955Y-90023307D01*
X124273979Y-90023306D01*
X124307311Y-90020682D01*
X124376791Y-90035276D01*
X124406294Y-90057198D01*
X125004595Y-90655499D01*
X125038621Y-90717811D01*
X125041500Y-90744594D01*
X125041500Y-91330400D01*
X125041837Y-91333646D01*
X125041837Y-91333650D01*
X125051618Y-91427914D01*
X125052474Y-91436166D01*
X125054655Y-91442702D01*
X125054655Y-91442704D01*
X125080212Y-91519308D01*
X125108450Y-91603946D01*
X125201522Y-91754348D01*
X125326697Y-91879305D01*
X125477262Y-91972115D01*
X125557005Y-91998564D01*
X125638611Y-92025632D01*
X125638613Y-92025632D01*
X125645139Y-92027797D01*
X125651975Y-92028497D01*
X125651978Y-92028498D01*
X125695031Y-92032909D01*
X125749600Y-92038500D01*
X126335406Y-92038500D01*
X126403527Y-92058502D01*
X126424501Y-92075405D01*
X126595863Y-92246767D01*
X126603407Y-92255057D01*
X126607520Y-92261538D01*
X126613297Y-92266963D01*
X126657187Y-92308178D01*
X126660029Y-92310933D01*
X126679750Y-92330654D01*
X126682945Y-92333132D01*
X126691967Y-92340838D01*
X126724199Y-92371106D01*
X126731148Y-92374926D01*
X126741952Y-92380866D01*
X126758476Y-92391719D01*
X126774479Y-92404133D01*
X126815063Y-92421696D01*
X126825693Y-92426903D01*
X126864460Y-92448215D01*
X126872137Y-92450186D01*
X126872142Y-92450188D01*
X126884078Y-92453252D01*
X126902786Y-92459657D01*
X126921375Y-92467701D01*
X126929200Y-92468940D01*
X126929202Y-92468941D01*
X126965039Y-92474617D01*
X126976660Y-92477024D01*
X127011809Y-92486048D01*
X127019490Y-92488020D01*
X127039751Y-92488020D01*
X127059460Y-92489571D01*
X127079463Y-92492739D01*
X127087355Y-92491993D01*
X127092582Y-92491499D01*
X127123474Y-92488579D01*
X127135331Y-92488020D01*
X127741856Y-92488020D01*
X127809977Y-92508022D01*
X127830951Y-92524925D01*
X131329273Y-96023247D01*
X131336817Y-96031537D01*
X131340930Y-96038018D01*
X131346707Y-96043443D01*
X131390597Y-96084658D01*
X131393439Y-96087413D01*
X131413160Y-96107134D01*
X131416355Y-96109612D01*
X131425377Y-96117318D01*
X131457609Y-96147586D01*
X131464558Y-96151406D01*
X131475362Y-96157346D01*
X131491886Y-96168199D01*
X131507889Y-96180613D01*
X131548473Y-96198176D01*
X131559103Y-96203383D01*
X131597870Y-96224695D01*
X131605547Y-96226666D01*
X131605552Y-96226668D01*
X131617488Y-96229732D01*
X131636196Y-96236137D01*
X131654785Y-96244181D01*
X131662613Y-96245421D01*
X131662620Y-96245423D01*
X131698454Y-96251099D01*
X131710074Y-96253505D01*
X131745219Y-96262528D01*
X131752900Y-96264500D01*
X131773154Y-96264500D01*
X131792864Y-96266051D01*
X131812873Y-96269220D01*
X131820765Y-96268474D01*
X131856891Y-96265059D01*
X131868749Y-96264500D01*
X133280265Y-96264500D01*
X133348386Y-96284502D01*
X133367612Y-96300843D01*
X133367885Y-96300540D01*
X133372797Y-96304963D01*
X133377212Y-96309866D01*
X133398794Y-96325546D01*
X133501875Y-96400439D01*
X133531713Y-96422118D01*
X133537741Y-96424802D01*
X133537743Y-96424803D01*
X133700146Y-96497109D01*
X133706177Y-96499794D01*
X133799577Y-96519647D01*
X133886521Y-96538128D01*
X133886526Y-96538128D01*
X133892978Y-96539500D01*
X134083952Y-96539500D01*
X134090404Y-96538128D01*
X134090409Y-96538128D01*
X134177353Y-96519647D01*
X134270753Y-96499794D01*
X134276784Y-96497109D01*
X134439187Y-96424803D01*
X134439189Y-96424802D01*
X134445217Y-96422118D01*
X134475056Y-96400439D01*
X134509787Y-96375205D01*
X134599718Y-96309866D01*
X134636316Y-96269220D01*
X134723086Y-96172852D01*
X134723087Y-96172851D01*
X134727505Y-96167944D01*
X134802518Y-96038018D01*
X134819688Y-96008279D01*
X134819689Y-96008278D01*
X134822992Y-96002556D01*
X134882007Y-95820928D01*
X134901969Y-95631000D01*
X134889925Y-95516405D01*
X134882697Y-95447635D01*
X134882697Y-95447633D01*
X134882007Y-95441072D01*
X134822992Y-95259444D01*
X134727505Y-95094056D01*
X134702423Y-95066199D01*
X134604140Y-94957045D01*
X134604139Y-94957044D01*
X134599718Y-94952134D01*
X134463632Y-94853261D01*
X134450559Y-94843763D01*
X134450558Y-94843762D01*
X134445217Y-94839882D01*
X134439189Y-94837198D01*
X134439187Y-94837197D01*
X134276784Y-94764891D01*
X134276783Y-94764891D01*
X134270753Y-94762206D01*
X134177353Y-94742353D01*
X134090409Y-94723872D01*
X134090404Y-94723872D01*
X134083952Y-94722500D01*
X133892978Y-94722500D01*
X133886526Y-94723872D01*
X133886521Y-94723872D01*
X133799578Y-94742353D01*
X133706177Y-94762206D01*
X133700147Y-94764891D01*
X133700146Y-94764891D01*
X133537743Y-94837197D01*
X133537741Y-94837198D01*
X133531713Y-94839882D01*
X133526372Y-94843762D01*
X133526371Y-94843763D01*
X133476515Y-94879986D01*
X133377212Y-94952134D01*
X133372797Y-94957037D01*
X133367885Y-94961460D01*
X133366760Y-94960211D01*
X133313451Y-94993051D01*
X133280265Y-94997500D01*
X133145328Y-94997500D01*
X133077207Y-94977498D01*
X133030714Y-94923842D01*
X133021148Y-94879867D01*
X133020018Y-94879986D01*
X133000746Y-94696621D01*
X133000746Y-94696619D01*
X133000056Y-94690058D01*
X132941041Y-94508430D01*
X132845554Y-94343042D01*
X132772377Y-94261771D01*
X132741661Y-94197765D01*
X132740014Y-94177462D01*
X132740014Y-88947885D01*
X136562000Y-88947885D01*
X136566475Y-88963124D01*
X136567865Y-88964329D01*
X136575548Y-88966000D01*
X137522885Y-88966000D01*
X137538124Y-88961525D01*
X137539329Y-88960135D01*
X137541000Y-88952452D01*
X137541000Y-88947885D01*
X138049000Y-88947885D01*
X138053475Y-88963124D01*
X138054865Y-88964329D01*
X138062548Y-88966000D01*
X138793885Y-88966000D01*
X138809124Y-88961525D01*
X138831389Y-88935830D01*
X138831697Y-88936097D01*
X138838904Y-88922899D01*
X138901218Y-88888878D01*
X138927994Y-88886000D01*
X140087885Y-88886000D01*
X140103124Y-88881525D01*
X140104329Y-88880135D01*
X140106000Y-88872452D01*
X140106000Y-88867885D01*
X140614000Y-88867885D01*
X140618475Y-88883124D01*
X140619865Y-88884329D01*
X140627548Y-88886000D01*
X141849884Y-88886000D01*
X141865123Y-88881525D01*
X141866328Y-88880135D01*
X141867999Y-88872452D01*
X141867999Y-88345331D01*
X141867629Y-88338510D01*
X141862105Y-88287648D01*
X141858479Y-88272396D01*
X141813324Y-88151946D01*
X141804786Y-88136351D01*
X141728285Y-88034276D01*
X141715724Y-88021715D01*
X141613649Y-87945214D01*
X141598054Y-87936676D01*
X141477606Y-87891522D01*
X141462351Y-87887895D01*
X141411486Y-87882369D01*
X141404672Y-87882000D01*
X140632115Y-87882000D01*
X140616876Y-87886475D01*
X140615671Y-87887865D01*
X140614000Y-87895548D01*
X140614000Y-88867885D01*
X140106000Y-88867885D01*
X140106000Y-87900116D01*
X140101525Y-87884877D01*
X140100135Y-87883672D01*
X140092452Y-87882001D01*
X139315331Y-87882001D01*
X139308510Y-87882371D01*
X139257648Y-87887895D01*
X139242396Y-87891521D01*
X139121946Y-87936676D01*
X139106351Y-87945214D01*
X139004276Y-88021715D01*
X138991715Y-88034276D01*
X138915214Y-88136351D01*
X138906676Y-88151946D01*
X138862968Y-88268536D01*
X138820326Y-88325300D01*
X138753765Y-88350000D01*
X138678870Y-88331566D01*
X138598757Y-88282184D01*
X138585576Y-88276037D01*
X138431290Y-88224862D01*
X138417914Y-88221995D01*
X138323562Y-88212328D01*
X138317145Y-88212000D01*
X138067115Y-88212000D01*
X138051876Y-88216475D01*
X138050671Y-88217865D01*
X138049000Y-88225548D01*
X138049000Y-88947885D01*
X137541000Y-88947885D01*
X137541000Y-88230116D01*
X137536525Y-88214877D01*
X137535135Y-88213672D01*
X137527452Y-88212001D01*
X137272905Y-88212001D01*
X137266386Y-88212338D01*
X137170794Y-88222257D01*
X137157400Y-88225149D01*
X137003216Y-88276588D01*
X136990038Y-88282761D01*
X136852193Y-88368063D01*
X136840792Y-88377099D01*
X136726261Y-88491829D01*
X136717249Y-88503240D01*
X136632184Y-88641243D01*
X136626037Y-88654424D01*
X136574862Y-88808710D01*
X136571995Y-88822086D01*
X136562328Y-88916438D01*
X136562000Y-88922855D01*
X136562000Y-88947885D01*
X132740014Y-88947885D01*
X132740014Y-86071000D01*
X132760016Y-86002879D01*
X132813672Y-85956386D01*
X132866014Y-85945000D01*
X133052134Y-85945000D01*
X133114316Y-85938245D01*
X133250705Y-85887115D01*
X133367261Y-85799761D01*
X133434383Y-85710201D01*
X133491243Y-85667686D01*
X133562061Y-85662660D01*
X133614507Y-85687848D01*
X133620406Y-85692625D01*
X133788362Y-85804850D01*
X133798472Y-85810340D01*
X133984077Y-85890082D01*
X133995020Y-85893637D01*
X134192042Y-85938219D01*
X134203452Y-85939721D01*
X134405307Y-85947652D01*
X134416789Y-85947050D01*
X134616712Y-85918063D01*
X134627894Y-85915378D01*
X134819185Y-85850443D01*
X134829688Y-85845767D01*
X134957708Y-85774073D01*
X134967570Y-85763997D01*
X134964615Y-85756325D01*
X134079885Y-84871595D01*
X134045859Y-84809283D01*
X134047694Y-84783632D01*
X134714408Y-84783632D01*
X134714539Y-84785465D01*
X134718790Y-84792080D01*
X135319910Y-85393200D01*
X135332290Y-85399960D01*
X135338870Y-85395034D01*
X135413267Y-85262188D01*
X135417943Y-85251685D01*
X135482878Y-85060394D01*
X135485563Y-85049212D01*
X135514846Y-84847249D01*
X135515476Y-84839866D01*
X135516881Y-84786204D01*
X135516638Y-84778805D01*
X135497966Y-84575592D01*
X135495868Y-84564271D01*
X135441038Y-84369857D01*
X135436913Y-84359110D01*
X135347567Y-84177938D01*
X135343663Y-84171566D01*
X135333453Y-84163904D01*
X135321033Y-84170677D01*
X134722022Y-84769688D01*
X134714408Y-84783632D01*
X134047694Y-84783632D01*
X134050924Y-84738468D01*
X134079885Y-84693405D01*
X134959433Y-83813857D01*
X134966193Y-83801477D01*
X134960163Y-83793422D01*
X134884680Y-83745796D01*
X134874436Y-83740576D01*
X134686808Y-83665720D01*
X134675770Y-83662450D01*
X134477650Y-83623042D01*
X134466203Y-83621839D01*
X134264222Y-83619195D01*
X134252742Y-83620098D01*
X134053661Y-83654307D01*
X134042541Y-83657287D01*
X133853019Y-83727205D01*
X133842641Y-83732155D01*
X133669033Y-83835441D01*
X133659724Y-83842205D01*
X133620356Y-83876729D01*
X133555952Y-83906606D01*
X133485619Y-83896920D01*
X133436453Y-83857562D01*
X133426034Y-83843659D01*
X133367261Y-83765239D01*
X133250705Y-83677885D01*
X133114316Y-83626755D01*
X133106463Y-83625902D01*
X133106459Y-83625901D01*
X133098082Y-83624991D01*
X133095895Y-83624754D01*
X133030333Y-83597514D01*
X132989905Y-83539152D01*
X132983500Y-83499491D01*
X132983500Y-82612095D01*
X133742001Y-82612095D01*
X133742338Y-82618614D01*
X133752257Y-82714206D01*
X133755149Y-82727600D01*
X133806588Y-82881784D01*
X133812761Y-82894962D01*
X133898063Y-83032807D01*
X133907099Y-83044208D01*
X134021829Y-83158739D01*
X134033240Y-83167751D01*
X134171243Y-83252816D01*
X134184424Y-83258963D01*
X134338710Y-83310138D01*
X134352086Y-83313005D01*
X134446438Y-83322672D01*
X134452854Y-83323000D01*
X134552885Y-83323000D01*
X134568124Y-83318525D01*
X134569329Y-83317135D01*
X134571000Y-83309452D01*
X134571000Y-83304884D01*
X135079000Y-83304884D01*
X135083475Y-83320123D01*
X135084865Y-83321328D01*
X135092548Y-83322999D01*
X135197095Y-83322999D01*
X135203614Y-83322662D01*
X135299206Y-83312743D01*
X135312600Y-83309851D01*
X135466784Y-83258412D01*
X135479962Y-83252239D01*
X135617807Y-83166937D01*
X135629208Y-83157901D01*
X135743739Y-83043171D01*
X135752751Y-83031760D01*
X135837816Y-82893757D01*
X135843963Y-82880576D01*
X135895138Y-82726290D01*
X135898005Y-82712914D01*
X135907672Y-82618562D01*
X135908000Y-82612146D01*
X135908000Y-82187115D01*
X135903525Y-82171876D01*
X135902135Y-82170671D01*
X135894452Y-82169000D01*
X135097115Y-82169000D01*
X135081876Y-82173475D01*
X135080671Y-82174865D01*
X135079000Y-82182548D01*
X135079000Y-83304884D01*
X134571000Y-83304884D01*
X134571000Y-82187115D01*
X134566525Y-82171876D01*
X134565135Y-82170671D01*
X134557452Y-82169000D01*
X133760116Y-82169000D01*
X133744877Y-82173475D01*
X133743672Y-82174865D01*
X133742001Y-82182548D01*
X133742001Y-82612095D01*
X132983500Y-82612095D01*
X132983500Y-82468763D01*
X132984027Y-82457579D01*
X132985701Y-82450091D01*
X132983562Y-82382032D01*
X132983500Y-82378075D01*
X132983500Y-82350144D01*
X132982994Y-82346138D01*
X132982061Y-82334292D01*
X132980922Y-82298037D01*
X132980673Y-82290110D01*
X132975022Y-82270658D01*
X132971014Y-82251306D01*
X132969468Y-82239069D01*
X132969468Y-82239068D01*
X132968474Y-82231203D01*
X132965556Y-82223833D01*
X132963584Y-82216153D01*
X132964953Y-82215802D01*
X132958500Y-82181975D01*
X132958500Y-81406000D01*
X132978502Y-81337879D01*
X133032158Y-81291386D01*
X133084500Y-81280000D01*
X133616000Y-81280000D01*
X133684121Y-81300002D01*
G37*
G04 #@! TD.AperFunction*
G04 #@! TA.AperFunction,Conductor*
G36*
X143163622Y-100303502D02*
G01*
X143210115Y-100357158D01*
X143221501Y-100409499D01*
X143221501Y-100439884D01*
X143222039Y-100443969D01*
X143222039Y-100443973D01*
X143231731Y-100517595D01*
X143237162Y-100558850D01*
X143240322Y-100566478D01*
X143244589Y-100576780D01*
X143252179Y-100647370D01*
X143244590Y-100673218D01*
X143237162Y-100691150D01*
X143236084Y-100699338D01*
X143233346Y-100720139D01*
X143221500Y-100810115D01*
X143221501Y-101089884D01*
X143222039Y-101093969D01*
X143222039Y-101093973D01*
X143235838Y-101198794D01*
X143237162Y-101208850D01*
X143244589Y-101226780D01*
X143252179Y-101297370D01*
X143244590Y-101323218D01*
X143237162Y-101341150D01*
X143236084Y-101349338D01*
X143224695Y-101435850D01*
X143221500Y-101460115D01*
X143221501Y-101739884D01*
X143222039Y-101743969D01*
X143222039Y-101743973D01*
X143235092Y-101843124D01*
X143237162Y-101858850D01*
X143244318Y-101876126D01*
X143244860Y-101877434D01*
X143252450Y-101948023D01*
X143244860Y-101973874D01*
X143240811Y-101983649D01*
X143236572Y-101999469D01*
X143232284Y-102032040D01*
X143234495Y-102046222D01*
X143247652Y-102050000D01*
X143269431Y-102050000D01*
X143337552Y-102070002D01*
X143369391Y-102099294D01*
X143396013Y-102133987D01*
X143409366Y-102144233D01*
X143416932Y-102150039D01*
X143458798Y-102207378D01*
X143463018Y-102278249D01*
X143428253Y-102340152D01*
X143416930Y-102349962D01*
X143402567Y-102360983D01*
X143402563Y-102360987D01*
X143396013Y-102366013D01*
X143374559Y-102393973D01*
X143369393Y-102400705D01*
X143312054Y-102442572D01*
X143269431Y-102450000D01*
X143248035Y-102450000D01*
X143234264Y-102454044D01*
X143232235Y-102467583D01*
X143236572Y-102500533D01*
X143240462Y-102515051D01*
X143238771Y-102586028D01*
X143198976Y-102644823D01*
X143133711Y-102672769D01*
X143063698Y-102660994D01*
X143029659Y-102636755D01*
X142919685Y-102526780D01*
X142656404Y-102263499D01*
X142622379Y-102201187D01*
X142619500Y-102174404D01*
X142619500Y-100517595D01*
X142639502Y-100449474D01*
X142656405Y-100428499D01*
X142764501Y-100320404D01*
X142826813Y-100286379D01*
X142853596Y-100283500D01*
X143095501Y-100283500D01*
X143163622Y-100303502D01*
G37*
G04 #@! TD.AperFunction*
G04 #@! TA.AperFunction,Conductor*
G36*
X138887993Y-101028502D02*
G01*
X138934486Y-101082158D01*
X138944590Y-101152432D01*
X138942992Y-101161285D01*
X138942500Y-101163547D01*
X138942500Y-101400000D01*
X138941948Y-101400000D01*
X138941947Y-101451000D01*
X138903562Y-101510725D01*
X138838981Y-101540218D01*
X138821052Y-101541500D01*
X138743167Y-101541500D01*
X138665127Y-101541501D01*
X138597008Y-101521499D01*
X138550515Y-101467844D01*
X138540410Y-101397570D01*
X138542007Y-101388718D01*
X138542500Y-101386452D01*
X138542500Y-101134500D01*
X138562502Y-101066379D01*
X138616158Y-101019886D01*
X138668500Y-101008500D01*
X138819872Y-101008500D01*
X138887993Y-101028502D01*
G37*
G04 #@! TD.AperFunction*
G04 #@! TA.AperFunction,Conductor*
G36*
X130733621Y-81300002D02*
G01*
X130780114Y-81353658D01*
X130791500Y-81406000D01*
X130791500Y-82615400D01*
X130791837Y-82618646D01*
X130791837Y-82618650D01*
X130801752Y-82714206D01*
X130802474Y-82721166D01*
X130858450Y-82888946D01*
X130951522Y-83039348D01*
X131076697Y-83164305D01*
X131082927Y-83168145D01*
X131082928Y-83168146D01*
X131220288Y-83252816D01*
X131227262Y-83257115D01*
X131292185Y-83278649D01*
X131388611Y-83310632D01*
X131388613Y-83310632D01*
X131395139Y-83312797D01*
X131401975Y-83313497D01*
X131401978Y-83313498D01*
X131445031Y-83317909D01*
X131499600Y-83323500D01*
X131590500Y-83323500D01*
X131658621Y-83343502D01*
X131705114Y-83397158D01*
X131716500Y-83449500D01*
X131716500Y-83499491D01*
X131696498Y-83567612D01*
X131642842Y-83614105D01*
X131604106Y-83624754D01*
X131601918Y-83624991D01*
X131593541Y-83625901D01*
X131593537Y-83625902D01*
X131585684Y-83626755D01*
X131449295Y-83677885D01*
X131332739Y-83765239D01*
X131245385Y-83881795D01*
X131194255Y-84018184D01*
X131187500Y-84080366D01*
X131187500Y-85484634D01*
X131194255Y-85546816D01*
X131245385Y-85683205D01*
X131332739Y-85799761D01*
X131422580Y-85867093D01*
X131465094Y-85923951D01*
X131473014Y-85967918D01*
X131473014Y-94070989D01*
X131453012Y-94139110D01*
X131399356Y-94185603D01*
X131329082Y-94195707D01*
X131264502Y-94166213D01*
X131257919Y-94160084D01*
X128889134Y-91791299D01*
X128855108Y-91728987D01*
X128860173Y-91658172D01*
X128870969Y-91636088D01*
X128887817Y-91608755D01*
X128893963Y-91595576D01*
X128945138Y-91441290D01*
X128948005Y-91427914D01*
X128957672Y-91333562D01*
X128958000Y-91327146D01*
X128958000Y-91077115D01*
X128953525Y-91061876D01*
X128952135Y-91060671D01*
X128944452Y-91059000D01*
X127822000Y-91059000D01*
X127753879Y-91038998D01*
X127707386Y-90985342D01*
X127696000Y-90933000D01*
X127696000Y-90532885D01*
X128204000Y-90532885D01*
X128208475Y-90548124D01*
X128209865Y-90549329D01*
X128217548Y-90551000D01*
X128939884Y-90551000D01*
X128955123Y-90546525D01*
X128956328Y-90545135D01*
X128957999Y-90537452D01*
X128957999Y-90282905D01*
X128957662Y-90276386D01*
X128947743Y-90180794D01*
X128944851Y-90167400D01*
X128893412Y-90013216D01*
X128887239Y-90000038D01*
X128801937Y-89862193D01*
X128792901Y-89850792D01*
X128678171Y-89736261D01*
X128666760Y-89727249D01*
X128528757Y-89642184D01*
X128515576Y-89636037D01*
X128361290Y-89584862D01*
X128347914Y-89581995D01*
X128253562Y-89572328D01*
X128247145Y-89572000D01*
X128222115Y-89572000D01*
X128206876Y-89576475D01*
X128205671Y-89577865D01*
X128204000Y-89585548D01*
X128204000Y-90532885D01*
X127696000Y-90532885D01*
X127696000Y-89590116D01*
X127691525Y-89574877D01*
X127690135Y-89573672D01*
X127682452Y-89572001D01*
X127652905Y-89572001D01*
X127646386Y-89572338D01*
X127550794Y-89582257D01*
X127537400Y-89585149D01*
X127383216Y-89636588D01*
X127370038Y-89642761D01*
X127232193Y-89728063D01*
X127220792Y-89737099D01*
X127106262Y-89851828D01*
X127099206Y-89860762D01*
X127041288Y-89901823D01*
X126970365Y-89905053D01*
X126908954Y-89869426D01*
X126902154Y-89861593D01*
X126898478Y-89855652D01*
X126773303Y-89730695D01*
X126719172Y-89697328D01*
X126628968Y-89641725D01*
X126628966Y-89641724D01*
X126622738Y-89637885D01*
X126542995Y-89611436D01*
X126461389Y-89584368D01*
X126461387Y-89584368D01*
X126454861Y-89582203D01*
X126448025Y-89581503D01*
X126448022Y-89581502D01*
X126404969Y-89577091D01*
X126350400Y-89571500D01*
X125764595Y-89571500D01*
X125696474Y-89551498D01*
X125675500Y-89534595D01*
X125605000Y-89464095D01*
X125570974Y-89401783D01*
X125576039Y-89330968D01*
X125605000Y-89285905D01*
X126119859Y-88771046D01*
X126164725Y-88742159D01*
X126241920Y-88713220D01*
X126312727Y-88708037D01*
X126379784Y-88746891D01*
X126384321Y-88751930D01*
X126384329Y-88751937D01*
X126388747Y-88756844D01*
X126394089Y-88760725D01*
X126394091Y-88760727D01*
X126525186Y-88855973D01*
X126543248Y-88869096D01*
X126549276Y-88871780D01*
X126549278Y-88871781D01*
X126693735Y-88936097D01*
X126717712Y-88946772D01*
X126794642Y-88963124D01*
X126898056Y-88985106D01*
X126898061Y-88985106D01*
X126904513Y-88986478D01*
X127095487Y-88986478D01*
X127101939Y-88985106D01*
X127101944Y-88985106D01*
X127205358Y-88963124D01*
X127282288Y-88946772D01*
X127306265Y-88936097D01*
X127450722Y-88871781D01*
X127450724Y-88871780D01*
X127456752Y-88869096D01*
X127611253Y-88756844D01*
X127620215Y-88746891D01*
X127734621Y-88619830D01*
X127734622Y-88619829D01*
X127739040Y-88614922D01*
X127803520Y-88503240D01*
X127831223Y-88455257D01*
X127831224Y-88455256D01*
X127834527Y-88449534D01*
X127893542Y-88267906D01*
X127898368Y-88221995D01*
X127912814Y-88084543D01*
X127913504Y-88077978D01*
X127893542Y-87888050D01*
X127834527Y-87706422D01*
X127739040Y-87541034D01*
X127635867Y-87426448D01*
X127615675Y-87404023D01*
X127615674Y-87404022D01*
X127611253Y-87399112D01*
X127456752Y-87286860D01*
X127450724Y-87284176D01*
X127450722Y-87284175D01*
X127288319Y-87211869D01*
X127288318Y-87211869D01*
X127282288Y-87209184D01*
X127188887Y-87189331D01*
X127101944Y-87170850D01*
X127101939Y-87170850D01*
X127095487Y-87169478D01*
X127039595Y-87169478D01*
X126971474Y-87149476D01*
X126950500Y-87132573D01*
X126847663Y-87029736D01*
X126840123Y-87021450D01*
X126836011Y-87014971D01*
X126786359Y-86968345D01*
X126783518Y-86965591D01*
X126763781Y-86945854D01*
X126760584Y-86943374D01*
X126751562Y-86935669D01*
X126725111Y-86910830D01*
X126719332Y-86905403D01*
X126712386Y-86901584D01*
X126712383Y-86901582D01*
X126701577Y-86895641D01*
X126685058Y-86884790D01*
X126684594Y-86884430D01*
X126669052Y-86872375D01*
X126661783Y-86869230D01*
X126661779Y-86869227D01*
X126628474Y-86854815D01*
X126617824Y-86849598D01*
X126579071Y-86828294D01*
X126559448Y-86823256D01*
X126540745Y-86816852D01*
X126529431Y-86811956D01*
X126529430Y-86811956D01*
X126522156Y-86808808D01*
X126514333Y-86807569D01*
X126514323Y-86807566D01*
X126478487Y-86801890D01*
X126466867Y-86799484D01*
X126431722Y-86790461D01*
X126431721Y-86790461D01*
X126424041Y-86788489D01*
X126403787Y-86788489D01*
X126384076Y-86786938D01*
X126371897Y-86785009D01*
X126364068Y-86783769D01*
X126356176Y-86784515D01*
X126320050Y-86787930D01*
X126308192Y-86788489D01*
X126222637Y-86788489D01*
X126178407Y-86780471D01*
X126154258Y-86771418D01*
X126129816Y-86762255D01*
X126067634Y-86755500D01*
X125392366Y-86755500D01*
X125330184Y-86762255D01*
X125305742Y-86771418D01*
X125281593Y-86780471D01*
X125237363Y-86788489D01*
X124811939Y-86788489D01*
X124743818Y-86768487D01*
X124722844Y-86751584D01*
X124611807Y-86640547D01*
X124604983Y-86636511D01*
X124604980Y-86636509D01*
X124475427Y-86559892D01*
X124475428Y-86559892D01*
X124468601Y-86555855D01*
X124460990Y-86553644D01*
X124460988Y-86553643D01*
X124408769Y-86538472D01*
X124308831Y-86509438D01*
X124302426Y-86508934D01*
X124302421Y-86508933D01*
X124273958Y-86506693D01*
X124273950Y-86506693D01*
X124271502Y-86506500D01*
X123113498Y-86506500D01*
X123111050Y-86506693D01*
X123111042Y-86506693D01*
X123082579Y-86508933D01*
X123082574Y-86508934D01*
X123076169Y-86509438D01*
X122976231Y-86538472D01*
X122924012Y-86553643D01*
X122924010Y-86553644D01*
X122916399Y-86555855D01*
X122909572Y-86559892D01*
X122909573Y-86559892D01*
X122780020Y-86636509D01*
X122780017Y-86636511D01*
X122773193Y-86640547D01*
X122655547Y-86758193D01*
X122653294Y-86762002D01*
X122597004Y-86802655D01*
X122526112Y-86806506D01*
X122464391Y-86771418D01*
X122457724Y-86763724D01*
X122454453Y-86758193D01*
X122336807Y-86640547D01*
X122329983Y-86636511D01*
X122329980Y-86636509D01*
X122200427Y-86559892D01*
X122200428Y-86559892D01*
X122193601Y-86555855D01*
X122185990Y-86553644D01*
X122185988Y-86553643D01*
X122133769Y-86538472D01*
X122033831Y-86509438D01*
X122027426Y-86508934D01*
X122027421Y-86508933D01*
X121998958Y-86506693D01*
X121998950Y-86506693D01*
X121996502Y-86506500D01*
X120838498Y-86506500D01*
X120836050Y-86506693D01*
X120836042Y-86506693D01*
X120824598Y-86507594D01*
X120801169Y-86509438D01*
X120797645Y-86510462D01*
X120728037Y-86503132D01*
X120672659Y-86458706D01*
X120650000Y-86386618D01*
X120650000Y-84559433D01*
X120670002Y-84491312D01*
X120723658Y-84444819D01*
X120793932Y-84434715D01*
X120852504Y-84461669D01*
X120853593Y-84460250D01*
X120856869Y-84462763D01*
X120859970Y-84465483D01*
X121100631Y-84626287D01*
X121104330Y-84628111D01*
X121104335Y-84628114D01*
X121356527Y-84752481D01*
X121360222Y-84754303D01*
X121364120Y-84755626D01*
X121364122Y-84755627D01*
X121630391Y-84846014D01*
X121630395Y-84846015D01*
X121634301Y-84847341D01*
X121638345Y-84848145D01*
X121638351Y-84848147D01*
X121914137Y-84903004D01*
X121914140Y-84903004D01*
X121918180Y-84903808D01*
X121922291Y-84904077D01*
X121922295Y-84904078D01*
X122202881Y-84922468D01*
X122207000Y-84922738D01*
X122211119Y-84922468D01*
X122491705Y-84904078D01*
X122491709Y-84904077D01*
X122495820Y-84903808D01*
X122499860Y-84903004D01*
X122499863Y-84903004D01*
X122775649Y-84848147D01*
X122775655Y-84848145D01*
X122779699Y-84847341D01*
X122783605Y-84846015D01*
X122783609Y-84846014D01*
X123049878Y-84755627D01*
X123049880Y-84755626D01*
X123053778Y-84754303D01*
X123057473Y-84752481D01*
X123309665Y-84628114D01*
X123309670Y-84628111D01*
X123313369Y-84626287D01*
X123554030Y-84465483D01*
X123557124Y-84462769D01*
X123557130Y-84462765D01*
X123768553Y-84277351D01*
X123771642Y-84274642D01*
X123774351Y-84271553D01*
X123959765Y-84060130D01*
X123959769Y-84060124D01*
X123962483Y-84057030D01*
X124123287Y-83816369D01*
X124134604Y-83793422D01*
X124249481Y-83560473D01*
X124249482Y-83560471D01*
X124251303Y-83556778D01*
X124257286Y-83539152D01*
X124343014Y-83286609D01*
X124343015Y-83286605D01*
X124344341Y-83282699D01*
X124349063Y-83258963D01*
X124400004Y-83002863D01*
X124400004Y-83002860D01*
X124400808Y-82998820D01*
X124408010Y-82888946D01*
X124419468Y-82714119D01*
X124419738Y-82710000D01*
X124403495Y-82462169D01*
X124401078Y-82425295D01*
X124401077Y-82425291D01*
X124400808Y-82421180D01*
X124385882Y-82346141D01*
X124345147Y-82141351D01*
X124345145Y-82141345D01*
X124344341Y-82137301D01*
X124267996Y-81912396D01*
X124252627Y-81867122D01*
X124252626Y-81867120D01*
X124251303Y-81863222D01*
X124249481Y-81859527D01*
X124125114Y-81607335D01*
X124125111Y-81607330D01*
X124123287Y-81603631D01*
X124038008Y-81476001D01*
X124016793Y-81408249D01*
X124035576Y-81339782D01*
X124088393Y-81292339D01*
X124142773Y-81280000D01*
X130665500Y-81280000D01*
X130733621Y-81300002D01*
G37*
G04 #@! TD.AperFunction*
G04 #@! TA.AperFunction,Conductor*
G36*
X122762720Y-87980071D02*
G01*
X122767585Y-87983845D01*
X122773193Y-87989453D01*
X122780017Y-87993489D01*
X122780020Y-87993491D01*
X122887589Y-88057107D01*
X122916399Y-88074145D01*
X122924010Y-88076356D01*
X122924012Y-88076357D01*
X122976231Y-88091528D01*
X123076169Y-88120562D01*
X123082574Y-88121066D01*
X123082579Y-88121067D01*
X123111042Y-88123307D01*
X123111050Y-88123307D01*
X123113498Y-88123500D01*
X124271502Y-88123500D01*
X124273950Y-88123307D01*
X124273958Y-88123307D01*
X124302421Y-88121067D01*
X124302426Y-88121066D01*
X124308831Y-88120562D01*
X124408769Y-88091528D01*
X124460988Y-88076357D01*
X124460990Y-88076356D01*
X124468601Y-88074145D01*
X124475425Y-88070110D01*
X124482700Y-88066961D01*
X124483757Y-88069404D01*
X124534616Y-88055489D01*
X124739416Y-88055489D01*
X124807537Y-88075491D01*
X124854030Y-88129147D01*
X124864134Y-88199421D01*
X124834640Y-88264001D01*
X124828515Y-88270581D01*
X124731032Y-88368063D01*
X124647449Y-88451646D01*
X124585137Y-88485671D01*
X124514321Y-88480606D01*
X124494222Y-88471007D01*
X124468601Y-88455855D01*
X124460990Y-88453644D01*
X124460988Y-88453643D01*
X124408769Y-88438472D01*
X124308831Y-88409438D01*
X124302426Y-88408934D01*
X124302421Y-88408933D01*
X124273958Y-88406693D01*
X124273950Y-88406693D01*
X124271502Y-88406500D01*
X123113498Y-88406500D01*
X123111050Y-88406693D01*
X123111042Y-88406693D01*
X123082579Y-88408933D01*
X123082574Y-88408934D01*
X123076169Y-88409438D01*
X122976231Y-88438472D01*
X122924012Y-88453643D01*
X122924010Y-88453644D01*
X122916399Y-88455855D01*
X122773193Y-88540547D01*
X122767584Y-88546156D01*
X122762114Y-88550399D01*
X122696029Y-88576346D01*
X122626406Y-88562445D01*
X122584884Y-88524554D01*
X122572630Y-88519000D01*
X122334842Y-88519000D01*
X122270703Y-88501453D01*
X122200427Y-88459892D01*
X122200428Y-88459892D01*
X122193601Y-88455855D01*
X122185990Y-88453644D01*
X122185988Y-88453643D01*
X122133769Y-88438472D01*
X122033831Y-88409438D01*
X122027426Y-88408934D01*
X122027421Y-88408933D01*
X121998958Y-88406693D01*
X121998950Y-88406693D01*
X121996502Y-88406500D01*
X121289500Y-88406500D01*
X121221379Y-88386498D01*
X121174886Y-88332842D01*
X121163500Y-88280500D01*
X121163500Y-88249500D01*
X121183502Y-88181379D01*
X121237158Y-88134886D01*
X121289500Y-88123500D01*
X121996502Y-88123500D01*
X121998950Y-88123307D01*
X121998958Y-88123307D01*
X122027421Y-88121067D01*
X122027426Y-88121066D01*
X122033831Y-88120562D01*
X122133769Y-88091528D01*
X122185988Y-88076357D01*
X122185990Y-88076356D01*
X122193601Y-88074145D01*
X122270703Y-88028547D01*
X122334842Y-88011000D01*
X122566878Y-88011000D01*
X122582116Y-88006526D01*
X122590268Y-87997118D01*
X122649994Y-87958734D01*
X122720990Y-87958734D01*
X122762720Y-87980071D01*
G37*
G04 #@! TD.AperFunction*
M02*
