G04 #@! TF.GenerationSoftware,KiCad,Pcbnew,(6.0.2)*
G04 #@! TF.CreationDate,2022-09-22T18:34:12-04:00*
G04 #@! TF.ProjectId,Control Board,436f6e74-726f-46c2-9042-6f6172642e6b,rev?*
G04 #@! TF.SameCoordinates,Original*
G04 #@! TF.FileFunction,Copper,L2,Bot*
G04 #@! TF.FilePolarity,Positive*
%FSLAX46Y46*%
G04 Gerber Fmt 4.6, Leading zero omitted, Abs format (unit mm)*
G04 Created by KiCad (PCBNEW (6.0.2)) date 2022-09-22 18:34:12*
%MOMM*%
%LPD*%
G01*
G04 APERTURE LIST*
G04 #@! TA.AperFunction,ComponentPad*
%ADD10C,1.308000*%
G04 #@! TD*
G04 #@! TA.AperFunction,ComponentPad*
%ADD11R,1.308000X1.308000*%
G04 #@! TD*
G04 #@! TA.AperFunction,ComponentPad*
%ADD12R,1.700000X1.700000*%
G04 #@! TD*
G04 #@! TA.AperFunction,ComponentPad*
%ADD13O,1.700000X1.700000*%
G04 #@! TD*
G04 #@! TA.AperFunction,ComponentPad*
%ADD14C,1.676400*%
G04 #@! TD*
G04 #@! TA.AperFunction,ViaPad*
%ADD15C,0.800000*%
G04 #@! TD*
G04 #@! TA.AperFunction,Conductor*
%ADD16C,0.250000*%
G04 #@! TD*
G04 APERTURE END LIST*
D10*
X134350000Y-84782500D03*
D11*
X132350000Y-84782500D03*
D12*
X144130000Y-118740000D03*
D13*
X144130000Y-121280000D03*
X141590000Y-118740000D03*
X141590000Y-121280000D03*
X139050000Y-118740000D03*
X139050000Y-121280000D03*
D14*
X122555000Y-110490000D03*
X122555000Y-113030000D03*
X122555000Y-115570000D03*
D11*
X130080000Y-119380000D03*
D10*
X132080000Y-119380000D03*
X134080000Y-119380000D03*
D15*
X130175000Y-81915000D03*
X133350000Y-81915000D03*
X136525000Y-100965000D03*
X136525000Y-105410000D03*
X140970000Y-106045000D03*
X139065000Y-107950000D03*
X142240000Y-107315000D03*
X132216520Y-106807906D03*
X128905000Y-100330000D03*
X136525480Y-97789520D03*
X130175000Y-98425000D03*
X127000000Y-93980000D03*
X132106514Y-94879986D03*
X122555000Y-88265000D03*
X133350000Y-113030000D03*
X123952000Y-90678000D03*
X132080000Y-114300000D03*
X130810000Y-113030000D03*
X132080000Y-111760000D03*
X140335000Y-103505000D03*
X140335000Y-100965000D03*
X142875000Y-102235000D03*
X140518750Y-95701250D03*
X139065000Y-112395000D03*
X133988465Y-95631000D03*
X127000000Y-88077978D03*
X135890000Y-110998000D03*
X140335000Y-115570000D03*
X135128000Y-110236000D03*
X136906000Y-111760000D03*
X124968000Y-117348000D03*
X127254000Y-112268000D03*
X125730000Y-113792000D03*
X130556000Y-106172000D03*
X128270000Y-108712000D03*
D16*
X145304511Y-116348511D02*
X145304511Y-119914511D01*
X145304511Y-119914511D02*
X142955489Y-119914511D01*
X142494000Y-113538000D02*
X145304511Y-116348511D01*
X142955489Y-119914511D02*
X141590000Y-121280000D01*
X136906000Y-111760000D02*
X138684000Y-113538000D01*
X138684000Y-113538000D02*
X142494000Y-113538000D01*
X121392289Y-111867289D02*
X122555000Y-113030000D01*
X132106514Y-94879986D02*
X130545014Y-94879986D01*
X130545014Y-94879986D02*
X121392289Y-104032711D01*
X121392289Y-104032711D02*
X121392289Y-111867289D01*
X126483386Y-115570000D02*
X140335000Y-115570000D01*
X125005489Y-114092103D02*
X126483386Y-115570000D01*
X125005489Y-112940489D02*
X125005489Y-114092103D01*
X122555000Y-110490000D02*
X125005489Y-112940489D01*
X136525000Y-105410000D02*
X136525000Y-100965000D01*
X139065000Y-107950000D02*
X140970000Y-106045000D01*
X142240000Y-107315000D02*
X140335000Y-109220000D01*
X140335000Y-109220000D02*
X139700000Y-109220000D01*
X128905000Y-100330000D02*
X132216520Y-103641520D01*
X132216520Y-103641520D02*
X132216520Y-106807906D01*
X135890000Y-98425000D02*
X136525480Y-97789520D01*
X130175000Y-98425000D02*
X135890000Y-98425000D01*
X133988465Y-95631000D02*
X134058715Y-95701250D01*
X134058715Y-95701250D02*
X140518750Y-95701250D01*
X139065000Y-109855000D02*
X139065000Y-112395000D01*
X139700000Y-109220000D02*
X139065000Y-109855000D01*
X127000000Y-88077978D02*
X127000000Y-93980000D01*
X144130000Y-115809718D02*
X144130000Y-118740000D01*
X135890000Y-110998000D02*
X135890000Y-111768614D01*
X135890000Y-111768614D02*
X138167386Y-114046000D01*
X138167386Y-114046000D02*
X142366282Y-114046000D01*
X142366282Y-114046000D02*
X144130000Y-115809718D01*
X135128000Y-110236000D02*
X135128000Y-111642332D01*
X138331157Y-114845489D02*
X142277489Y-114845489D01*
X143256000Y-115824000D02*
X143256000Y-117074000D01*
X135128000Y-111642332D02*
X138331157Y-114845489D01*
X142277489Y-114845489D02*
X143256000Y-115824000D01*
X143256000Y-117074000D02*
X141590000Y-118740000D01*
X127254000Y-112268000D02*
X125730000Y-113792000D01*
X124968000Y-117348000D02*
X137658000Y-117348000D01*
X137658000Y-117348000D02*
X139050000Y-118740000D01*
X130556000Y-106426000D02*
X130556000Y-106172000D01*
X128270000Y-108712000D02*
X130556000Y-106426000D01*
G04 #@! TA.AperFunction,Conductor*
G36*
X144530348Y-81300002D02*
G01*
X144576841Y-81353658D01*
X144586945Y-81423932D01*
X144566992Y-81476001D01*
X144481713Y-81603631D01*
X144479889Y-81607330D01*
X144479886Y-81607335D01*
X144355519Y-81859527D01*
X144353697Y-81863222D01*
X144352374Y-81867120D01*
X144352373Y-81867122D01*
X144337005Y-81912396D01*
X144260659Y-82137301D01*
X144259855Y-82141345D01*
X144259853Y-82141351D01*
X144231712Y-82282825D01*
X144204192Y-82421180D01*
X144187307Y-82678797D01*
X144185262Y-82710000D01*
X144204192Y-82998820D01*
X144204996Y-83002860D01*
X144204996Y-83002863D01*
X144243181Y-83194830D01*
X144260659Y-83282699D01*
X144261985Y-83286605D01*
X144261986Y-83286609D01*
X144295439Y-83385156D01*
X144353697Y-83556778D01*
X144355518Y-83560471D01*
X144355519Y-83560473D01*
X144470397Y-83793422D01*
X144481713Y-83816369D01*
X144642517Y-84057030D01*
X144645231Y-84060124D01*
X144645235Y-84060130D01*
X144830649Y-84271553D01*
X144833358Y-84274642D01*
X144836447Y-84277351D01*
X145047870Y-84462765D01*
X145047876Y-84462769D01*
X145050970Y-84465483D01*
X145291631Y-84626287D01*
X145295330Y-84628111D01*
X145295335Y-84628114D01*
X145547527Y-84752481D01*
X145551222Y-84754303D01*
X145555120Y-84755626D01*
X145555122Y-84755627D01*
X145821391Y-84846014D01*
X145821395Y-84846015D01*
X145825301Y-84847341D01*
X145829345Y-84848145D01*
X145829351Y-84848147D01*
X146105137Y-84903004D01*
X146105140Y-84903004D01*
X146109180Y-84903808D01*
X146113291Y-84904077D01*
X146113295Y-84904078D01*
X146393881Y-84922468D01*
X146398000Y-84922738D01*
X146402119Y-84922468D01*
X146682705Y-84904078D01*
X146682709Y-84904077D01*
X146686820Y-84903808D01*
X146690860Y-84903004D01*
X146690863Y-84903004D01*
X146966649Y-84848147D01*
X146966655Y-84848145D01*
X146970699Y-84847341D01*
X146974605Y-84846015D01*
X146974609Y-84846014D01*
X147240878Y-84755627D01*
X147240880Y-84755626D01*
X147244778Y-84754303D01*
X147248473Y-84752481D01*
X147500665Y-84628114D01*
X147500670Y-84628111D01*
X147504369Y-84626287D01*
X147745030Y-84465483D01*
X147748131Y-84462763D01*
X147751407Y-84460250D01*
X147752483Y-84461652D01*
X147810347Y-84434821D01*
X147880679Y-84444519D01*
X147934602Y-84490700D01*
X147955000Y-84559433D01*
X147955000Y-123593567D01*
X147934998Y-123661688D01*
X147881342Y-123708181D01*
X147811068Y-123718285D01*
X147752496Y-123691331D01*
X147751407Y-123692750D01*
X147748129Y-123690235D01*
X147745030Y-123687517D01*
X147504369Y-123526713D01*
X147500670Y-123524889D01*
X147500665Y-123524886D01*
X147248473Y-123400519D01*
X147248471Y-123400518D01*
X147244778Y-123398697D01*
X147240878Y-123397373D01*
X146974609Y-123306986D01*
X146974605Y-123306985D01*
X146970699Y-123305659D01*
X146966655Y-123304855D01*
X146966649Y-123304853D01*
X146690863Y-123249996D01*
X146690860Y-123249996D01*
X146686820Y-123249192D01*
X146682709Y-123248923D01*
X146682705Y-123248922D01*
X146402119Y-123230532D01*
X146398000Y-123230262D01*
X146393881Y-123230532D01*
X146113295Y-123248922D01*
X146113291Y-123248923D01*
X146109180Y-123249192D01*
X146105140Y-123249996D01*
X146105137Y-123249996D01*
X145829351Y-123304853D01*
X145829345Y-123304855D01*
X145825301Y-123305659D01*
X145821395Y-123306985D01*
X145821391Y-123306986D01*
X145555122Y-123397373D01*
X145551222Y-123398697D01*
X145547529Y-123400518D01*
X145547527Y-123400519D01*
X145295335Y-123524886D01*
X145295330Y-123524889D01*
X145291631Y-123526713D01*
X145050970Y-123687517D01*
X145047876Y-123690231D01*
X145047870Y-123690235D01*
X144836447Y-123875649D01*
X144833358Y-123878358D01*
X144830649Y-123881447D01*
X144645235Y-124092870D01*
X144645231Y-124092876D01*
X144642517Y-124095970D01*
X144481713Y-124336631D01*
X144479889Y-124340330D01*
X144479886Y-124340335D01*
X144355519Y-124592527D01*
X144353697Y-124596222D01*
X144352374Y-124600120D01*
X144352373Y-124600122D01*
X144337005Y-124645396D01*
X144260659Y-124870301D01*
X144259855Y-124874345D01*
X144259853Y-124874351D01*
X144236137Y-124993581D01*
X144203229Y-125056491D01*
X144141534Y-125091623D01*
X144112558Y-125095000D01*
X124492442Y-125095000D01*
X124424321Y-125074998D01*
X124377828Y-125021342D01*
X124368863Y-124993581D01*
X124345147Y-124874351D01*
X124345145Y-124874345D01*
X124344341Y-124870301D01*
X124267996Y-124645396D01*
X124252627Y-124600122D01*
X124252626Y-124600120D01*
X124251303Y-124596222D01*
X124249481Y-124592527D01*
X124125114Y-124340335D01*
X124125111Y-124340330D01*
X124123287Y-124336631D01*
X123962483Y-124095970D01*
X123959769Y-124092876D01*
X123959765Y-124092870D01*
X123774351Y-123881447D01*
X123771642Y-123878358D01*
X123768553Y-123875649D01*
X123557130Y-123690235D01*
X123557124Y-123690231D01*
X123554030Y-123687517D01*
X123313369Y-123526713D01*
X123309670Y-123524889D01*
X123309665Y-123524886D01*
X123057473Y-123400519D01*
X123057471Y-123400518D01*
X123053778Y-123398697D01*
X123049878Y-123397373D01*
X122783609Y-123306986D01*
X122783605Y-123306985D01*
X122779699Y-123305659D01*
X122775655Y-123304855D01*
X122775649Y-123304853D01*
X122499863Y-123249996D01*
X122499860Y-123249996D01*
X122495820Y-123249192D01*
X122491709Y-123248923D01*
X122491705Y-123248922D01*
X122211119Y-123230532D01*
X122207000Y-123230262D01*
X122202881Y-123230532D01*
X121922295Y-123248922D01*
X121922291Y-123248923D01*
X121918180Y-123249192D01*
X121914140Y-123249996D01*
X121914137Y-123249996D01*
X121638351Y-123304853D01*
X121638345Y-123304855D01*
X121634301Y-123305659D01*
X121630395Y-123306985D01*
X121630391Y-123306986D01*
X121364122Y-123397373D01*
X121360222Y-123398697D01*
X121356529Y-123400518D01*
X121356527Y-123400519D01*
X121104335Y-123524886D01*
X121104330Y-123524889D01*
X121100631Y-123526713D01*
X120859970Y-123687517D01*
X120856871Y-123690235D01*
X120853593Y-123692750D01*
X120852517Y-123691348D01*
X120794653Y-123718179D01*
X120724321Y-123708481D01*
X120670398Y-123662300D01*
X120650000Y-123593567D01*
X120650000Y-121547966D01*
X137718257Y-121547966D01*
X137748565Y-121682446D01*
X137751645Y-121692275D01*
X137831770Y-121889603D01*
X137836413Y-121898794D01*
X137947694Y-122080388D01*
X137953777Y-122088699D01*
X138093213Y-122249667D01*
X138100580Y-122256883D01*
X138264434Y-122392916D01*
X138272881Y-122398831D01*
X138456756Y-122506279D01*
X138466042Y-122510729D01*
X138665001Y-122586703D01*
X138674899Y-122589579D01*
X138778250Y-122610606D01*
X138792299Y-122609410D01*
X138796000Y-122599065D01*
X138796000Y-121552115D01*
X138791525Y-121536876D01*
X138790135Y-121535671D01*
X138782452Y-121534000D01*
X137733225Y-121534000D01*
X137719694Y-121537973D01*
X137718257Y-121547966D01*
X120650000Y-121547966D01*
X120650000Y-120078669D01*
X128918001Y-120078669D01*
X128918371Y-120085490D01*
X128923895Y-120136352D01*
X128927521Y-120151604D01*
X128972676Y-120272054D01*
X128981214Y-120287649D01*
X129057715Y-120389724D01*
X129070276Y-120402285D01*
X129172351Y-120478786D01*
X129187946Y-120487324D01*
X129308394Y-120532478D01*
X129323649Y-120536105D01*
X129374514Y-120541631D01*
X129381328Y-120542000D01*
X129807885Y-120542000D01*
X129823124Y-120537525D01*
X129824329Y-120536135D01*
X129826000Y-120528452D01*
X129826000Y-119652115D01*
X129821525Y-119636876D01*
X129820135Y-119635671D01*
X129812452Y-119634000D01*
X128936116Y-119634000D01*
X128920877Y-119638475D01*
X128919672Y-119639865D01*
X128918001Y-119647548D01*
X128918001Y-120078669D01*
X120650000Y-120078669D01*
X120650000Y-112317221D01*
X120670002Y-112249100D01*
X120723658Y-112202607D01*
X120793932Y-112192503D01*
X120858512Y-112221997D01*
X120878443Y-112245880D01*
X120878852Y-112245562D01*
X120883709Y-112251823D01*
X120887747Y-112258651D01*
X120902068Y-112272972D01*
X120914908Y-112288005D01*
X120926817Y-112304396D01*
X120960894Y-112332587D01*
X120969673Y-112340577D01*
X121214658Y-112585562D01*
X121248684Y-112647874D01*
X121247270Y-112707266D01*
X121223694Y-112795255D01*
X121223216Y-112800722D01*
X121223215Y-112800726D01*
X121208333Y-112970826D01*
X121203156Y-113030000D01*
X121223694Y-113264745D01*
X121284682Y-113492358D01*
X121384269Y-113705922D01*
X121519427Y-113898949D01*
X121686051Y-114065573D01*
X121780861Y-114131959D01*
X121873445Y-114196787D01*
X121917774Y-114252244D01*
X121925083Y-114322863D01*
X121893053Y-114386224D01*
X121873445Y-114403213D01*
X121827349Y-114435490D01*
X121686051Y-114534427D01*
X121519427Y-114701051D01*
X121384269Y-114894078D01*
X121381948Y-114899056D01*
X121381946Y-114899059D01*
X121373814Y-114916498D01*
X121284682Y-115107642D01*
X121223694Y-115335255D01*
X121203156Y-115570000D01*
X121223694Y-115804745D01*
X121225118Y-115810059D01*
X121225118Y-115810060D01*
X121265898Y-115962253D01*
X121284682Y-116032358D01*
X121287004Y-116037338D01*
X121287005Y-116037340D01*
X121372016Y-116219645D01*
X121384269Y-116245922D01*
X121519427Y-116438949D01*
X121686051Y-116605573D01*
X121879078Y-116740731D01*
X121884056Y-116743052D01*
X121884059Y-116743054D01*
X122087660Y-116837995D01*
X122092642Y-116840318D01*
X122097950Y-116841740D01*
X122097952Y-116841741D01*
X122314940Y-116899882D01*
X122320255Y-116901306D01*
X122555000Y-116921844D01*
X122789745Y-116901306D01*
X122795060Y-116899882D01*
X123012048Y-116841741D01*
X123012050Y-116841740D01*
X123017358Y-116840318D01*
X123022340Y-116837995D01*
X123225941Y-116743054D01*
X123225944Y-116743052D01*
X123230922Y-116740731D01*
X123423949Y-116605573D01*
X123590573Y-116438949D01*
X123725731Y-116245922D01*
X123737985Y-116219645D01*
X123822995Y-116037340D01*
X123822996Y-116037338D01*
X123825318Y-116032358D01*
X123844103Y-115962253D01*
X123884882Y-115810060D01*
X123884882Y-115810059D01*
X123886306Y-115804745D01*
X123906844Y-115570000D01*
X123886306Y-115335255D01*
X123825318Y-115107642D01*
X123736186Y-114916498D01*
X123728054Y-114899059D01*
X123728052Y-114899056D01*
X123725731Y-114894078D01*
X123590573Y-114701051D01*
X123423949Y-114534427D01*
X123282651Y-114435490D01*
X123236555Y-114403213D01*
X123192226Y-114347756D01*
X123184917Y-114277137D01*
X123216947Y-114213776D01*
X123236555Y-114196787D01*
X123329139Y-114131959D01*
X123423949Y-114065573D01*
X123590573Y-113898949D01*
X123725731Y-113705922D01*
X123825318Y-113492358D01*
X123886306Y-113264745D01*
X123886786Y-113259259D01*
X123886787Y-113259253D01*
X123906807Y-113030440D01*
X123932670Y-112964322D01*
X123990174Y-112922682D01*
X124061061Y-112918742D01*
X124121422Y-112952327D01*
X124335084Y-113165989D01*
X124369110Y-113228301D01*
X124371989Y-113255084D01*
X124371989Y-114013336D01*
X124371462Y-114024519D01*
X124369787Y-114032012D01*
X124370036Y-114039938D01*
X124370036Y-114039939D01*
X124371927Y-114100089D01*
X124371989Y-114104048D01*
X124371989Y-114131959D01*
X124372486Y-114135893D01*
X124372486Y-114135894D01*
X124372494Y-114135959D01*
X124373427Y-114147796D01*
X124374816Y-114191992D01*
X124380467Y-114211442D01*
X124384476Y-114230803D01*
X124387015Y-114250900D01*
X124389934Y-114258271D01*
X124389934Y-114258273D01*
X124403293Y-114292015D01*
X124407138Y-114303245D01*
X124412943Y-114323226D01*
X124419471Y-114345696D01*
X124423504Y-114352515D01*
X124423506Y-114352520D01*
X124429782Y-114363131D01*
X124438477Y-114380879D01*
X124445937Y-114399720D01*
X124450599Y-114406136D01*
X124450599Y-114406137D01*
X124471925Y-114435490D01*
X124478441Y-114445410D01*
X124493496Y-114470866D01*
X124500947Y-114483465D01*
X124515268Y-114497786D01*
X124528108Y-114512819D01*
X124540017Y-114529210D01*
X124574094Y-114557401D01*
X124582873Y-114565391D01*
X125979734Y-115962253D01*
X125987274Y-115970539D01*
X125991386Y-115977018D01*
X125997163Y-115982443D01*
X126041037Y-116023643D01*
X126043879Y-116026398D01*
X126063616Y-116046135D01*
X126066813Y-116048615D01*
X126075833Y-116056318D01*
X126108065Y-116086586D01*
X126115011Y-116090405D01*
X126115014Y-116090407D01*
X126125820Y-116096348D01*
X126142339Y-116107199D01*
X126158345Y-116119614D01*
X126165614Y-116122759D01*
X126165618Y-116122762D01*
X126198923Y-116137174D01*
X126209573Y-116142391D01*
X126248326Y-116163695D01*
X126256001Y-116165666D01*
X126256002Y-116165666D01*
X126267948Y-116168733D01*
X126286653Y-116175137D01*
X126305241Y-116183181D01*
X126313064Y-116184420D01*
X126313074Y-116184423D01*
X126348910Y-116190099D01*
X126360530Y-116192505D01*
X126395675Y-116201528D01*
X126403356Y-116203500D01*
X126423610Y-116203500D01*
X126443320Y-116205051D01*
X126463329Y-116208220D01*
X126471221Y-116207474D01*
X126507347Y-116204059D01*
X126519205Y-116203500D01*
X139626800Y-116203500D01*
X139694921Y-116223502D01*
X139714147Y-116239843D01*
X139714420Y-116239540D01*
X139719332Y-116243963D01*
X139723747Y-116248866D01*
X139878248Y-116361118D01*
X139884276Y-116363802D01*
X139884278Y-116363803D01*
X140042926Y-116434437D01*
X140052712Y-116438794D01*
X140146113Y-116458647D01*
X140233056Y-116477128D01*
X140233061Y-116477128D01*
X140239513Y-116478500D01*
X140430487Y-116478500D01*
X140436939Y-116477128D01*
X140436944Y-116477128D01*
X140523887Y-116458647D01*
X140617288Y-116438794D01*
X140627074Y-116434437D01*
X140785722Y-116363803D01*
X140785724Y-116363802D01*
X140791752Y-116361118D01*
X140946253Y-116248866D01*
X140982851Y-116208220D01*
X141069621Y-116111852D01*
X141069622Y-116111851D01*
X141074040Y-116106944D01*
X141157578Y-115962253D01*
X141166223Y-115947279D01*
X141166224Y-115947278D01*
X141169527Y-115941556D01*
X141228542Y-115759928D01*
X141246211Y-115591818D01*
X141273224Y-115526162D01*
X141331446Y-115485532D01*
X141371521Y-115478989D01*
X141962895Y-115478989D01*
X142031016Y-115498991D01*
X142051990Y-115515894D01*
X142585595Y-116049499D01*
X142619621Y-116111811D01*
X142622500Y-116138594D01*
X142622500Y-116759405D01*
X142602498Y-116827526D01*
X142585595Y-116848501D01*
X142047344Y-117386751D01*
X141985032Y-117420776D01*
X141936153Y-117421702D01*
X141723373Y-117383800D01*
X141723367Y-117383799D01*
X141718284Y-117382894D01*
X141644452Y-117381992D01*
X141500081Y-117380228D01*
X141500079Y-117380228D01*
X141494911Y-117380165D01*
X141274091Y-117413955D01*
X141061756Y-117483357D01*
X140863607Y-117586507D01*
X140859474Y-117589610D01*
X140859471Y-117589612D01*
X140689100Y-117717530D01*
X140684965Y-117720635D01*
X140530629Y-117882138D01*
X140423201Y-118039621D01*
X140368293Y-118084621D01*
X140297768Y-118092792D01*
X140234021Y-118061538D01*
X140213324Y-118037054D01*
X140132822Y-117912617D01*
X140132820Y-117912614D01*
X140130014Y-117908277D01*
X139979670Y-117743051D01*
X139975619Y-117739852D01*
X139975615Y-117739848D01*
X139808414Y-117607800D01*
X139808410Y-117607798D01*
X139804359Y-117604598D01*
X139608789Y-117496638D01*
X139603920Y-117494914D01*
X139603916Y-117494912D01*
X139403087Y-117423795D01*
X139403083Y-117423794D01*
X139398212Y-117422069D01*
X139393119Y-117421162D01*
X139393116Y-117421161D01*
X139183373Y-117383800D01*
X139183367Y-117383799D01*
X139178284Y-117382894D01*
X139104452Y-117381992D01*
X138960081Y-117380228D01*
X138960079Y-117380228D01*
X138954911Y-117380165D01*
X138734091Y-117413955D01*
X138721532Y-117418060D01*
X138650568Y-117420210D01*
X138593294Y-117387389D01*
X138161652Y-116955747D01*
X138154112Y-116947461D01*
X138150000Y-116940982D01*
X138100348Y-116894356D01*
X138097507Y-116891602D01*
X138077770Y-116871865D01*
X138074573Y-116869385D01*
X138065551Y-116861680D01*
X138039100Y-116836841D01*
X138033321Y-116831414D01*
X138026375Y-116827595D01*
X138026372Y-116827593D01*
X138015566Y-116821652D01*
X137999047Y-116810801D01*
X137993048Y-116806148D01*
X137983041Y-116798386D01*
X137975772Y-116795241D01*
X137975768Y-116795238D01*
X137942463Y-116780826D01*
X137931813Y-116775609D01*
X137893060Y-116754305D01*
X137873437Y-116749267D01*
X137854734Y-116742863D01*
X137843420Y-116737967D01*
X137843419Y-116737967D01*
X137836145Y-116734819D01*
X137828322Y-116733580D01*
X137828312Y-116733577D01*
X137792476Y-116727901D01*
X137780856Y-116725495D01*
X137745711Y-116716472D01*
X137745710Y-116716472D01*
X137738030Y-116714500D01*
X137717776Y-116714500D01*
X137698065Y-116712949D01*
X137685886Y-116711020D01*
X137678057Y-116709780D01*
X137670165Y-116710526D01*
X137634039Y-116713941D01*
X137622181Y-116714500D01*
X125676200Y-116714500D01*
X125608079Y-116694498D01*
X125588853Y-116678157D01*
X125588580Y-116678460D01*
X125583668Y-116674037D01*
X125579253Y-116669134D01*
X125424752Y-116556882D01*
X125418724Y-116554198D01*
X125418722Y-116554197D01*
X125256319Y-116481891D01*
X125256318Y-116481891D01*
X125250288Y-116479206D01*
X125156887Y-116459353D01*
X125069944Y-116440872D01*
X125069939Y-116440872D01*
X125063487Y-116439500D01*
X124872513Y-116439500D01*
X124866061Y-116440872D01*
X124866056Y-116440872D01*
X124779113Y-116459353D01*
X124685712Y-116479206D01*
X124679682Y-116481891D01*
X124679681Y-116481891D01*
X124517278Y-116554197D01*
X124517276Y-116554198D01*
X124511248Y-116556882D01*
X124356747Y-116669134D01*
X124352326Y-116674044D01*
X124352325Y-116674045D01*
X124243203Y-116795238D01*
X124228960Y-116811056D01*
X124133473Y-116976444D01*
X124074458Y-117158072D01*
X124054496Y-117348000D01*
X124055186Y-117354565D01*
X124068974Y-117485747D01*
X124074458Y-117537928D01*
X124133473Y-117719556D01*
X124136776Y-117725278D01*
X124136777Y-117725279D01*
X124147038Y-117743051D01*
X124228960Y-117884944D01*
X124233378Y-117889851D01*
X124233379Y-117889852D01*
X124249969Y-117908277D01*
X124356747Y-118026866D01*
X124511248Y-118139118D01*
X124517276Y-118141802D01*
X124517278Y-118141803D01*
X124625558Y-118190012D01*
X124685712Y-118216794D01*
X124755745Y-118231680D01*
X124866056Y-118255128D01*
X124866061Y-118255128D01*
X124872513Y-118256500D01*
X125063487Y-118256500D01*
X125069939Y-118255128D01*
X125069944Y-118255128D01*
X125180255Y-118231680D01*
X125250288Y-118216794D01*
X125310442Y-118190012D01*
X125418722Y-118141803D01*
X125418724Y-118141802D01*
X125424752Y-118139118D01*
X125499761Y-118084621D01*
X125565230Y-118037054D01*
X125579253Y-118026866D01*
X125583668Y-118021963D01*
X125588580Y-118017540D01*
X125589705Y-118018789D01*
X125643014Y-117985949D01*
X125676200Y-117981500D01*
X129269605Y-117981500D01*
X129337726Y-118001502D01*
X129384219Y-118055158D01*
X129394323Y-118125432D01*
X129364829Y-118190012D01*
X129313835Y-118225482D01*
X129187946Y-118272676D01*
X129172351Y-118281214D01*
X129070276Y-118357715D01*
X129057715Y-118370276D01*
X128981214Y-118472351D01*
X128972676Y-118487946D01*
X128927522Y-118608394D01*
X128923895Y-118623649D01*
X128918369Y-118674514D01*
X128918000Y-118681328D01*
X128918000Y-119107885D01*
X128922475Y-119123124D01*
X128923865Y-119124329D01*
X128931548Y-119126000D01*
X130208000Y-119126000D01*
X130276121Y-119146002D01*
X130322614Y-119199658D01*
X130334000Y-119252000D01*
X130334000Y-120523884D01*
X130338475Y-120539123D01*
X130339865Y-120540328D01*
X130347548Y-120541999D01*
X130778669Y-120541999D01*
X130785490Y-120541629D01*
X130836352Y-120536105D01*
X130851604Y-120532479D01*
X130972054Y-120487324D01*
X130987649Y-120478786D01*
X131089724Y-120402285D01*
X131102281Y-120389728D01*
X131163691Y-120307788D01*
X131220551Y-120265273D01*
X131291369Y-120260247D01*
X131342923Y-120285005D01*
X131345281Y-120287302D01*
X131350083Y-120290511D01*
X131350086Y-120290513D01*
X131431587Y-120344970D01*
X131522927Y-120406001D01*
X131528230Y-120408279D01*
X131528233Y-120408281D01*
X131698604Y-120481478D01*
X131719229Y-120490339D01*
X131804478Y-120509629D01*
X131921977Y-120536217D01*
X131921980Y-120536217D01*
X131927613Y-120537492D01*
X131933384Y-120537719D01*
X131933386Y-120537719D01*
X131998363Y-120540272D01*
X132141101Y-120545880D01*
X132250153Y-120530068D01*
X132346829Y-120516051D01*
X132346834Y-120516050D01*
X132352543Y-120515222D01*
X132358007Y-120513367D01*
X132358012Y-120513366D01*
X132549389Y-120448402D01*
X132554857Y-120446546D01*
X132741268Y-120342151D01*
X132905533Y-120205533D01*
X132981251Y-120114493D01*
X133040187Y-120074909D01*
X133111169Y-120073473D01*
X133171660Y-120110640D01*
X133181021Y-120122342D01*
X133186459Y-120130036D01*
X133192241Y-120138218D01*
X133345281Y-120287302D01*
X133350084Y-120290512D01*
X133350085Y-120290512D01*
X133410352Y-120330781D01*
X133522927Y-120406001D01*
X133528230Y-120408279D01*
X133528233Y-120408281D01*
X133698604Y-120481478D01*
X133719229Y-120490339D01*
X133804478Y-120509629D01*
X133921977Y-120536217D01*
X133921980Y-120536217D01*
X133927613Y-120537492D01*
X133933384Y-120537719D01*
X133933386Y-120537719D01*
X133998363Y-120540272D01*
X134141101Y-120545880D01*
X134250153Y-120530068D01*
X134346829Y-120516051D01*
X134346834Y-120516050D01*
X134352543Y-120515222D01*
X134358007Y-120513367D01*
X134358012Y-120513366D01*
X134549389Y-120448402D01*
X134554857Y-120446546D01*
X134741268Y-120342151D01*
X134905533Y-120205533D01*
X134998654Y-120093567D01*
X135038460Y-120045706D01*
X135042151Y-120041268D01*
X135146546Y-119854857D01*
X135175448Y-119769713D01*
X135213366Y-119658012D01*
X135213367Y-119658007D01*
X135215222Y-119652543D01*
X135217061Y-119639865D01*
X135234610Y-119518826D01*
X135245880Y-119441101D01*
X135247480Y-119380000D01*
X135233483Y-119227680D01*
X135228459Y-119172998D01*
X135228458Y-119172995D01*
X135227930Y-119167244D01*
X135169936Y-118961613D01*
X135156698Y-118934767D01*
X135077995Y-118775174D01*
X135075440Y-118769993D01*
X135056139Y-118744145D01*
X134951060Y-118603427D01*
X134951059Y-118603426D01*
X134947607Y-118598803D01*
X134943371Y-118594887D01*
X134794957Y-118457695D01*
X134794954Y-118457693D01*
X134790717Y-118453776D01*
X134610025Y-118339768D01*
X134411582Y-118260597D01*
X134405925Y-118259472D01*
X134405919Y-118259470D01*
X134263183Y-118231079D01*
X134200273Y-118198172D01*
X134165141Y-118136477D01*
X134168941Y-118065582D01*
X134210466Y-118007996D01*
X134276533Y-117982002D01*
X134287764Y-117981500D01*
X137343406Y-117981500D01*
X137411527Y-118001502D01*
X137432501Y-118018405D01*
X137699778Y-118285682D01*
X137733804Y-118347994D01*
X137732100Y-118408448D01*
X137710989Y-118484570D01*
X137687251Y-118706695D01*
X137687548Y-118711848D01*
X137687548Y-118711851D01*
X137691199Y-118775174D01*
X137700110Y-118929715D01*
X137701247Y-118934761D01*
X137701248Y-118934767D01*
X137708551Y-118967172D01*
X137749222Y-119147639D01*
X137833266Y-119354616D01*
X137883991Y-119437392D01*
X137947291Y-119540688D01*
X137949987Y-119545088D01*
X138096250Y-119713938D01*
X138268126Y-119856632D01*
X138273705Y-119859892D01*
X138341955Y-119899774D01*
X138390679Y-119951412D01*
X138403750Y-120021195D01*
X138377019Y-120086967D01*
X138336562Y-120120327D01*
X138328457Y-120124546D01*
X138319738Y-120130036D01*
X138149433Y-120257905D01*
X138141726Y-120264748D01*
X137994590Y-120418717D01*
X137988104Y-120426727D01*
X137868098Y-120602649D01*
X137863000Y-120611623D01*
X137773338Y-120804783D01*
X137769775Y-120814470D01*
X137714389Y-121014183D01*
X137715912Y-121022607D01*
X137728292Y-121026000D01*
X139178000Y-121026000D01*
X139246121Y-121046002D01*
X139292614Y-121099658D01*
X139304000Y-121152000D01*
X139304000Y-122598517D01*
X139308064Y-122612359D01*
X139321478Y-122614393D01*
X139328184Y-122613534D01*
X139338262Y-122611392D01*
X139542255Y-122550191D01*
X139551842Y-122546433D01*
X139743095Y-122452739D01*
X139751945Y-122447464D01*
X139925328Y-122323792D01*
X139933200Y-122317139D01*
X140084052Y-122166812D01*
X140090730Y-122158965D01*
X140218022Y-121981819D01*
X140219279Y-121982722D01*
X140266373Y-121939362D01*
X140336311Y-121927145D01*
X140401751Y-121954678D01*
X140429579Y-121986511D01*
X140489987Y-122085088D01*
X140636250Y-122253938D01*
X140808126Y-122396632D01*
X141001000Y-122509338D01*
X141209692Y-122589030D01*
X141214760Y-122590061D01*
X141214763Y-122590062D01*
X141309862Y-122609410D01*
X141428597Y-122633567D01*
X141433772Y-122633757D01*
X141433774Y-122633757D01*
X141646673Y-122641564D01*
X141646677Y-122641564D01*
X141651837Y-122641753D01*
X141656957Y-122641097D01*
X141656959Y-122641097D01*
X141868288Y-122614025D01*
X141868289Y-122614025D01*
X141873416Y-122613368D01*
X141878366Y-122611883D01*
X142082429Y-122550661D01*
X142082434Y-122550659D01*
X142087384Y-122549174D01*
X142287994Y-122450896D01*
X142469860Y-122321173D01*
X142628096Y-122163489D01*
X142758453Y-121982077D01*
X142759776Y-121983028D01*
X142806645Y-121939857D01*
X142876580Y-121927625D01*
X142942026Y-121955144D01*
X142969875Y-121986994D01*
X143029987Y-122085088D01*
X143176250Y-122253938D01*
X143348126Y-122396632D01*
X143541000Y-122509338D01*
X143749692Y-122589030D01*
X143754760Y-122590061D01*
X143754763Y-122590062D01*
X143849862Y-122609410D01*
X143968597Y-122633567D01*
X143973772Y-122633757D01*
X143973774Y-122633757D01*
X144186673Y-122641564D01*
X144186677Y-122641564D01*
X144191837Y-122641753D01*
X144196957Y-122641097D01*
X144196959Y-122641097D01*
X144408288Y-122614025D01*
X144408289Y-122614025D01*
X144413416Y-122613368D01*
X144418366Y-122611883D01*
X144622429Y-122550661D01*
X144622434Y-122550659D01*
X144627384Y-122549174D01*
X144827994Y-122450896D01*
X145009860Y-122321173D01*
X145168096Y-122163489D01*
X145298453Y-121982077D01*
X145311995Y-121954678D01*
X145395136Y-121786453D01*
X145395137Y-121786451D01*
X145397430Y-121781811D01*
X145462370Y-121568069D01*
X145491529Y-121346590D01*
X145493156Y-121280000D01*
X145474852Y-121057361D01*
X145420431Y-120840702D01*
X145362869Y-120708319D01*
X145354049Y-120637873D01*
X145384716Y-120573841D01*
X145445133Y-120536553D01*
X145447787Y-120536025D01*
X145447768Y-120535950D01*
X145455448Y-120533978D01*
X145463308Y-120532985D01*
X145470673Y-120530069D01*
X145470677Y-120530068D01*
X145515522Y-120512312D01*
X145522941Y-120509640D01*
X145576386Y-120492275D01*
X145583083Y-120488025D01*
X145583342Y-120487861D01*
X145604469Y-120477096D01*
X145604757Y-120476982D01*
X145604762Y-120476979D01*
X145612128Y-120474063D01*
X145618536Y-120469407D01*
X145618542Y-120469404D01*
X145657563Y-120441053D01*
X145664100Y-120436610D01*
X145711529Y-120406511D01*
X145717170Y-120400504D01*
X145734957Y-120384823D01*
X145735202Y-120384645D01*
X145735204Y-120384643D01*
X145741618Y-120379983D01*
X145746673Y-120373873D01*
X145777414Y-120336715D01*
X145782645Y-120330781D01*
X145815669Y-120295613D01*
X145815671Y-120295610D01*
X145821097Y-120289832D01*
X145825069Y-120282608D01*
X145838392Y-120263005D01*
X145838591Y-120262765D01*
X145838595Y-120262758D01*
X145843644Y-120256655D01*
X145867558Y-120205835D01*
X145871140Y-120198803D01*
X145898206Y-120149571D01*
X145900176Y-120141896D01*
X145900179Y-120141890D01*
X145900255Y-120141592D01*
X145908287Y-120119283D01*
X145908417Y-120119008D01*
X145908420Y-120119000D01*
X145911794Y-120111829D01*
X145922317Y-120056662D01*
X145924043Y-120048940D01*
X145924874Y-120045706D01*
X145938011Y-119994541D01*
X145938011Y-119986304D01*
X145940243Y-119962695D01*
X145940301Y-119962392D01*
X145940301Y-119962388D01*
X145941786Y-119954605D01*
X145938260Y-119898560D01*
X145938011Y-119890649D01*
X145938011Y-116427279D01*
X145938538Y-116416096D01*
X145940213Y-116408603D01*
X145938073Y-116340512D01*
X145938011Y-116336555D01*
X145938011Y-116308655D01*
X145937507Y-116304664D01*
X145936574Y-116292822D01*
X145935434Y-116256547D01*
X145935185Y-116248622D01*
X145932973Y-116241008D01*
X145932972Y-116241003D01*
X145929534Y-116229170D01*
X145925523Y-116209806D01*
X145925229Y-116207474D01*
X145922985Y-116189714D01*
X145920068Y-116182347D01*
X145920067Y-116182342D01*
X145906709Y-116148603D01*
X145902865Y-116137376D01*
X145892741Y-116102533D01*
X145890529Y-116094918D01*
X145880218Y-116077483D01*
X145871523Y-116059735D01*
X145864063Y-116040894D01*
X145854004Y-116027048D01*
X145838075Y-116005124D01*
X145831559Y-115995204D01*
X145813091Y-115963976D01*
X145813089Y-115963973D01*
X145809053Y-115957149D01*
X145794732Y-115942828D01*
X145781891Y-115927794D01*
X145774642Y-115917817D01*
X145769983Y-115911404D01*
X145735906Y-115883213D01*
X145727127Y-115875223D01*
X142997652Y-113145747D01*
X142990112Y-113137461D01*
X142986000Y-113130982D01*
X142936348Y-113084356D01*
X142933507Y-113081602D01*
X142913770Y-113061865D01*
X142910573Y-113059385D01*
X142901551Y-113051680D01*
X142869321Y-113021414D01*
X142862375Y-113017595D01*
X142862372Y-113017593D01*
X142851566Y-113011652D01*
X142835047Y-113000801D01*
X142834583Y-113000441D01*
X142819041Y-112988386D01*
X142811772Y-112985241D01*
X142811768Y-112985238D01*
X142778463Y-112970826D01*
X142767813Y-112965609D01*
X142729060Y-112944305D01*
X142719908Y-112941955D01*
X142709438Y-112939267D01*
X142690734Y-112932863D01*
X142679420Y-112927967D01*
X142679419Y-112927967D01*
X142672145Y-112924819D01*
X142664322Y-112923580D01*
X142664312Y-112923577D01*
X142628476Y-112917901D01*
X142616856Y-112915495D01*
X142581711Y-112906472D01*
X142581710Y-112906472D01*
X142574030Y-112904500D01*
X142553776Y-112904500D01*
X142534065Y-112902949D01*
X142521886Y-112901020D01*
X142514057Y-112899780D01*
X142506165Y-112900526D01*
X142470039Y-112903941D01*
X142458181Y-112904500D01*
X140028130Y-112904500D01*
X139960009Y-112884498D01*
X139913516Y-112830842D01*
X139903412Y-112760568D01*
X139908295Y-112739570D01*
X139958542Y-112584928D01*
X139970916Y-112467201D01*
X139977814Y-112401565D01*
X139978504Y-112395000D01*
X139965846Y-112274565D01*
X139959232Y-112211635D01*
X139959232Y-112211633D01*
X139958542Y-112205072D01*
X139899527Y-112023444D01*
X139804040Y-111858056D01*
X139730863Y-111776785D01*
X139700147Y-111712779D01*
X139698500Y-111692476D01*
X139698500Y-110169594D01*
X139718502Y-110101473D01*
X139735405Y-110080499D01*
X139925499Y-109890405D01*
X139987811Y-109856379D01*
X140014594Y-109853500D01*
X140256233Y-109853500D01*
X140267416Y-109854027D01*
X140274909Y-109855702D01*
X140282835Y-109855453D01*
X140282836Y-109855453D01*
X140342986Y-109853562D01*
X140346945Y-109853500D01*
X140374856Y-109853500D01*
X140378791Y-109853003D01*
X140378856Y-109852995D01*
X140390693Y-109852062D01*
X140422951Y-109851048D01*
X140426970Y-109850922D01*
X140434889Y-109850673D01*
X140454343Y-109845021D01*
X140473700Y-109841013D01*
X140485930Y-109839468D01*
X140485931Y-109839468D01*
X140493797Y-109838474D01*
X140501168Y-109835555D01*
X140501170Y-109835555D01*
X140534912Y-109822196D01*
X140546142Y-109818351D01*
X140580983Y-109808229D01*
X140580984Y-109808229D01*
X140588593Y-109806018D01*
X140595412Y-109801985D01*
X140595417Y-109801983D01*
X140606028Y-109795707D01*
X140623776Y-109787012D01*
X140642617Y-109779552D01*
X140678387Y-109753564D01*
X140688307Y-109747048D01*
X140719535Y-109728580D01*
X140719538Y-109728578D01*
X140726362Y-109724542D01*
X140740683Y-109710221D01*
X140755717Y-109697380D01*
X140772107Y-109685472D01*
X140800298Y-109651395D01*
X140808288Y-109642616D01*
X142190500Y-108260405D01*
X142252812Y-108226379D01*
X142279595Y-108223500D01*
X142335487Y-108223500D01*
X142341939Y-108222128D01*
X142341944Y-108222128D01*
X142428888Y-108203647D01*
X142522288Y-108183794D01*
X142552938Y-108170148D01*
X142690722Y-108108803D01*
X142690724Y-108108802D01*
X142696752Y-108106118D01*
X142851253Y-107993866D01*
X142979040Y-107851944D01*
X143074527Y-107686556D01*
X143133542Y-107504928D01*
X143135967Y-107481861D01*
X143152814Y-107321565D01*
X143153504Y-107315000D01*
X143138598Y-107173177D01*
X143134232Y-107131635D01*
X143134232Y-107131633D01*
X143133542Y-107125072D01*
X143074527Y-106943444D01*
X142979040Y-106778056D01*
X142851253Y-106636134D01*
X142696752Y-106523882D01*
X142690724Y-106521198D01*
X142690722Y-106521197D01*
X142528319Y-106448891D01*
X142528318Y-106448891D01*
X142522288Y-106446206D01*
X142428887Y-106426353D01*
X142341944Y-106407872D01*
X142341939Y-106407872D01*
X142335487Y-106406500D01*
X142144513Y-106406500D01*
X142138061Y-106407872D01*
X142138056Y-106407872D01*
X141996284Y-106438007D01*
X141925493Y-106432605D01*
X141868861Y-106389788D01*
X141844367Y-106323150D01*
X141850254Y-106275824D01*
X141861502Y-106241206D01*
X141863542Y-106234928D01*
X141866814Y-106203803D01*
X141882814Y-106051565D01*
X141883504Y-106045000D01*
X141863542Y-105855072D01*
X141804527Y-105673444D01*
X141709040Y-105508056D01*
X141581253Y-105366134D01*
X141482157Y-105294136D01*
X141432094Y-105257763D01*
X141432093Y-105257762D01*
X141426752Y-105253882D01*
X141420724Y-105251198D01*
X141420722Y-105251197D01*
X141258319Y-105178891D01*
X141258318Y-105178891D01*
X141252288Y-105176206D01*
X141158887Y-105156353D01*
X141071944Y-105137872D01*
X141071939Y-105137872D01*
X141065487Y-105136500D01*
X140874513Y-105136500D01*
X140868061Y-105137872D01*
X140868056Y-105137872D01*
X140781113Y-105156353D01*
X140687712Y-105176206D01*
X140681682Y-105178891D01*
X140681681Y-105178891D01*
X140519278Y-105251197D01*
X140519276Y-105251198D01*
X140513248Y-105253882D01*
X140507907Y-105257762D01*
X140507906Y-105257763D01*
X140457843Y-105294136D01*
X140358747Y-105366134D01*
X140230960Y-105508056D01*
X140135473Y-105673444D01*
X140076458Y-105855072D01*
X140075768Y-105861633D01*
X140075768Y-105861635D01*
X140059093Y-106020293D01*
X140032080Y-106085950D01*
X140022887Y-106096209D01*
X139114498Y-107004597D01*
X139052188Y-107038621D01*
X139025405Y-107041500D01*
X138969513Y-107041500D01*
X138963061Y-107042872D01*
X138963056Y-107042872D01*
X138890692Y-107058254D01*
X138782712Y-107081206D01*
X138776682Y-107083891D01*
X138776681Y-107083891D01*
X138614278Y-107156197D01*
X138614276Y-107156198D01*
X138608248Y-107158882D01*
X138602907Y-107162762D01*
X138602906Y-107162763D01*
X138579922Y-107179462D01*
X138453747Y-107271134D01*
X138325960Y-107413056D01*
X138230473Y-107578444D01*
X138171458Y-107760072D01*
X138170768Y-107766633D01*
X138170768Y-107766635D01*
X138162720Y-107843206D01*
X138151496Y-107950000D01*
X138152186Y-107956565D01*
X138168187Y-108108803D01*
X138171458Y-108139928D01*
X138230473Y-108321556D01*
X138325960Y-108486944D01*
X138330378Y-108491851D01*
X138330379Y-108491852D01*
X138449325Y-108623955D01*
X138453747Y-108628866D01*
X138511808Y-108671050D01*
X138577207Y-108718565D01*
X138608248Y-108741118D01*
X138614276Y-108743802D01*
X138614278Y-108743803D01*
X138776681Y-108816109D01*
X138782712Y-108818794D01*
X138871260Y-108837616D01*
X138904231Y-108844624D01*
X138966705Y-108878353D01*
X139001026Y-108940502D01*
X138996298Y-109011341D01*
X138967130Y-109056966D01*
X138805836Y-109218259D01*
X138672742Y-109351353D01*
X138664463Y-109358887D01*
X138657982Y-109363000D01*
X138628168Y-109394749D01*
X138611357Y-109412651D01*
X138608602Y-109415493D01*
X138588865Y-109435230D01*
X138586385Y-109438427D01*
X138578682Y-109447447D01*
X138548414Y-109479679D01*
X138544595Y-109486625D01*
X138544593Y-109486628D01*
X138538652Y-109497434D01*
X138527801Y-109513953D01*
X138515386Y-109529959D01*
X138512241Y-109537228D01*
X138512238Y-109537232D01*
X138497826Y-109570537D01*
X138492609Y-109581187D01*
X138471305Y-109619940D01*
X138469334Y-109627615D01*
X138469334Y-109627616D01*
X138466267Y-109639562D01*
X138459863Y-109658266D01*
X138451819Y-109676855D01*
X138450580Y-109684678D01*
X138450577Y-109684688D01*
X138444901Y-109720524D01*
X138442495Y-109732144D01*
X138431500Y-109774970D01*
X138431500Y-109795224D01*
X138429949Y-109814934D01*
X138426780Y-109834943D01*
X138427526Y-109842835D01*
X138430941Y-109878961D01*
X138431500Y-109890819D01*
X138431500Y-111692476D01*
X138411498Y-111760597D01*
X138399142Y-111776779D01*
X138325960Y-111858056D01*
X138322661Y-111863769D01*
X138322658Y-111863774D01*
X138252136Y-111985922D01*
X138200753Y-112034915D01*
X138131040Y-112048351D01*
X138065129Y-112021964D01*
X138053921Y-112012017D01*
X137998271Y-111956366D01*
X137853121Y-111811216D01*
X137819096Y-111748904D01*
X137816907Y-111735291D01*
X137800232Y-111576635D01*
X137800232Y-111576633D01*
X137799542Y-111570072D01*
X137740527Y-111388444D01*
X137645040Y-111223056D01*
X137517253Y-111081134D01*
X137362752Y-110968882D01*
X137356724Y-110966198D01*
X137356722Y-110966197D01*
X137194319Y-110893891D01*
X137194318Y-110893891D01*
X137188288Y-110891206D01*
X137094887Y-110871353D01*
X137007944Y-110852872D01*
X137007939Y-110852872D01*
X137001487Y-110851500D01*
X136889197Y-110851500D01*
X136821076Y-110831498D01*
X136774583Y-110777842D01*
X136769364Y-110764437D01*
X136726568Y-110632726D01*
X136724527Y-110626444D01*
X136629040Y-110461056D01*
X136603064Y-110432206D01*
X136505675Y-110324045D01*
X136505674Y-110324044D01*
X136501253Y-110319134D01*
X136386829Y-110236000D01*
X136352094Y-110210763D01*
X136352093Y-110210762D01*
X136346752Y-110206882D01*
X136340724Y-110204198D01*
X136340722Y-110204197D01*
X136178319Y-110131891D01*
X136178318Y-110131891D01*
X136172288Y-110129206D01*
X136110529Y-110116079D01*
X136048057Y-110082351D01*
X136016894Y-110031768D01*
X136015554Y-110027642D01*
X135962527Y-109864444D01*
X135956209Y-109853500D01*
X135881754Y-109724542D01*
X135867040Y-109699056D01*
X135813472Y-109639562D01*
X135743675Y-109562045D01*
X135743674Y-109562044D01*
X135739253Y-109557134D01*
X135624692Y-109473900D01*
X135590094Y-109448763D01*
X135590093Y-109448762D01*
X135584752Y-109444882D01*
X135578724Y-109442198D01*
X135578722Y-109442197D01*
X135416319Y-109369891D01*
X135416318Y-109369891D01*
X135410288Y-109367206D01*
X135316888Y-109347353D01*
X135229944Y-109328872D01*
X135229939Y-109328872D01*
X135223487Y-109327500D01*
X135032513Y-109327500D01*
X135026061Y-109328872D01*
X135026056Y-109328872D01*
X134939113Y-109347353D01*
X134845712Y-109367206D01*
X134839682Y-109369891D01*
X134839681Y-109369891D01*
X134677278Y-109442197D01*
X134677276Y-109442198D01*
X134671248Y-109444882D01*
X134665907Y-109448762D01*
X134665906Y-109448763D01*
X134631308Y-109473900D01*
X134516747Y-109557134D01*
X134512326Y-109562044D01*
X134512325Y-109562045D01*
X134442529Y-109639562D01*
X134388960Y-109699056D01*
X134374246Y-109724542D01*
X134299792Y-109853500D01*
X134293473Y-109864444D01*
X134234458Y-110046072D01*
X134233768Y-110052633D01*
X134233768Y-110052635D01*
X134225720Y-110129206D01*
X134214496Y-110236000D01*
X134215186Y-110242565D01*
X134222826Y-110315251D01*
X134234458Y-110425928D01*
X134293473Y-110607556D01*
X134388960Y-110772944D01*
X134462137Y-110854215D01*
X134492853Y-110918221D01*
X134494500Y-110938524D01*
X134494500Y-111563565D01*
X134493973Y-111574748D01*
X134492298Y-111582241D01*
X134492547Y-111590167D01*
X134492547Y-111590168D01*
X134494438Y-111650318D01*
X134494500Y-111654277D01*
X134494500Y-111682188D01*
X134494997Y-111686122D01*
X134494997Y-111686123D01*
X134495005Y-111686188D01*
X134495938Y-111698025D01*
X134497327Y-111742221D01*
X134502666Y-111760597D01*
X134502978Y-111761671D01*
X134506987Y-111781032D01*
X134509526Y-111801129D01*
X134512445Y-111808500D01*
X134512445Y-111808502D01*
X134525804Y-111842244D01*
X134529649Y-111853474D01*
X134536556Y-111877247D01*
X134541982Y-111895925D01*
X134546015Y-111902744D01*
X134546017Y-111902749D01*
X134552293Y-111913360D01*
X134560988Y-111931108D01*
X134568448Y-111949949D01*
X134573110Y-111956365D01*
X134573110Y-111956366D01*
X134594436Y-111985719D01*
X134600952Y-111995639D01*
X134618959Y-112026086D01*
X134623458Y-112033694D01*
X134637779Y-112048015D01*
X134650619Y-112063048D01*
X134662528Y-112079439D01*
X134668634Y-112084490D01*
X134696605Y-112107630D01*
X134705384Y-112115620D01*
X137311168Y-114721405D01*
X137345194Y-114783717D01*
X137340129Y-114854533D01*
X137297582Y-114911368D01*
X137231062Y-114936179D01*
X137222073Y-114936500D01*
X126797980Y-114936500D01*
X126729859Y-114916498D01*
X126708885Y-114899595D01*
X126396854Y-114587564D01*
X126362828Y-114525252D01*
X126367893Y-114454437D01*
X126392312Y-114414159D01*
X126405719Y-114399269D01*
X126469040Y-114328944D01*
X126545341Y-114196787D01*
X126561223Y-114169279D01*
X126561224Y-114169278D01*
X126564527Y-114163556D01*
X126623542Y-113981928D01*
X126640907Y-113816706D01*
X126667920Y-113751050D01*
X126677122Y-113740782D01*
X127204499Y-113213405D01*
X127266811Y-113179379D01*
X127293594Y-113176500D01*
X127349487Y-113176500D01*
X127355939Y-113175128D01*
X127355944Y-113175128D01*
X127442888Y-113156647D01*
X127536288Y-113136794D01*
X127561527Y-113125557D01*
X127704722Y-113061803D01*
X127704724Y-113061802D01*
X127710752Y-113059118D01*
X127720990Y-113051680D01*
X127776083Y-113011652D01*
X127865253Y-112946866D01*
X127885104Y-112924819D01*
X127988621Y-112809852D01*
X127988622Y-112809851D01*
X127993040Y-112804944D01*
X128076189Y-112660926D01*
X128085223Y-112645279D01*
X128085224Y-112645278D01*
X128088527Y-112639556D01*
X128147542Y-112457928D01*
X128167504Y-112268000D01*
X128157720Y-112174906D01*
X128148232Y-112084635D01*
X128148232Y-112084633D01*
X128147542Y-112078072D01*
X128088527Y-111896444D01*
X127993040Y-111731056D01*
X127976584Y-111712779D01*
X127869675Y-111594045D01*
X127869674Y-111594044D01*
X127865253Y-111589134D01*
X127710752Y-111476882D01*
X127704724Y-111474198D01*
X127704722Y-111474197D01*
X127542319Y-111401891D01*
X127542318Y-111401891D01*
X127536288Y-111399206D01*
X127442887Y-111379353D01*
X127355944Y-111360872D01*
X127355939Y-111360872D01*
X127349487Y-111359500D01*
X127158513Y-111359500D01*
X127152061Y-111360872D01*
X127152056Y-111360872D01*
X127065113Y-111379353D01*
X126971712Y-111399206D01*
X126965682Y-111401891D01*
X126965681Y-111401891D01*
X126803278Y-111474197D01*
X126803276Y-111474198D01*
X126797248Y-111476882D01*
X126642747Y-111589134D01*
X126638326Y-111594044D01*
X126638325Y-111594045D01*
X126531417Y-111712779D01*
X126514960Y-111731056D01*
X126419473Y-111896444D01*
X126360458Y-112078072D01*
X126359768Y-112084633D01*
X126359768Y-112084635D01*
X126343093Y-112243292D01*
X126316080Y-112308949D01*
X126306878Y-112319217D01*
X125822121Y-112803974D01*
X125759809Y-112838000D01*
X125688994Y-112832935D01*
X125632158Y-112790388D01*
X125615873Y-112761259D01*
X125615600Y-112760568D01*
X125607686Y-112740579D01*
X125603843Y-112729354D01*
X125593719Y-112694511D01*
X125591507Y-112686896D01*
X125581196Y-112669461D01*
X125572501Y-112651713D01*
X125565041Y-112632872D01*
X125539053Y-112597102D01*
X125532537Y-112587182D01*
X125514069Y-112555954D01*
X125514067Y-112555951D01*
X125510031Y-112549127D01*
X125495710Y-112534806D01*
X125482869Y-112519772D01*
X125475620Y-112509795D01*
X125470961Y-112503382D01*
X125436884Y-112475191D01*
X125428105Y-112467201D01*
X123895343Y-110934438D01*
X123861317Y-110872126D01*
X123862731Y-110812733D01*
X123884881Y-110730063D01*
X123886306Y-110724745D01*
X123906844Y-110490000D01*
X123886306Y-110255255D01*
X123872625Y-110204197D01*
X123826741Y-110032952D01*
X123826740Y-110032950D01*
X123825318Y-110027642D01*
X123761323Y-109890405D01*
X123728054Y-109819059D01*
X123728052Y-109819056D01*
X123725731Y-109814078D01*
X123590573Y-109621051D01*
X123423949Y-109454427D01*
X123230922Y-109319269D01*
X123225944Y-109316948D01*
X123225941Y-109316946D01*
X123022340Y-109222005D01*
X123022338Y-109222004D01*
X123017358Y-109219682D01*
X123012050Y-109218260D01*
X123012048Y-109218259D01*
X122795060Y-109160118D01*
X122795059Y-109160118D01*
X122789745Y-109158694D01*
X122555000Y-109138156D01*
X122320255Y-109158694D01*
X122184399Y-109195096D01*
X122113424Y-109193406D01*
X122054628Y-109153612D01*
X122026680Y-109088347D01*
X122025789Y-109073389D01*
X122025789Y-108712000D01*
X127356496Y-108712000D01*
X127357186Y-108718565D01*
X127371894Y-108858500D01*
X127376458Y-108901928D01*
X127435473Y-109083556D01*
X127530960Y-109248944D01*
X127535378Y-109253851D01*
X127535379Y-109253852D01*
X127639861Y-109369891D01*
X127658747Y-109390866D01*
X127690697Y-109414079D01*
X127805425Y-109497434D01*
X127813248Y-109503118D01*
X127819276Y-109505802D01*
X127819278Y-109505803D01*
X127981681Y-109578109D01*
X127987712Y-109580794D01*
X128081113Y-109600647D01*
X128168056Y-109619128D01*
X128168061Y-109619128D01*
X128174513Y-109620500D01*
X128365487Y-109620500D01*
X128371939Y-109619128D01*
X128371944Y-109619128D01*
X128458888Y-109600647D01*
X128552288Y-109580794D01*
X128558319Y-109578109D01*
X128720722Y-109505803D01*
X128720724Y-109505802D01*
X128726752Y-109503118D01*
X128734576Y-109497434D01*
X128849303Y-109414079D01*
X128881253Y-109390866D01*
X128900139Y-109369891D01*
X129004621Y-109253852D01*
X129004622Y-109253851D01*
X129009040Y-109248944D01*
X129104527Y-109083556D01*
X129163542Y-108901928D01*
X129168107Y-108858500D01*
X129180161Y-108743803D01*
X129180907Y-108736706D01*
X129207920Y-108671050D01*
X129217122Y-108660782D01*
X130819650Y-107058254D01*
X130857496Y-107032242D01*
X131006722Y-106965803D01*
X131006724Y-106965802D01*
X131012752Y-106963118D01*
X131022028Y-106956379D01*
X131054493Y-106932791D01*
X131121021Y-106884456D01*
X131187887Y-106860598D01*
X131257039Y-106876678D01*
X131306519Y-106927591D01*
X131320391Y-106973221D01*
X131322978Y-106997834D01*
X131381993Y-107179462D01*
X131477480Y-107344850D01*
X131605267Y-107486772D01*
X131704363Y-107558770D01*
X131740093Y-107584729D01*
X131759768Y-107599024D01*
X131765796Y-107601708D01*
X131765798Y-107601709D01*
X131928201Y-107674015D01*
X131934232Y-107676700D01*
X132027632Y-107696553D01*
X132114576Y-107715034D01*
X132114581Y-107715034D01*
X132121033Y-107716406D01*
X132312007Y-107716406D01*
X132318459Y-107715034D01*
X132318464Y-107715034D01*
X132405408Y-107696553D01*
X132498808Y-107676700D01*
X132504839Y-107674015D01*
X132667242Y-107601709D01*
X132667244Y-107601708D01*
X132673272Y-107599024D01*
X132692948Y-107584729D01*
X132728677Y-107558770D01*
X132827773Y-107486772D01*
X132955560Y-107344850D01*
X133051047Y-107179462D01*
X133110062Y-106997834D01*
X133130024Y-106807906D01*
X133115533Y-106670030D01*
X133110752Y-106624541D01*
X133110752Y-106624539D01*
X133110062Y-106617978D01*
X133051047Y-106436350D01*
X132955560Y-106270962D01*
X132882383Y-106189691D01*
X132851667Y-106125685D01*
X132850020Y-106105382D01*
X132850020Y-105410000D01*
X135611496Y-105410000D01*
X135612186Y-105416565D01*
X135619826Y-105489251D01*
X135631458Y-105599928D01*
X135690473Y-105781556D01*
X135785960Y-105946944D01*
X135790378Y-105951851D01*
X135790379Y-105951852D01*
X135817589Y-105982072D01*
X135913747Y-106088866D01*
X135964424Y-106125685D01*
X136037207Y-106178565D01*
X136068248Y-106201118D01*
X136074276Y-106203802D01*
X136074278Y-106203803D01*
X136225121Y-106270962D01*
X136242712Y-106278794D01*
X136336112Y-106298647D01*
X136423056Y-106317128D01*
X136423061Y-106317128D01*
X136429513Y-106318500D01*
X136620487Y-106318500D01*
X136626939Y-106317128D01*
X136626944Y-106317128D01*
X136713887Y-106298647D01*
X136807288Y-106278794D01*
X136824879Y-106270962D01*
X136975722Y-106203803D01*
X136975724Y-106203802D01*
X136981752Y-106201118D01*
X137012794Y-106178565D01*
X137085576Y-106125685D01*
X137136253Y-106088866D01*
X137232411Y-105982072D01*
X137259621Y-105951852D01*
X137259622Y-105951851D01*
X137264040Y-105946944D01*
X137359527Y-105781556D01*
X137418542Y-105599928D01*
X137430175Y-105489251D01*
X137437814Y-105416565D01*
X137438504Y-105410000D01*
X137427280Y-105303206D01*
X137419232Y-105226635D01*
X137419232Y-105226633D01*
X137418542Y-105220072D01*
X137359527Y-105038444D01*
X137264040Y-104873056D01*
X137190863Y-104791785D01*
X137160147Y-104727779D01*
X137158500Y-104707476D01*
X137158500Y-101667524D01*
X137178502Y-101599403D01*
X137190858Y-101583221D01*
X137264040Y-101501944D01*
X137359527Y-101336556D01*
X137418542Y-101154928D01*
X137421814Y-101123803D01*
X137437814Y-100971565D01*
X137438504Y-100965000D01*
X137418542Y-100775072D01*
X137359527Y-100593444D01*
X137264040Y-100428056D01*
X137136253Y-100286134D01*
X136981752Y-100173882D01*
X136975724Y-100171198D01*
X136975722Y-100171197D01*
X136813319Y-100098891D01*
X136813318Y-100098891D01*
X136807288Y-100096206D01*
X136713888Y-100076353D01*
X136626944Y-100057872D01*
X136626939Y-100057872D01*
X136620487Y-100056500D01*
X136429513Y-100056500D01*
X136423061Y-100057872D01*
X136423056Y-100057872D01*
X136336112Y-100076353D01*
X136242712Y-100096206D01*
X136236682Y-100098891D01*
X136236681Y-100098891D01*
X136074278Y-100171197D01*
X136074276Y-100171198D01*
X136068248Y-100173882D01*
X135913747Y-100286134D01*
X135785960Y-100428056D01*
X135690473Y-100593444D01*
X135631458Y-100775072D01*
X135611496Y-100965000D01*
X135612186Y-100971565D01*
X135628187Y-101123803D01*
X135631458Y-101154928D01*
X135690473Y-101336556D01*
X135785960Y-101501944D01*
X135859137Y-101583215D01*
X135889853Y-101647221D01*
X135891500Y-101667524D01*
X135891500Y-104707476D01*
X135871498Y-104775597D01*
X135859142Y-104791779D01*
X135785960Y-104873056D01*
X135690473Y-105038444D01*
X135631458Y-105220072D01*
X135630768Y-105226633D01*
X135630768Y-105226635D01*
X135622720Y-105303206D01*
X135611496Y-105410000D01*
X132850020Y-105410000D01*
X132850020Y-103720283D01*
X132850547Y-103709099D01*
X132852221Y-103701611D01*
X132850082Y-103633552D01*
X132850020Y-103629595D01*
X132850020Y-103601664D01*
X132849514Y-103597658D01*
X132848581Y-103585812D01*
X132847442Y-103549557D01*
X132847193Y-103541630D01*
X132841542Y-103522178D01*
X132837534Y-103502826D01*
X132835988Y-103490588D01*
X132835987Y-103490586D01*
X132834994Y-103482723D01*
X132818714Y-103441606D01*
X132814879Y-103430405D01*
X132802538Y-103387926D01*
X132798505Y-103381107D01*
X132798503Y-103381102D01*
X132792227Y-103370491D01*
X132783530Y-103352741D01*
X132776072Y-103333903D01*
X132750091Y-103298143D01*
X132743573Y-103288221D01*
X132725098Y-103256980D01*
X132725094Y-103256975D01*
X132721062Y-103250157D01*
X132706738Y-103235833D01*
X132693896Y-103220798D01*
X132681992Y-103204413D01*
X132647926Y-103176231D01*
X132639147Y-103168242D01*
X129852122Y-100381217D01*
X129818096Y-100318905D01*
X129815907Y-100305292D01*
X129813894Y-100286134D01*
X129809977Y-100248866D01*
X129799232Y-100146635D01*
X129799232Y-100146633D01*
X129798542Y-100140072D01*
X129739527Y-99958444D01*
X129644040Y-99793056D01*
X129516253Y-99651134D01*
X129361752Y-99538882D01*
X129355724Y-99536198D01*
X129355722Y-99536197D01*
X129193319Y-99463891D01*
X129193318Y-99463891D01*
X129187288Y-99461206D01*
X129093887Y-99441353D01*
X129006944Y-99422872D01*
X129006939Y-99422872D01*
X129000487Y-99421500D01*
X128809513Y-99421500D01*
X128803061Y-99422872D01*
X128803056Y-99422872D01*
X128716113Y-99441353D01*
X128622712Y-99461206D01*
X128616682Y-99463891D01*
X128616681Y-99463891D01*
X128454278Y-99536197D01*
X128454276Y-99536198D01*
X128448248Y-99538882D01*
X128293747Y-99651134D01*
X128165960Y-99793056D01*
X128070473Y-99958444D01*
X128011458Y-100140072D01*
X128010768Y-100146633D01*
X128010768Y-100146635D01*
X127996515Y-100282251D01*
X127991496Y-100330000D01*
X128011458Y-100519928D01*
X128070473Y-100701556D01*
X128165960Y-100866944D01*
X128293747Y-101008866D01*
X128448248Y-101121118D01*
X128454276Y-101123802D01*
X128454278Y-101123803D01*
X128616681Y-101196109D01*
X128622712Y-101198794D01*
X128716112Y-101218647D01*
X128803056Y-101237128D01*
X128803061Y-101237128D01*
X128809513Y-101238500D01*
X128865406Y-101238500D01*
X128933527Y-101258502D01*
X128954501Y-101275405D01*
X131546115Y-103867019D01*
X131580141Y-103929331D01*
X131583020Y-103956114D01*
X131583020Y-105663614D01*
X131563018Y-105731735D01*
X131509362Y-105778228D01*
X131439088Y-105788332D01*
X131374508Y-105758838D01*
X131347901Y-105726614D01*
X131298341Y-105640774D01*
X131295040Y-105635056D01*
X131269064Y-105606206D01*
X131171675Y-105498045D01*
X131171674Y-105498044D01*
X131167253Y-105493134D01*
X131052829Y-105410000D01*
X131018094Y-105384763D01*
X131018093Y-105384762D01*
X131012752Y-105380882D01*
X131006724Y-105378198D01*
X131006722Y-105378197D01*
X130844319Y-105305891D01*
X130844318Y-105305891D01*
X130838288Y-105303206D01*
X130744888Y-105283353D01*
X130657944Y-105264872D01*
X130657939Y-105264872D01*
X130651487Y-105263500D01*
X130460513Y-105263500D01*
X130454061Y-105264872D01*
X130454056Y-105264872D01*
X130367113Y-105283353D01*
X130273712Y-105303206D01*
X130267682Y-105305891D01*
X130267681Y-105305891D01*
X130105278Y-105378197D01*
X130105276Y-105378198D01*
X130099248Y-105380882D01*
X130093907Y-105384762D01*
X130093906Y-105384763D01*
X130059171Y-105410000D01*
X129944747Y-105493134D01*
X129940326Y-105498044D01*
X129940325Y-105498045D01*
X129842937Y-105606206D01*
X129816960Y-105635056D01*
X129721473Y-105800444D01*
X129662458Y-105982072D01*
X129661768Y-105988633D01*
X129661768Y-105988635D01*
X129650461Y-106096219D01*
X129642496Y-106172000D01*
X129643186Y-106178565D01*
X129662045Y-106358000D01*
X129649273Y-106427838D01*
X129625830Y-106460265D01*
X128319500Y-107766595D01*
X128257188Y-107800621D01*
X128230405Y-107803500D01*
X128174513Y-107803500D01*
X128168061Y-107804872D01*
X128168056Y-107804872D01*
X128081113Y-107823353D01*
X127987712Y-107843206D01*
X127981682Y-107845891D01*
X127981681Y-107845891D01*
X127819278Y-107918197D01*
X127819276Y-107918198D01*
X127813248Y-107920882D01*
X127807907Y-107924762D01*
X127807906Y-107924763D01*
X127773171Y-107950000D01*
X127658747Y-108033134D01*
X127654326Y-108038044D01*
X127654325Y-108038045D01*
X127556937Y-108146206D01*
X127530960Y-108175056D01*
X127435473Y-108340444D01*
X127376458Y-108522072D01*
X127375768Y-108528633D01*
X127375768Y-108528635D01*
X127361879Y-108660782D01*
X127356496Y-108712000D01*
X122025789Y-108712000D01*
X122025789Y-104347305D01*
X122045791Y-104279184D01*
X122062694Y-104258210D01*
X127895905Y-98425000D01*
X129261496Y-98425000D01*
X129281458Y-98614928D01*
X129340473Y-98796556D01*
X129435960Y-98961944D01*
X129440378Y-98966851D01*
X129440379Y-98966852D01*
X129522452Y-99058003D01*
X129563747Y-99103866D01*
X129718248Y-99216118D01*
X129724276Y-99218802D01*
X129724278Y-99218803D01*
X129886681Y-99291109D01*
X129892712Y-99293794D01*
X129986112Y-99313647D01*
X130073056Y-99332128D01*
X130073061Y-99332128D01*
X130079513Y-99333500D01*
X130270487Y-99333500D01*
X130276939Y-99332128D01*
X130276944Y-99332128D01*
X130363888Y-99313647D01*
X130457288Y-99293794D01*
X130463319Y-99291109D01*
X130625722Y-99218803D01*
X130625724Y-99218802D01*
X130631752Y-99216118D01*
X130786253Y-99103866D01*
X130790668Y-99098963D01*
X130795580Y-99094540D01*
X130796705Y-99095789D01*
X130850014Y-99062949D01*
X130883200Y-99058500D01*
X135811233Y-99058500D01*
X135822416Y-99059027D01*
X135829909Y-99060702D01*
X135837835Y-99060453D01*
X135837836Y-99060453D01*
X135897986Y-99058562D01*
X135901945Y-99058500D01*
X135929856Y-99058500D01*
X135933791Y-99058003D01*
X135933856Y-99057995D01*
X135945693Y-99057062D01*
X135977951Y-99056048D01*
X135981970Y-99055922D01*
X135989889Y-99055673D01*
X136009343Y-99050021D01*
X136028700Y-99046013D01*
X136040930Y-99044468D01*
X136040931Y-99044468D01*
X136048797Y-99043474D01*
X136056168Y-99040555D01*
X136056170Y-99040555D01*
X136089912Y-99027196D01*
X136101142Y-99023351D01*
X136135983Y-99013229D01*
X136135984Y-99013229D01*
X136143593Y-99011018D01*
X136150412Y-99006985D01*
X136150417Y-99006983D01*
X136161028Y-99000707D01*
X136178776Y-98992012D01*
X136197617Y-98984552D01*
X136233387Y-98958564D01*
X136243307Y-98952048D01*
X136274535Y-98933580D01*
X136274538Y-98933578D01*
X136281362Y-98929542D01*
X136295683Y-98915221D01*
X136310717Y-98902380D01*
X136320694Y-98895131D01*
X136327107Y-98890472D01*
X136355298Y-98856395D01*
X136363288Y-98847616D01*
X136475979Y-98734925D01*
X136538291Y-98700899D01*
X136565074Y-98698020D01*
X136620967Y-98698020D01*
X136627419Y-98696648D01*
X136627424Y-98696648D01*
X136714367Y-98678167D01*
X136807768Y-98658314D01*
X136813799Y-98655629D01*
X136976202Y-98583323D01*
X136976204Y-98583322D01*
X136982232Y-98580638D01*
X137136733Y-98468386D01*
X137264520Y-98326464D01*
X137360007Y-98161076D01*
X137419022Y-97979448D01*
X137429144Y-97883148D01*
X137438294Y-97796085D01*
X137438984Y-97789520D01*
X137419022Y-97599592D01*
X137360007Y-97417964D01*
X137264520Y-97252576D01*
X137136733Y-97110654D01*
X136982232Y-96998402D01*
X136976204Y-96995718D01*
X136976202Y-96995717D01*
X136813799Y-96923411D01*
X136813798Y-96923411D01*
X136807768Y-96920726D01*
X136714367Y-96900873D01*
X136627424Y-96882392D01*
X136627419Y-96882392D01*
X136620967Y-96881020D01*
X136429993Y-96881020D01*
X136423541Y-96882392D01*
X136423536Y-96882392D01*
X136336592Y-96900873D01*
X136243192Y-96920726D01*
X136237162Y-96923411D01*
X136237161Y-96923411D01*
X136074758Y-96995717D01*
X136074756Y-96995718D01*
X136068728Y-96998402D01*
X135914227Y-97110654D01*
X135786440Y-97252576D01*
X135690953Y-97417964D01*
X135631938Y-97599592D01*
X135631248Y-97606153D01*
X135631248Y-97606155D01*
X135623627Y-97678670D01*
X135596614Y-97744327D01*
X135538393Y-97784957D01*
X135498317Y-97791500D01*
X130883200Y-97791500D01*
X130815079Y-97771498D01*
X130795853Y-97755157D01*
X130795580Y-97755460D01*
X130790668Y-97751037D01*
X130786253Y-97746134D01*
X130631752Y-97633882D01*
X130625724Y-97631198D01*
X130625722Y-97631197D01*
X130463319Y-97558891D01*
X130463318Y-97558891D01*
X130457288Y-97556206D01*
X130363888Y-97536353D01*
X130276944Y-97517872D01*
X130276939Y-97517872D01*
X130270487Y-97516500D01*
X130079513Y-97516500D01*
X130073061Y-97517872D01*
X130073056Y-97517872D01*
X129986112Y-97536353D01*
X129892712Y-97556206D01*
X129886682Y-97558891D01*
X129886681Y-97558891D01*
X129724278Y-97631197D01*
X129724276Y-97631198D01*
X129718248Y-97633882D01*
X129563747Y-97746134D01*
X129435960Y-97888056D01*
X129340473Y-98053444D01*
X129281458Y-98235072D01*
X129280768Y-98241633D01*
X129280768Y-98241635D01*
X129262186Y-98418435D01*
X129261496Y-98425000D01*
X127895905Y-98425000D01*
X130770514Y-95550391D01*
X130832826Y-95516365D01*
X130859609Y-95513486D01*
X131398314Y-95513486D01*
X131466435Y-95533488D01*
X131485661Y-95549829D01*
X131485934Y-95549526D01*
X131490846Y-95553949D01*
X131495261Y-95558852D01*
X131649762Y-95671104D01*
X131655790Y-95673788D01*
X131655792Y-95673789D01*
X131818195Y-95746095D01*
X131824226Y-95748780D01*
X131917626Y-95768633D01*
X132004570Y-95787114D01*
X132004575Y-95787114D01*
X132011027Y-95788486D01*
X132202001Y-95788486D01*
X132208453Y-95787114D01*
X132208458Y-95787114D01*
X132295402Y-95768633D01*
X132388802Y-95748780D01*
X132394833Y-95746095D01*
X132557236Y-95673789D01*
X132557238Y-95673788D01*
X132563266Y-95671104D01*
X132717767Y-95558852D01*
X132754654Y-95517885D01*
X132841135Y-95421838D01*
X132841136Y-95421837D01*
X132845554Y-95416930D01*
X132848853Y-95411217D01*
X132848856Y-95411212D01*
X132857134Y-95396873D01*
X132908517Y-95347880D01*
X132978230Y-95334444D01*
X133044141Y-95360831D01*
X133085323Y-95418663D01*
X133091563Y-95473042D01*
X133074961Y-95631000D01*
X133094923Y-95820928D01*
X133153938Y-96002556D01*
X133249425Y-96167944D01*
X133377212Y-96309866D01*
X133531713Y-96422118D01*
X133537741Y-96424802D01*
X133537743Y-96424803D01*
X133695528Y-96495053D01*
X133706177Y-96499794D01*
X133799577Y-96519647D01*
X133886521Y-96538128D01*
X133886526Y-96538128D01*
X133892978Y-96539500D01*
X134083952Y-96539500D01*
X134090404Y-96538128D01*
X134090409Y-96538128D01*
X134177353Y-96519647D01*
X134270753Y-96499794D01*
X134281402Y-96495053D01*
X134439187Y-96424803D01*
X134439189Y-96424802D01*
X134445217Y-96422118D01*
X134497689Y-96383995D01*
X134532347Y-96358814D01*
X134599214Y-96334956D01*
X134606408Y-96334750D01*
X139810550Y-96334750D01*
X139878671Y-96354752D01*
X139897897Y-96371093D01*
X139898170Y-96370790D01*
X139903082Y-96375213D01*
X139907497Y-96380116D01*
X139929079Y-96395796D01*
X139965308Y-96422118D01*
X140061998Y-96492368D01*
X140068026Y-96495052D01*
X140068028Y-96495053D01*
X140230431Y-96567359D01*
X140236462Y-96570044D01*
X140329862Y-96589897D01*
X140416806Y-96608378D01*
X140416811Y-96608378D01*
X140423263Y-96609750D01*
X140614237Y-96609750D01*
X140620689Y-96608378D01*
X140620694Y-96608378D01*
X140707638Y-96589897D01*
X140801038Y-96570044D01*
X140807069Y-96567359D01*
X140969472Y-96495053D01*
X140969474Y-96495052D01*
X140975502Y-96492368D01*
X141130003Y-96380116D01*
X141138400Y-96370790D01*
X141253371Y-96243102D01*
X141253372Y-96243101D01*
X141257790Y-96238194D01*
X141353277Y-96072806D01*
X141412292Y-95891178D01*
X141419676Y-95820928D01*
X141431564Y-95707815D01*
X141432254Y-95701250D01*
X141417288Y-95558852D01*
X141412982Y-95517885D01*
X141412982Y-95517883D01*
X141412292Y-95511322D01*
X141353277Y-95329694D01*
X141257790Y-95164306D01*
X141245049Y-95150155D01*
X141134425Y-95027295D01*
X141134424Y-95027294D01*
X141130003Y-95022384D01*
X140975502Y-94910132D01*
X140969474Y-94907448D01*
X140969472Y-94907447D01*
X140807069Y-94835141D01*
X140807068Y-94835141D01*
X140801038Y-94832456D01*
X140707637Y-94812603D01*
X140620694Y-94794122D01*
X140620689Y-94794122D01*
X140614237Y-94792750D01*
X140423263Y-94792750D01*
X140416811Y-94794122D01*
X140416806Y-94794122D01*
X140329863Y-94812603D01*
X140236462Y-94832456D01*
X140230432Y-94835141D01*
X140230431Y-94835141D01*
X140068028Y-94907447D01*
X140068026Y-94907448D01*
X140061998Y-94910132D01*
X139907497Y-95022384D01*
X139903082Y-95027287D01*
X139898170Y-95031710D01*
X139897045Y-95030461D01*
X139843736Y-95063301D01*
X139810550Y-95067750D01*
X134759917Y-95067750D01*
X134691796Y-95047748D01*
X134666281Y-95026060D01*
X134659479Y-95018505D01*
X134599718Y-94952134D01*
X134459372Y-94850166D01*
X134450559Y-94843763D01*
X134450558Y-94843762D01*
X134445217Y-94839882D01*
X134439189Y-94837198D01*
X134439187Y-94837197D01*
X134276784Y-94764891D01*
X134276783Y-94764891D01*
X134270753Y-94762206D01*
X134177353Y-94742353D01*
X134090409Y-94723872D01*
X134090404Y-94723872D01*
X134083952Y-94722500D01*
X133892978Y-94722500D01*
X133886526Y-94723872D01*
X133886521Y-94723872D01*
X133799578Y-94742353D01*
X133706177Y-94762206D01*
X133700147Y-94764891D01*
X133700146Y-94764891D01*
X133537743Y-94837197D01*
X133537741Y-94837198D01*
X133531713Y-94839882D01*
X133526372Y-94843762D01*
X133526371Y-94843763D01*
X133517558Y-94850166D01*
X133377212Y-94952134D01*
X133372791Y-94957044D01*
X133372790Y-94957045D01*
X133271163Y-95069914D01*
X133249425Y-95094056D01*
X133246126Y-95099769D01*
X133246123Y-95099774D01*
X133237845Y-95114113D01*
X133186462Y-95163106D01*
X133116749Y-95176542D01*
X133050838Y-95150155D01*
X133009656Y-95092323D01*
X133003416Y-95037942D01*
X133004203Y-95030461D01*
X133020018Y-94879986D01*
X133015305Y-94835141D01*
X133000746Y-94696621D01*
X133000746Y-94696619D01*
X133000056Y-94690058D01*
X132941041Y-94508430D01*
X132845554Y-94343042D01*
X132829396Y-94325096D01*
X132722189Y-94206031D01*
X132722188Y-94206030D01*
X132717767Y-94201120D01*
X132563266Y-94088868D01*
X132557238Y-94086184D01*
X132557236Y-94086183D01*
X132394833Y-94013877D01*
X132394832Y-94013877D01*
X132388802Y-94011192D01*
X132272942Y-93986565D01*
X132208458Y-93972858D01*
X132208453Y-93972858D01*
X132202001Y-93971486D01*
X132011027Y-93971486D01*
X132004575Y-93972858D01*
X132004570Y-93972858D01*
X131940086Y-93986565D01*
X131824226Y-94011192D01*
X131818196Y-94013877D01*
X131818195Y-94013877D01*
X131655792Y-94086183D01*
X131655790Y-94086184D01*
X131649762Y-94088868D01*
X131495261Y-94201120D01*
X131490846Y-94206023D01*
X131485934Y-94210446D01*
X131484809Y-94209197D01*
X131431500Y-94242037D01*
X131398314Y-94246486D01*
X130623781Y-94246486D01*
X130612598Y-94245959D01*
X130605105Y-94244284D01*
X130597179Y-94244533D01*
X130597178Y-94244533D01*
X130537015Y-94246424D01*
X130533057Y-94246486D01*
X130505158Y-94246486D01*
X130501168Y-94246990D01*
X130489334Y-94247922D01*
X130445125Y-94249312D01*
X130437511Y-94251524D01*
X130437506Y-94251525D01*
X130425673Y-94254963D01*
X130406310Y-94258974D01*
X130386217Y-94261512D01*
X130378850Y-94264429D01*
X130378845Y-94264430D01*
X130345106Y-94277788D01*
X130333879Y-94281632D01*
X130291421Y-94293968D01*
X130284595Y-94298005D01*
X130273986Y-94304279D01*
X130256238Y-94312974D01*
X130237397Y-94320434D01*
X130230981Y-94325096D01*
X130230980Y-94325096D01*
X130201627Y-94346422D01*
X130191707Y-94352938D01*
X130160479Y-94371406D01*
X130160476Y-94371408D01*
X130153652Y-94375444D01*
X130139331Y-94389765D01*
X130124298Y-94402605D01*
X130107907Y-94414514D01*
X130102856Y-94420620D01*
X130079716Y-94448591D01*
X130071726Y-94457370D01*
X121000036Y-103529059D01*
X120991750Y-103536599D01*
X120985271Y-103540711D01*
X120979846Y-103546488D01*
X120938646Y-103590362D01*
X120935891Y-103593204D01*
X120916154Y-103612941D01*
X120913674Y-103616138D01*
X120905971Y-103625158D01*
X120875703Y-103657390D01*
X120875379Y-103657979D01*
X120821710Y-103699361D01*
X120750974Y-103705435D01*
X120688183Y-103672301D01*
X120653274Y-103610480D01*
X120650000Y-103581945D01*
X120650000Y-93980000D01*
X126086496Y-93980000D01*
X126106458Y-94169928D01*
X126165473Y-94351556D01*
X126260960Y-94516944D01*
X126388747Y-94658866D01*
X126423038Y-94683780D01*
X126530982Y-94762206D01*
X126543248Y-94771118D01*
X126549276Y-94773802D01*
X126549278Y-94773803D01*
X126697695Y-94839882D01*
X126717712Y-94848794D01*
X126811113Y-94868647D01*
X126898056Y-94887128D01*
X126898061Y-94887128D01*
X126904513Y-94888500D01*
X127095487Y-94888500D01*
X127101939Y-94887128D01*
X127101944Y-94887128D01*
X127188888Y-94868647D01*
X127282288Y-94848794D01*
X127302305Y-94839882D01*
X127450722Y-94773803D01*
X127450724Y-94773802D01*
X127456752Y-94771118D01*
X127469019Y-94762206D01*
X127576962Y-94683780D01*
X127611253Y-94658866D01*
X127739040Y-94516944D01*
X127834527Y-94351556D01*
X127893542Y-94169928D01*
X127913504Y-93980000D01*
X127893542Y-93790072D01*
X127834527Y-93608444D01*
X127739040Y-93443056D01*
X127665863Y-93361785D01*
X127635147Y-93297779D01*
X127633500Y-93277476D01*
X127633500Y-88780502D01*
X127653502Y-88712381D01*
X127665858Y-88696199D01*
X127739040Y-88614922D01*
X127834527Y-88449534D01*
X127893542Y-88267906D01*
X127913504Y-88077978D01*
X127893542Y-87888050D01*
X127834527Y-87706422D01*
X127739040Y-87541034D01*
X127611253Y-87399112D01*
X127456752Y-87286860D01*
X127450724Y-87284176D01*
X127450722Y-87284175D01*
X127288319Y-87211869D01*
X127288318Y-87211869D01*
X127282288Y-87209184D01*
X127188887Y-87189331D01*
X127101944Y-87170850D01*
X127101939Y-87170850D01*
X127095487Y-87169478D01*
X126904513Y-87169478D01*
X126898061Y-87170850D01*
X126898056Y-87170850D01*
X126811112Y-87189331D01*
X126717712Y-87209184D01*
X126711682Y-87211869D01*
X126711681Y-87211869D01*
X126549278Y-87284175D01*
X126549276Y-87284176D01*
X126543248Y-87286860D01*
X126388747Y-87399112D01*
X126260960Y-87541034D01*
X126165473Y-87706422D01*
X126106458Y-87888050D01*
X126086496Y-88077978D01*
X126106458Y-88267906D01*
X126165473Y-88449534D01*
X126260960Y-88614922D01*
X126334137Y-88696193D01*
X126364853Y-88760199D01*
X126366500Y-88780502D01*
X126366500Y-93277476D01*
X126346498Y-93345597D01*
X126334142Y-93361779D01*
X126260960Y-93443056D01*
X126165473Y-93608444D01*
X126106458Y-93790072D01*
X126086496Y-93980000D01*
X120650000Y-93980000D01*
X120650000Y-85484634D01*
X131187500Y-85484634D01*
X131194255Y-85546816D01*
X131245385Y-85683205D01*
X131332739Y-85799761D01*
X131449295Y-85887115D01*
X131585684Y-85938245D01*
X131647866Y-85945000D01*
X133052134Y-85945000D01*
X133114316Y-85938245D01*
X133250705Y-85887115D01*
X133367261Y-85799761D01*
X133434383Y-85710201D01*
X133491243Y-85667686D01*
X133562061Y-85662660D01*
X133614507Y-85687848D01*
X133620406Y-85692625D01*
X133788362Y-85804850D01*
X133798472Y-85810340D01*
X133984077Y-85890082D01*
X133995020Y-85893637D01*
X134192042Y-85938219D01*
X134203452Y-85939721D01*
X134405307Y-85947652D01*
X134416789Y-85947050D01*
X134616712Y-85918063D01*
X134627894Y-85915378D01*
X134819185Y-85850443D01*
X134829688Y-85845767D01*
X134957708Y-85774073D01*
X134967570Y-85763997D01*
X134964615Y-85756325D01*
X134079885Y-84871595D01*
X134045859Y-84809283D01*
X134047694Y-84783632D01*
X134714408Y-84783632D01*
X134714539Y-84785465D01*
X134718790Y-84792080D01*
X135319910Y-85393200D01*
X135332290Y-85399960D01*
X135338870Y-85395034D01*
X135413267Y-85262188D01*
X135417943Y-85251685D01*
X135482878Y-85060394D01*
X135485563Y-85049212D01*
X135514846Y-84847249D01*
X135515476Y-84839866D01*
X135516881Y-84786204D01*
X135516638Y-84778805D01*
X135497966Y-84575592D01*
X135495868Y-84564271D01*
X135441038Y-84369857D01*
X135436913Y-84359110D01*
X135347567Y-84177938D01*
X135343663Y-84171566D01*
X135333453Y-84163904D01*
X135321033Y-84170677D01*
X134722022Y-84769688D01*
X134714408Y-84783632D01*
X134047694Y-84783632D01*
X134050924Y-84738468D01*
X134079885Y-84693405D01*
X134959433Y-83813857D01*
X134966193Y-83801477D01*
X134960163Y-83793422D01*
X134884680Y-83745796D01*
X134874436Y-83740576D01*
X134686808Y-83665720D01*
X134675770Y-83662450D01*
X134477650Y-83623042D01*
X134466203Y-83621839D01*
X134264222Y-83619195D01*
X134252742Y-83620098D01*
X134053661Y-83654307D01*
X134042541Y-83657287D01*
X133853019Y-83727205D01*
X133842641Y-83732155D01*
X133669033Y-83835441D01*
X133659724Y-83842205D01*
X133620356Y-83876729D01*
X133555952Y-83906606D01*
X133485619Y-83896920D01*
X133436453Y-83857562D01*
X133426034Y-83843659D01*
X133367261Y-83765239D01*
X133250705Y-83677885D01*
X133114316Y-83626755D01*
X133052134Y-83620000D01*
X131647866Y-83620000D01*
X131585684Y-83626755D01*
X131449295Y-83677885D01*
X131332739Y-83765239D01*
X131245385Y-83881795D01*
X131194255Y-84018184D01*
X131187500Y-84080366D01*
X131187500Y-85484634D01*
X120650000Y-85484634D01*
X120650000Y-84559433D01*
X120670002Y-84491312D01*
X120723658Y-84444819D01*
X120793932Y-84434715D01*
X120852504Y-84461669D01*
X120853593Y-84460250D01*
X120856869Y-84462763D01*
X120859970Y-84465483D01*
X121100631Y-84626287D01*
X121104330Y-84628111D01*
X121104335Y-84628114D01*
X121356527Y-84752481D01*
X121360222Y-84754303D01*
X121364120Y-84755626D01*
X121364122Y-84755627D01*
X121630391Y-84846014D01*
X121630395Y-84846015D01*
X121634301Y-84847341D01*
X121638345Y-84848145D01*
X121638351Y-84848147D01*
X121914137Y-84903004D01*
X121914140Y-84903004D01*
X121918180Y-84903808D01*
X121922291Y-84904077D01*
X121922295Y-84904078D01*
X122202881Y-84922468D01*
X122207000Y-84922738D01*
X122211119Y-84922468D01*
X122491705Y-84904078D01*
X122491709Y-84904077D01*
X122495820Y-84903808D01*
X122499860Y-84903004D01*
X122499863Y-84903004D01*
X122775649Y-84848147D01*
X122775655Y-84848145D01*
X122779699Y-84847341D01*
X122783605Y-84846015D01*
X122783609Y-84846014D01*
X123049878Y-84755627D01*
X123049880Y-84755626D01*
X123053778Y-84754303D01*
X123057473Y-84752481D01*
X123309665Y-84628114D01*
X123309670Y-84628111D01*
X123313369Y-84626287D01*
X123554030Y-84465483D01*
X123557124Y-84462769D01*
X123557130Y-84462765D01*
X123768553Y-84277351D01*
X123771642Y-84274642D01*
X123774351Y-84271553D01*
X123959765Y-84060130D01*
X123959769Y-84060124D01*
X123962483Y-84057030D01*
X124123287Y-83816369D01*
X124134604Y-83793422D01*
X124249481Y-83560473D01*
X124249482Y-83560471D01*
X124251303Y-83556778D01*
X124309561Y-83385156D01*
X124343014Y-83286609D01*
X124343015Y-83286605D01*
X124344341Y-83282699D01*
X124361820Y-83194830D01*
X124400004Y-83002863D01*
X124400004Y-83002860D01*
X124400808Y-82998820D01*
X124419738Y-82710000D01*
X124400808Y-82421180D01*
X124373288Y-82282825D01*
X124345147Y-82141351D01*
X124345145Y-82141345D01*
X124344341Y-82137301D01*
X124267996Y-81912396D01*
X124252627Y-81867122D01*
X124252626Y-81867120D01*
X124251303Y-81863222D01*
X124249481Y-81859527D01*
X124125114Y-81607335D01*
X124125111Y-81607330D01*
X124123287Y-81603631D01*
X124038008Y-81476001D01*
X124016793Y-81408249D01*
X124035576Y-81339782D01*
X124088393Y-81292339D01*
X124142773Y-81280000D01*
X144462227Y-81280000D01*
X144530348Y-81300002D01*
G37*
G04 #@! TD.AperFunction*
M02*
