M48
; DRILL file {KiCad (6.0.2)} date Thu Sep 22 18:34:31 2022
; FORMAT={-:-/ absolute / metric / decimal}
; #@! TF.CreationDate,2022-09-22T18:34:31-04:00
; #@! TF.GenerationSoftware,Kicad,Pcbnew,(6.0.2)
; #@! TF.FileFunction,Plated,1,2,PTH
FMAT,2
METRIC
; #@! TA.AperFunction,Plated,PTH,ViaDrill
T1C0.400
; #@! TA.AperFunction,Plated,PTH,ComponentDrill
T2C0.800
; #@! TA.AperFunction,Plated,PTH,ComponentDrill
T3C0.900
; #@! TA.AperFunction,Plated,PTH,ComponentDrill
T4C1.000
%
G90
G05
T1
X122.555Y-88.265
X123.952Y-90.678
X124.968Y-117.348
X125.73Y-113.792
X127.0Y-88.078
X127.0Y-93.98
X127.254Y-112.268
X128.27Y-108.712
X128.905Y-100.33
X130.175Y-81.915
X130.175Y-98.425
X130.556Y-106.172
X130.81Y-113.03
X132.08Y-111.76
X132.08Y-114.3
X132.107Y-94.88
X132.217Y-106.808
X133.35Y-81.915
X133.35Y-113.03
X133.988Y-95.631
X135.128Y-110.236
X135.89Y-110.998
X136.525Y-100.965
X136.525Y-105.41
X136.525Y-97.79
X136.906Y-111.76
X139.065Y-107.95
X139.065Y-112.395
X140.335Y-100.965
X140.335Y-103.505
X140.335Y-115.57
X140.519Y-95.701
X140.97Y-106.045
X142.24Y-107.315
X142.875Y-102.235
T2
X130.08Y-119.38
X132.08Y-119.38
X132.35Y-84.782
X134.08Y-119.38
X134.35Y-84.782
T3
X122.555Y-110.49
X122.555Y-113.03
X122.555Y-115.57
T4
X139.05Y-118.74
X139.05Y-121.28
X141.59Y-118.74
X141.59Y-121.28
X144.13Y-118.74
X144.13Y-121.28
T0
M30
