%FSLAX45Y45*%
G04 Gerber Fmt 4.5, Leading zero omitted, Abs format (unit mm)*
G04 Created by KiCad (PCBNEW (6.0.2)) date 2022-09-22 18:34:34*
%MOMM*%
%LPD*%
G01*
G04 APERTURE LIST*
%TA.AperFunction,Profile*%
%ADD10C,0.100000*%
%TD*%
%ADD11C,0.200000*%
%ADD12C,0.040000*%
%ADD13C,0.080000*%
%ADD14C,0.090000*%
%ADD15C,0.100000*%
G04 APERTURE END LIST*
D10*
X14809800Y-12544300D02*
G75*
G03*
X14809800Y-12544300I-170000J0D01*
G01*
X12390700Y-12544300D02*
G75*
G03*
X12390700Y-12544300I-170000J0D01*
G01*
X14809800Y-8271000D02*
G75*
G03*
X14809800Y-8271000I-170000J0D01*
G01*
X11950700Y-8001000D02*
X14909800Y-8001000D01*
X14909800Y-8001000D02*
X14909800Y-12814300D01*
X14909800Y-12814300D02*
X11950700Y-12814300D01*
X11950700Y-12814300D02*
X11950700Y-8001000D01*
X12390700Y-8271000D02*
G75*
G03*
X12390700Y-8271000I-170000J0D01*
G01*
D11*
D12*
X12235500Y-8806500D02*
X12275500Y-8846500D01*
X12275500Y-8806500D02*
X12235500Y-8846500D01*
X12375200Y-9047800D02*
X12415200Y-9087800D01*
X12415200Y-9047800D02*
X12375200Y-9087800D01*
X12476800Y-11714800D02*
X12516800Y-11754800D01*
X12516800Y-11714800D02*
X12476800Y-11754800D01*
X12553000Y-11359200D02*
X12593000Y-11399200D01*
X12593000Y-11359200D02*
X12553000Y-11399200D01*
X12680000Y-8787798D02*
X12720000Y-8827798D01*
X12720000Y-8787798D02*
X12680000Y-8827798D01*
X12680000Y-9378000D02*
X12720000Y-9418000D01*
X12720000Y-9378000D02*
X12680000Y-9418000D01*
X12705400Y-11206800D02*
X12745400Y-11246800D01*
X12745400Y-11206800D02*
X12705400Y-11246800D01*
X12807000Y-10851200D02*
X12847000Y-10891200D01*
X12847000Y-10851200D02*
X12807000Y-10891200D01*
X12870500Y-10013000D02*
X12910500Y-10053000D01*
X12910500Y-10013000D02*
X12870500Y-10053000D01*
X12997500Y-8171500D02*
X13037500Y-8211500D01*
X13037500Y-8171500D02*
X12997500Y-8211500D01*
X12997500Y-9822500D02*
X13037500Y-9862500D01*
X13037500Y-9822500D02*
X12997500Y-9862500D01*
X13035600Y-10597200D02*
X13075600Y-10637200D01*
X13075600Y-10597200D02*
X13035600Y-10637200D01*
X13061000Y-11283000D02*
X13101000Y-11323000D01*
X13101000Y-11283000D02*
X13061000Y-11323000D01*
X13188000Y-11156000D02*
X13228000Y-11196000D01*
X13228000Y-11156000D02*
X13188000Y-11196000D01*
X13188000Y-11410000D02*
X13228000Y-11450000D01*
X13228000Y-11410000D02*
X13188000Y-11450000D01*
X13190651Y-9467999D02*
X13230651Y-9507999D01*
X13230651Y-9467999D02*
X13190651Y-9507999D01*
X13201652Y-10660791D02*
X13241652Y-10700791D01*
X13241652Y-10660791D02*
X13201652Y-10700791D01*
X13315000Y-8171500D02*
X13355000Y-8211500D01*
X13355000Y-8171500D02*
X13315000Y-8211500D01*
X13315000Y-11283000D02*
X13355000Y-11323000D01*
X13355000Y-11283000D02*
X13315000Y-11323000D01*
X13378846Y-9543100D02*
X13418846Y-9583100D01*
X13418846Y-9543100D02*
X13378846Y-9583100D01*
X13492800Y-11003600D02*
X13532800Y-11043600D01*
X13532800Y-11003600D02*
X13492800Y-11043600D01*
X13569000Y-11079800D02*
X13609000Y-11119800D01*
X13609000Y-11079800D02*
X13569000Y-11119800D01*
X13632500Y-10076500D02*
X13672500Y-10116500D01*
X13672500Y-10076500D02*
X13632500Y-10116500D01*
X13632500Y-10521000D02*
X13672500Y-10561000D01*
X13672500Y-10521000D02*
X13632500Y-10561000D01*
X13632548Y-9758952D02*
X13672548Y-9798952D01*
X13672548Y-9758952D02*
X13632548Y-9798952D01*
X13670600Y-11156000D02*
X13710600Y-11196000D01*
X13710600Y-11156000D02*
X13670600Y-11196000D01*
X13886500Y-10775000D02*
X13926500Y-10815000D01*
X13926500Y-10775000D02*
X13886500Y-10815000D01*
X13886500Y-11219500D02*
X13926500Y-11259500D01*
X13926500Y-11219500D02*
X13886500Y-11259500D01*
X14013500Y-10076500D02*
X14053500Y-10116500D01*
X14053500Y-10076500D02*
X14013500Y-10116500D01*
X14013500Y-10330500D02*
X14053500Y-10370500D01*
X14053500Y-10330500D02*
X14013500Y-10370500D01*
X14013500Y-11537000D02*
X14053500Y-11577000D01*
X14053500Y-11537000D02*
X14013500Y-11577000D01*
X14031875Y-9550125D02*
X14071875Y-9590125D01*
X14071875Y-9550125D02*
X14031875Y-9590125D01*
X14077000Y-10584500D02*
X14117000Y-10624500D01*
X14117000Y-10584500D02*
X14077000Y-10624500D01*
X14204000Y-10711500D02*
X14244000Y-10751500D01*
X14244000Y-10711500D02*
X14204000Y-10751500D01*
X14267500Y-10203500D02*
X14307500Y-10243500D01*
X14307500Y-10203500D02*
X14267500Y-10243500D01*
D13*
X13048000Y-11938000D02*
G75*
G03*
X13048000Y-11938000I-40000J0D01*
G01*
X13248000Y-11938000D02*
G75*
G03*
X13248000Y-11938000I-40000J0D01*
G01*
X13275000Y-8478250D02*
G75*
G03*
X13275000Y-8478250I-40000J0D01*
G01*
X13448000Y-11938000D02*
G75*
G03*
X13448000Y-11938000I-40000J0D01*
G01*
X13475000Y-8478250D02*
G75*
G03*
X13475000Y-8478250I-40000J0D01*
G01*
D14*
X12255500Y-11004000D02*
X12255500Y-11094000D01*
X12210500Y-11049000D02*
X12300500Y-11049000D01*
X12255500Y-11258000D02*
X12255500Y-11348000D01*
X12210500Y-11303000D02*
X12300500Y-11303000D01*
X12255500Y-11512000D02*
X12255500Y-11602000D01*
X12210500Y-11557000D02*
X12300500Y-11557000D01*
D15*
X13940356Y-11909356D02*
X13940356Y-11838644D01*
X13869644Y-11838644D01*
X13869644Y-11909356D01*
X13940356Y-11909356D01*
X13940356Y-12163356D02*
X13940356Y-12092644D01*
X13869644Y-12092644D01*
X13869644Y-12163356D01*
X13940356Y-12163356D01*
X14194356Y-11909356D02*
X14194356Y-11838644D01*
X14123644Y-11838644D01*
X14123644Y-11909356D01*
X14194356Y-11909356D01*
X14194356Y-12163356D02*
X14194356Y-12092644D01*
X14123644Y-12092644D01*
X14123644Y-12163356D01*
X14194356Y-12163356D01*
X14448356Y-11909356D02*
X14448356Y-11838644D01*
X14377644Y-11838644D01*
X14377644Y-11909356D01*
X14448356Y-11909356D01*
X14448356Y-12163356D02*
X14448356Y-12092644D01*
X14377644Y-12092644D01*
X14377644Y-12163356D01*
X14448356Y-12163356D01*
D11*
X12203319Y-13129776D02*
X12203319Y-12929776D01*
X12250938Y-12929776D01*
X12279509Y-12939300D01*
X12298557Y-12958348D01*
X12308081Y-12977395D01*
X12317605Y-13015490D01*
X12317605Y-13044062D01*
X12308081Y-13082157D01*
X12298557Y-13101205D01*
X12279509Y-13120252D01*
X12250938Y-13129776D01*
X12203319Y-13129776D01*
X12403319Y-13129776D02*
X12403319Y-12996443D01*
X12403319Y-13034538D02*
X12412843Y-13015490D01*
X12422367Y-13005967D01*
X12441414Y-12996443D01*
X12460462Y-12996443D01*
X12527128Y-13129776D02*
X12527128Y-12996443D01*
X12527128Y-12929776D02*
X12517605Y-12939300D01*
X12527128Y-12948824D01*
X12536652Y-12939300D01*
X12527128Y-12929776D01*
X12527128Y-12948824D01*
X12650938Y-13129776D02*
X12631890Y-13120252D01*
X12622367Y-13101205D01*
X12622367Y-12929776D01*
X12755700Y-13129776D02*
X12736652Y-13120252D01*
X12727128Y-13101205D01*
X12727128Y-12929776D01*
X12984271Y-13129776D02*
X12984271Y-12929776D01*
X13050938Y-13072633D01*
X13117605Y-12929776D01*
X13117605Y-13129776D01*
X13298557Y-13129776D02*
X13298557Y-13025014D01*
X13289033Y-13005967D01*
X13269986Y-12996443D01*
X13231890Y-12996443D01*
X13212843Y-13005967D01*
X13298557Y-13120252D02*
X13279509Y-13129776D01*
X13231890Y-13129776D01*
X13212843Y-13120252D01*
X13203319Y-13101205D01*
X13203319Y-13082157D01*
X13212843Y-13063109D01*
X13231890Y-13053586D01*
X13279509Y-13053586D01*
X13298557Y-13044062D01*
X13393795Y-12996443D02*
X13393795Y-13196443D01*
X13393795Y-13005967D02*
X13412843Y-12996443D01*
X13450938Y-12996443D01*
X13469986Y-13005967D01*
X13479509Y-13015490D01*
X13489033Y-13034538D01*
X13489033Y-13091681D01*
X13479509Y-13110728D01*
X13469986Y-13120252D01*
X13450938Y-13129776D01*
X13412843Y-13129776D01*
X13393795Y-13120252D01*
X13574748Y-13110728D02*
X13584271Y-13120252D01*
X13574748Y-13129776D01*
X13565224Y-13120252D01*
X13574748Y-13110728D01*
X13574748Y-13129776D01*
X13574748Y-13005967D02*
X13584271Y-13015490D01*
X13574748Y-13025014D01*
X13565224Y-13015490D01*
X13574748Y-13005967D01*
X13574748Y-13025014D01*
D12*
X11905700Y-13439300D02*
X11945700Y-13479300D01*
X11945700Y-13439300D02*
X11905700Y-13479300D01*
D11*
X12241414Y-13349776D02*
X12260462Y-13349776D01*
X12279509Y-13359300D01*
X12289033Y-13368824D01*
X12298557Y-13387871D01*
X12308081Y-13425967D01*
X12308081Y-13473586D01*
X12298557Y-13511681D01*
X12289033Y-13530728D01*
X12279509Y-13540252D01*
X12260462Y-13549776D01*
X12241414Y-13549776D01*
X12222367Y-13540252D01*
X12212843Y-13530728D01*
X12203319Y-13511681D01*
X12193795Y-13473586D01*
X12193795Y-13425967D01*
X12203319Y-13387871D01*
X12212843Y-13368824D01*
X12222367Y-13359300D01*
X12241414Y-13349776D01*
X12393795Y-13530728D02*
X12403319Y-13540252D01*
X12393795Y-13549776D01*
X12384271Y-13540252D01*
X12393795Y-13530728D01*
X12393795Y-13549776D01*
X12574748Y-13416443D02*
X12574748Y-13549776D01*
X12527128Y-13340252D02*
X12479509Y-13483109D01*
X12603319Y-13483109D01*
X12717605Y-13349776D02*
X12736652Y-13349776D01*
X12755700Y-13359300D01*
X12765224Y-13368824D01*
X12774748Y-13387871D01*
X12784271Y-13425967D01*
X12784271Y-13473586D01*
X12774748Y-13511681D01*
X12765224Y-13530728D01*
X12755700Y-13540252D01*
X12736652Y-13549776D01*
X12717605Y-13549776D01*
X12698557Y-13540252D01*
X12689033Y-13530728D01*
X12679509Y-13511681D01*
X12669986Y-13473586D01*
X12669986Y-13425967D01*
X12679509Y-13387871D01*
X12689033Y-13368824D01*
X12698557Y-13359300D01*
X12717605Y-13349776D01*
X12908081Y-13349776D02*
X12927128Y-13349776D01*
X12946176Y-13359300D01*
X12955700Y-13368824D01*
X12965224Y-13387871D01*
X12974748Y-13425967D01*
X12974748Y-13473586D01*
X12965224Y-13511681D01*
X12955700Y-13530728D01*
X12946176Y-13540252D01*
X12927128Y-13549776D01*
X12908081Y-13549776D01*
X12889033Y-13540252D01*
X12879509Y-13530728D01*
X12869986Y-13511681D01*
X12860462Y-13473586D01*
X12860462Y-13425967D01*
X12869986Y-13387871D01*
X12879509Y-13368824D01*
X12889033Y-13359300D01*
X12908081Y-13349776D01*
X13060462Y-13549776D02*
X13060462Y-13416443D01*
X13060462Y-13435490D02*
X13069986Y-13425967D01*
X13089033Y-13416443D01*
X13117605Y-13416443D01*
X13136652Y-13425967D01*
X13146176Y-13445014D01*
X13146176Y-13549776D01*
X13146176Y-13445014D02*
X13155700Y-13425967D01*
X13174748Y-13416443D01*
X13203319Y-13416443D01*
X13222367Y-13425967D01*
X13231890Y-13445014D01*
X13231890Y-13549776D01*
X13327128Y-13549776D02*
X13327128Y-13416443D01*
X13327128Y-13435490D02*
X13336652Y-13425967D01*
X13355700Y-13416443D01*
X13384271Y-13416443D01*
X13403319Y-13425967D01*
X13412843Y-13445014D01*
X13412843Y-13549776D01*
X13412843Y-13445014D02*
X13422367Y-13425967D01*
X13441414Y-13416443D01*
X13469986Y-13416443D01*
X13489033Y-13425967D01*
X13498557Y-13445014D01*
X13498557Y-13549776D01*
X13889033Y-13340252D02*
X13717605Y-13597395D01*
X14146176Y-13349776D02*
X14165224Y-13349776D01*
X14184271Y-13359300D01*
X14193795Y-13368824D01*
X14203319Y-13387871D01*
X14212843Y-13425967D01*
X14212843Y-13473586D01*
X14203319Y-13511681D01*
X14193795Y-13530728D01*
X14184271Y-13540252D01*
X14165224Y-13549776D01*
X14146176Y-13549776D01*
X14127128Y-13540252D01*
X14117605Y-13530728D01*
X14108081Y-13511681D01*
X14098557Y-13473586D01*
X14098557Y-13425967D01*
X14108081Y-13387871D01*
X14117605Y-13368824D01*
X14127128Y-13359300D01*
X14146176Y-13349776D01*
X14298557Y-13530728D02*
X14308081Y-13540252D01*
X14298557Y-13549776D01*
X14289033Y-13540252D01*
X14298557Y-13530728D01*
X14298557Y-13549776D01*
X14431890Y-13349776D02*
X14450938Y-13349776D01*
X14469986Y-13359300D01*
X14479509Y-13368824D01*
X14489033Y-13387871D01*
X14498557Y-13425967D01*
X14498557Y-13473586D01*
X14489033Y-13511681D01*
X14479509Y-13530728D01*
X14469986Y-13540252D01*
X14450938Y-13549776D01*
X14431890Y-13549776D01*
X14412843Y-13540252D01*
X14403319Y-13530728D01*
X14393795Y-13511681D01*
X14384271Y-13473586D01*
X14384271Y-13425967D01*
X14393795Y-13387871D01*
X14403319Y-13368824D01*
X14412843Y-13359300D01*
X14431890Y-13349776D01*
X14689033Y-13549776D02*
X14574748Y-13549776D01*
X14631890Y-13549776D02*
X14631890Y-13349776D01*
X14612843Y-13378348D01*
X14593795Y-13397395D01*
X14574748Y-13406919D01*
X14869986Y-13349776D02*
X14774748Y-13349776D01*
X14765224Y-13445014D01*
X14774748Y-13435490D01*
X14793795Y-13425967D01*
X14841414Y-13425967D01*
X14860462Y-13435490D01*
X14869986Y-13445014D01*
X14879509Y-13464062D01*
X14879509Y-13511681D01*
X14869986Y-13530728D01*
X14860462Y-13540252D01*
X14841414Y-13549776D01*
X14793795Y-13549776D01*
X14774748Y-13540252D01*
X14765224Y-13530728D01*
X14946176Y-13349776D02*
X15079509Y-13349776D01*
X14993795Y-13549776D01*
X15146176Y-13349776D02*
X15146176Y-13387871D01*
X15222367Y-13349776D02*
X15222367Y-13387871D01*
X15517605Y-13625967D02*
X15508081Y-13616443D01*
X15489033Y-13587871D01*
X15479509Y-13568824D01*
X15469986Y-13540252D01*
X15460462Y-13492633D01*
X15460462Y-13454538D01*
X15469986Y-13406919D01*
X15479509Y-13378348D01*
X15489033Y-13359300D01*
X15508081Y-13330728D01*
X15517605Y-13321205D01*
X15574748Y-13349776D02*
X15698557Y-13349776D01*
X15631890Y-13425967D01*
X15660462Y-13425967D01*
X15679509Y-13435490D01*
X15689033Y-13445014D01*
X15698557Y-13464062D01*
X15698557Y-13511681D01*
X15689033Y-13530728D01*
X15679509Y-13540252D01*
X15660462Y-13549776D01*
X15603319Y-13549776D01*
X15584271Y-13540252D01*
X15574748Y-13530728D01*
X15879509Y-13349776D02*
X15784271Y-13349776D01*
X15774748Y-13445014D01*
X15784271Y-13435490D01*
X15803319Y-13425967D01*
X15850938Y-13425967D01*
X15869986Y-13435490D01*
X15879509Y-13445014D01*
X15889033Y-13464062D01*
X15889033Y-13511681D01*
X15879509Y-13530728D01*
X15869986Y-13540252D01*
X15850938Y-13549776D01*
X15803319Y-13549776D01*
X15784271Y-13540252D01*
X15774748Y-13530728D01*
X16127128Y-13549776D02*
X16127128Y-13349776D01*
X16212843Y-13549776D02*
X16212843Y-13445014D01*
X16203319Y-13425967D01*
X16184271Y-13416443D01*
X16155700Y-13416443D01*
X16136652Y-13425967D01*
X16127128Y-13435490D01*
X16336652Y-13549776D02*
X16317605Y-13540252D01*
X16308081Y-13530728D01*
X16298557Y-13511681D01*
X16298557Y-13454538D01*
X16308081Y-13435490D01*
X16317605Y-13425967D01*
X16336652Y-13416443D01*
X16365224Y-13416443D01*
X16384271Y-13425967D01*
X16393795Y-13435490D01*
X16403319Y-13454538D01*
X16403319Y-13511681D01*
X16393795Y-13530728D01*
X16384271Y-13540252D01*
X16365224Y-13549776D01*
X16336652Y-13549776D01*
X16517605Y-13549776D02*
X16498557Y-13540252D01*
X16489033Y-13521205D01*
X16489033Y-13349776D01*
X16669986Y-13540252D02*
X16650938Y-13549776D01*
X16612843Y-13549776D01*
X16593795Y-13540252D01*
X16584271Y-13521205D01*
X16584271Y-13445014D01*
X16593795Y-13425967D01*
X16612843Y-13416443D01*
X16650938Y-13416443D01*
X16669986Y-13425967D01*
X16679509Y-13445014D01*
X16679509Y-13464062D01*
X16584271Y-13483109D01*
X16755700Y-13540252D02*
X16774748Y-13549776D01*
X16812843Y-13549776D01*
X16831890Y-13540252D01*
X16841414Y-13521205D01*
X16841414Y-13511681D01*
X16831890Y-13492633D01*
X16812843Y-13483109D01*
X16784271Y-13483109D01*
X16765224Y-13473586D01*
X16755700Y-13454538D01*
X16755700Y-13445014D01*
X16765224Y-13425967D01*
X16784271Y-13416443D01*
X16812843Y-13416443D01*
X16831890Y-13425967D01*
X16908081Y-13625967D02*
X16917605Y-13616443D01*
X16936652Y-13587871D01*
X16946176Y-13568824D01*
X16955700Y-13540252D01*
X16965224Y-13492633D01*
X16965224Y-13454538D01*
X16955700Y-13406919D01*
X16946176Y-13378348D01*
X16936652Y-13359300D01*
X16917605Y-13330728D01*
X16908081Y-13321205D01*
D13*
X11945700Y-13723300D02*
G75*
G03*
X11945700Y-13723300I-40000J0D01*
G01*
D11*
X12241414Y-13613776D02*
X12260462Y-13613776D01*
X12279509Y-13623300D01*
X12289033Y-13632824D01*
X12298557Y-13651871D01*
X12308081Y-13689967D01*
X12308081Y-13737586D01*
X12298557Y-13775681D01*
X12289033Y-13794728D01*
X12279509Y-13804252D01*
X12260462Y-13813776D01*
X12241414Y-13813776D01*
X12222367Y-13804252D01*
X12212843Y-13794728D01*
X12203319Y-13775681D01*
X12193795Y-13737586D01*
X12193795Y-13689967D01*
X12203319Y-13651871D01*
X12212843Y-13632824D01*
X12222367Y-13623300D01*
X12241414Y-13613776D01*
X12393795Y-13794728D02*
X12403319Y-13804252D01*
X12393795Y-13813776D01*
X12384271Y-13804252D01*
X12393795Y-13794728D01*
X12393795Y-13813776D01*
X12517605Y-13699490D02*
X12498557Y-13689967D01*
X12489033Y-13680443D01*
X12479509Y-13661395D01*
X12479509Y-13651871D01*
X12489033Y-13632824D01*
X12498557Y-13623300D01*
X12517605Y-13613776D01*
X12555700Y-13613776D01*
X12574748Y-13623300D01*
X12584271Y-13632824D01*
X12593795Y-13651871D01*
X12593795Y-13661395D01*
X12584271Y-13680443D01*
X12574748Y-13689967D01*
X12555700Y-13699490D01*
X12517605Y-13699490D01*
X12498557Y-13709014D01*
X12489033Y-13718538D01*
X12479509Y-13737586D01*
X12479509Y-13775681D01*
X12489033Y-13794728D01*
X12498557Y-13804252D01*
X12517605Y-13813776D01*
X12555700Y-13813776D01*
X12574748Y-13804252D01*
X12584271Y-13794728D01*
X12593795Y-13775681D01*
X12593795Y-13737586D01*
X12584271Y-13718538D01*
X12574748Y-13709014D01*
X12555700Y-13699490D01*
X12717605Y-13613776D02*
X12736652Y-13613776D01*
X12755700Y-13623300D01*
X12765224Y-13632824D01*
X12774748Y-13651871D01*
X12784271Y-13689967D01*
X12784271Y-13737586D01*
X12774748Y-13775681D01*
X12765224Y-13794728D01*
X12755700Y-13804252D01*
X12736652Y-13813776D01*
X12717605Y-13813776D01*
X12698557Y-13804252D01*
X12689033Y-13794728D01*
X12679509Y-13775681D01*
X12669986Y-13737586D01*
X12669986Y-13689967D01*
X12679509Y-13651871D01*
X12689033Y-13632824D01*
X12698557Y-13623300D01*
X12717605Y-13613776D01*
X12908081Y-13613776D02*
X12927128Y-13613776D01*
X12946176Y-13623300D01*
X12955700Y-13632824D01*
X12965224Y-13651871D01*
X12974748Y-13689967D01*
X12974748Y-13737586D01*
X12965224Y-13775681D01*
X12955700Y-13794728D01*
X12946176Y-13804252D01*
X12927128Y-13813776D01*
X12908081Y-13813776D01*
X12889033Y-13804252D01*
X12879509Y-13794728D01*
X12869986Y-13775681D01*
X12860462Y-13737586D01*
X12860462Y-13689967D01*
X12869986Y-13651871D01*
X12879509Y-13632824D01*
X12889033Y-13623300D01*
X12908081Y-13613776D01*
X13060462Y-13813776D02*
X13060462Y-13680443D01*
X13060462Y-13699490D02*
X13069986Y-13689967D01*
X13089033Y-13680443D01*
X13117605Y-13680443D01*
X13136652Y-13689967D01*
X13146176Y-13709014D01*
X13146176Y-13813776D01*
X13146176Y-13709014D02*
X13155700Y-13689967D01*
X13174748Y-13680443D01*
X13203319Y-13680443D01*
X13222367Y-13689967D01*
X13231890Y-13709014D01*
X13231890Y-13813776D01*
X13327128Y-13813776D02*
X13327128Y-13680443D01*
X13327128Y-13699490D02*
X13336652Y-13689967D01*
X13355700Y-13680443D01*
X13384271Y-13680443D01*
X13403319Y-13689967D01*
X13412843Y-13709014D01*
X13412843Y-13813776D01*
X13412843Y-13709014D02*
X13422367Y-13689967D01*
X13441414Y-13680443D01*
X13469986Y-13680443D01*
X13489033Y-13689967D01*
X13498557Y-13709014D01*
X13498557Y-13813776D01*
X13889033Y-13604252D02*
X13717605Y-13861395D01*
X14146176Y-13613776D02*
X14165224Y-13613776D01*
X14184271Y-13623300D01*
X14193795Y-13632824D01*
X14203319Y-13651871D01*
X14212843Y-13689967D01*
X14212843Y-13737586D01*
X14203319Y-13775681D01*
X14193795Y-13794728D01*
X14184271Y-13804252D01*
X14165224Y-13813776D01*
X14146176Y-13813776D01*
X14127128Y-13804252D01*
X14117605Y-13794728D01*
X14108081Y-13775681D01*
X14098557Y-13737586D01*
X14098557Y-13689967D01*
X14108081Y-13651871D01*
X14117605Y-13632824D01*
X14127128Y-13623300D01*
X14146176Y-13613776D01*
X14298557Y-13794728D02*
X14308081Y-13804252D01*
X14298557Y-13813776D01*
X14289033Y-13804252D01*
X14298557Y-13794728D01*
X14298557Y-13813776D01*
X14431890Y-13613776D02*
X14450938Y-13613776D01*
X14469986Y-13623300D01*
X14479509Y-13632824D01*
X14489033Y-13651871D01*
X14498557Y-13689967D01*
X14498557Y-13737586D01*
X14489033Y-13775681D01*
X14479509Y-13794728D01*
X14469986Y-13804252D01*
X14450938Y-13813776D01*
X14431890Y-13813776D01*
X14412843Y-13804252D01*
X14403319Y-13794728D01*
X14393795Y-13775681D01*
X14384271Y-13737586D01*
X14384271Y-13689967D01*
X14393795Y-13651871D01*
X14403319Y-13632824D01*
X14412843Y-13623300D01*
X14431890Y-13613776D01*
X14565224Y-13613776D02*
X14689033Y-13613776D01*
X14622367Y-13689967D01*
X14650938Y-13689967D01*
X14669986Y-13699490D01*
X14679509Y-13709014D01*
X14689033Y-13728062D01*
X14689033Y-13775681D01*
X14679509Y-13794728D01*
X14669986Y-13804252D01*
X14650938Y-13813776D01*
X14593795Y-13813776D01*
X14574748Y-13804252D01*
X14565224Y-13794728D01*
X14879509Y-13813776D02*
X14765224Y-13813776D01*
X14822367Y-13813776D02*
X14822367Y-13613776D01*
X14803319Y-13642348D01*
X14784271Y-13661395D01*
X14765224Y-13670919D01*
X15060462Y-13613776D02*
X14965224Y-13613776D01*
X14955700Y-13709014D01*
X14965224Y-13699490D01*
X14984271Y-13689967D01*
X15031890Y-13689967D01*
X15050938Y-13699490D01*
X15060462Y-13709014D01*
X15069986Y-13728062D01*
X15069986Y-13775681D01*
X15060462Y-13794728D01*
X15050938Y-13804252D01*
X15031890Y-13813776D01*
X14984271Y-13813776D01*
X14965224Y-13804252D01*
X14955700Y-13794728D01*
X15146176Y-13613776D02*
X15146176Y-13651871D01*
X15222367Y-13613776D02*
X15222367Y-13651871D01*
X15517605Y-13889967D02*
X15508081Y-13880443D01*
X15489033Y-13851871D01*
X15479509Y-13832824D01*
X15469986Y-13804252D01*
X15460462Y-13756633D01*
X15460462Y-13718538D01*
X15469986Y-13670919D01*
X15479509Y-13642348D01*
X15489033Y-13623300D01*
X15508081Y-13594728D01*
X15517605Y-13585205D01*
X15689033Y-13613776D02*
X15593795Y-13613776D01*
X15584271Y-13709014D01*
X15593795Y-13699490D01*
X15612843Y-13689967D01*
X15660462Y-13689967D01*
X15679509Y-13699490D01*
X15689033Y-13709014D01*
X15698557Y-13728062D01*
X15698557Y-13775681D01*
X15689033Y-13794728D01*
X15679509Y-13804252D01*
X15660462Y-13813776D01*
X15612843Y-13813776D01*
X15593795Y-13804252D01*
X15584271Y-13794728D01*
X15936652Y-13813776D02*
X15936652Y-13613776D01*
X16022367Y-13813776D02*
X16022367Y-13709014D01*
X16012843Y-13689967D01*
X15993795Y-13680443D01*
X15965224Y-13680443D01*
X15946176Y-13689967D01*
X15936652Y-13699490D01*
X16146176Y-13813776D02*
X16127128Y-13804252D01*
X16117605Y-13794728D01*
X16108081Y-13775681D01*
X16108081Y-13718538D01*
X16117605Y-13699490D01*
X16127128Y-13689967D01*
X16146176Y-13680443D01*
X16174748Y-13680443D01*
X16193795Y-13689967D01*
X16203319Y-13699490D01*
X16212843Y-13718538D01*
X16212843Y-13775681D01*
X16203319Y-13794728D01*
X16193795Y-13804252D01*
X16174748Y-13813776D01*
X16146176Y-13813776D01*
X16327128Y-13813776D02*
X16308081Y-13804252D01*
X16298557Y-13785205D01*
X16298557Y-13613776D01*
X16479509Y-13804252D02*
X16460462Y-13813776D01*
X16422367Y-13813776D01*
X16403319Y-13804252D01*
X16393795Y-13785205D01*
X16393795Y-13709014D01*
X16403319Y-13689967D01*
X16422367Y-13680443D01*
X16460462Y-13680443D01*
X16479509Y-13689967D01*
X16489033Y-13709014D01*
X16489033Y-13728062D01*
X16393795Y-13747109D01*
X16565224Y-13804252D02*
X16584271Y-13813776D01*
X16622367Y-13813776D01*
X16641414Y-13804252D01*
X16650938Y-13785205D01*
X16650938Y-13775681D01*
X16641414Y-13756633D01*
X16622367Y-13747109D01*
X16593795Y-13747109D01*
X16574748Y-13737586D01*
X16565224Y-13718538D01*
X16565224Y-13709014D01*
X16574748Y-13689967D01*
X16593795Y-13680443D01*
X16622367Y-13680443D01*
X16641414Y-13689967D01*
X16717605Y-13889967D02*
X16727128Y-13880443D01*
X16746176Y-13851871D01*
X16755700Y-13832824D01*
X16765224Y-13804252D01*
X16774748Y-13756633D01*
X16774748Y-13718538D01*
X16765224Y-13670919D01*
X16755700Y-13642348D01*
X16746176Y-13623300D01*
X16727128Y-13594728D01*
X16717605Y-13585205D01*
D14*
X11900700Y-13942300D02*
X11900700Y-14032300D01*
X11855700Y-13987300D02*
X11945700Y-13987300D01*
D11*
X12241414Y-13877776D02*
X12260462Y-13877776D01*
X12279509Y-13887300D01*
X12289033Y-13896824D01*
X12298557Y-13915871D01*
X12308081Y-13953967D01*
X12308081Y-14001586D01*
X12298557Y-14039681D01*
X12289033Y-14058728D01*
X12279509Y-14068252D01*
X12260462Y-14077776D01*
X12241414Y-14077776D01*
X12222367Y-14068252D01*
X12212843Y-14058728D01*
X12203319Y-14039681D01*
X12193795Y-14001586D01*
X12193795Y-13953967D01*
X12203319Y-13915871D01*
X12212843Y-13896824D01*
X12222367Y-13887300D01*
X12241414Y-13877776D01*
X12393795Y-14058728D02*
X12403319Y-14068252D01*
X12393795Y-14077776D01*
X12384271Y-14068252D01*
X12393795Y-14058728D01*
X12393795Y-14077776D01*
X12498557Y-14077776D02*
X12536652Y-14077776D01*
X12555700Y-14068252D01*
X12565224Y-14058728D01*
X12584271Y-14030157D01*
X12593795Y-13992062D01*
X12593795Y-13915871D01*
X12584271Y-13896824D01*
X12574748Y-13887300D01*
X12555700Y-13877776D01*
X12517605Y-13877776D01*
X12498557Y-13887300D01*
X12489033Y-13896824D01*
X12479509Y-13915871D01*
X12479509Y-13963490D01*
X12489033Y-13982538D01*
X12498557Y-13992062D01*
X12517605Y-14001586D01*
X12555700Y-14001586D01*
X12574748Y-13992062D01*
X12584271Y-13982538D01*
X12593795Y-13963490D01*
X12717605Y-13877776D02*
X12736652Y-13877776D01*
X12755700Y-13887300D01*
X12765224Y-13896824D01*
X12774748Y-13915871D01*
X12784271Y-13953967D01*
X12784271Y-14001586D01*
X12774748Y-14039681D01*
X12765224Y-14058728D01*
X12755700Y-14068252D01*
X12736652Y-14077776D01*
X12717605Y-14077776D01*
X12698557Y-14068252D01*
X12689033Y-14058728D01*
X12679509Y-14039681D01*
X12669986Y-14001586D01*
X12669986Y-13953967D01*
X12679509Y-13915871D01*
X12689033Y-13896824D01*
X12698557Y-13887300D01*
X12717605Y-13877776D01*
X12908081Y-13877776D02*
X12927128Y-13877776D01*
X12946176Y-13887300D01*
X12955700Y-13896824D01*
X12965224Y-13915871D01*
X12974748Y-13953967D01*
X12974748Y-14001586D01*
X12965224Y-14039681D01*
X12955700Y-14058728D01*
X12946176Y-14068252D01*
X12927128Y-14077776D01*
X12908081Y-14077776D01*
X12889033Y-14068252D01*
X12879509Y-14058728D01*
X12869986Y-14039681D01*
X12860462Y-14001586D01*
X12860462Y-13953967D01*
X12869986Y-13915871D01*
X12879509Y-13896824D01*
X12889033Y-13887300D01*
X12908081Y-13877776D01*
X13060462Y-14077776D02*
X13060462Y-13944443D01*
X13060462Y-13963490D02*
X13069986Y-13953967D01*
X13089033Y-13944443D01*
X13117605Y-13944443D01*
X13136652Y-13953967D01*
X13146176Y-13973014D01*
X13146176Y-14077776D01*
X13146176Y-13973014D02*
X13155700Y-13953967D01*
X13174748Y-13944443D01*
X13203319Y-13944443D01*
X13222367Y-13953967D01*
X13231890Y-13973014D01*
X13231890Y-14077776D01*
X13327128Y-14077776D02*
X13327128Y-13944443D01*
X13327128Y-13963490D02*
X13336652Y-13953967D01*
X13355700Y-13944443D01*
X13384271Y-13944443D01*
X13403319Y-13953967D01*
X13412843Y-13973014D01*
X13412843Y-14077776D01*
X13412843Y-13973014D02*
X13422367Y-13953967D01*
X13441414Y-13944443D01*
X13469986Y-13944443D01*
X13489033Y-13953967D01*
X13498557Y-13973014D01*
X13498557Y-14077776D01*
X13889033Y-13868252D02*
X13717605Y-14125395D01*
X14146176Y-13877776D02*
X14165224Y-13877776D01*
X14184271Y-13887300D01*
X14193795Y-13896824D01*
X14203319Y-13915871D01*
X14212843Y-13953967D01*
X14212843Y-14001586D01*
X14203319Y-14039681D01*
X14193795Y-14058728D01*
X14184271Y-14068252D01*
X14165224Y-14077776D01*
X14146176Y-14077776D01*
X14127128Y-14068252D01*
X14117605Y-14058728D01*
X14108081Y-14039681D01*
X14098557Y-14001586D01*
X14098557Y-13953967D01*
X14108081Y-13915871D01*
X14117605Y-13896824D01*
X14127128Y-13887300D01*
X14146176Y-13877776D01*
X14298557Y-14058728D02*
X14308081Y-14068252D01*
X14298557Y-14077776D01*
X14289033Y-14068252D01*
X14298557Y-14058728D01*
X14298557Y-14077776D01*
X14431890Y-13877776D02*
X14450938Y-13877776D01*
X14469986Y-13887300D01*
X14479509Y-13896824D01*
X14489033Y-13915871D01*
X14498557Y-13953967D01*
X14498557Y-14001586D01*
X14489033Y-14039681D01*
X14479509Y-14058728D01*
X14469986Y-14068252D01*
X14450938Y-14077776D01*
X14431890Y-14077776D01*
X14412843Y-14068252D01*
X14403319Y-14058728D01*
X14393795Y-14039681D01*
X14384271Y-14001586D01*
X14384271Y-13953967D01*
X14393795Y-13915871D01*
X14403319Y-13896824D01*
X14412843Y-13887300D01*
X14431890Y-13877776D01*
X14565224Y-13877776D02*
X14689033Y-13877776D01*
X14622367Y-13953967D01*
X14650938Y-13953967D01*
X14669986Y-13963490D01*
X14679509Y-13973014D01*
X14689033Y-13992062D01*
X14689033Y-14039681D01*
X14679509Y-14058728D01*
X14669986Y-14068252D01*
X14650938Y-14077776D01*
X14593795Y-14077776D01*
X14574748Y-14068252D01*
X14565224Y-14058728D01*
X14869986Y-13877776D02*
X14774748Y-13877776D01*
X14765224Y-13973014D01*
X14774748Y-13963490D01*
X14793795Y-13953967D01*
X14841414Y-13953967D01*
X14860462Y-13963490D01*
X14869986Y-13973014D01*
X14879509Y-13992062D01*
X14879509Y-14039681D01*
X14869986Y-14058728D01*
X14860462Y-14068252D01*
X14841414Y-14077776D01*
X14793795Y-14077776D01*
X14774748Y-14068252D01*
X14765224Y-14058728D01*
X15050938Y-13944443D02*
X15050938Y-14077776D01*
X15003319Y-13868252D02*
X14955700Y-14011109D01*
X15079509Y-14011109D01*
X15146176Y-13877776D02*
X15146176Y-13915871D01*
X15222367Y-13877776D02*
X15222367Y-13915871D01*
X15517605Y-14153967D02*
X15508081Y-14144443D01*
X15489033Y-14115871D01*
X15479509Y-14096824D01*
X15469986Y-14068252D01*
X15460462Y-14020633D01*
X15460462Y-13982538D01*
X15469986Y-13934919D01*
X15479509Y-13906348D01*
X15489033Y-13887300D01*
X15508081Y-13858728D01*
X15517605Y-13849205D01*
X15574748Y-13877776D02*
X15698557Y-13877776D01*
X15631890Y-13953967D01*
X15660462Y-13953967D01*
X15679509Y-13963490D01*
X15689033Y-13973014D01*
X15698557Y-13992062D01*
X15698557Y-14039681D01*
X15689033Y-14058728D01*
X15679509Y-14068252D01*
X15660462Y-14077776D01*
X15603319Y-14077776D01*
X15584271Y-14068252D01*
X15574748Y-14058728D01*
X15936652Y-14077776D02*
X15936652Y-13877776D01*
X16022367Y-14077776D02*
X16022367Y-13973014D01*
X16012843Y-13953967D01*
X15993795Y-13944443D01*
X15965224Y-13944443D01*
X15946176Y-13953967D01*
X15936652Y-13963490D01*
X16146176Y-14077776D02*
X16127128Y-14068252D01*
X16117605Y-14058728D01*
X16108081Y-14039681D01*
X16108081Y-13982538D01*
X16117605Y-13963490D01*
X16127128Y-13953967D01*
X16146176Y-13944443D01*
X16174748Y-13944443D01*
X16193795Y-13953967D01*
X16203319Y-13963490D01*
X16212843Y-13982538D01*
X16212843Y-14039681D01*
X16203319Y-14058728D01*
X16193795Y-14068252D01*
X16174748Y-14077776D01*
X16146176Y-14077776D01*
X16327128Y-14077776D02*
X16308081Y-14068252D01*
X16298557Y-14049205D01*
X16298557Y-13877776D01*
X16479509Y-14068252D02*
X16460462Y-14077776D01*
X16422367Y-14077776D01*
X16403319Y-14068252D01*
X16393795Y-14049205D01*
X16393795Y-13973014D01*
X16403319Y-13953967D01*
X16422367Y-13944443D01*
X16460462Y-13944443D01*
X16479509Y-13953967D01*
X16489033Y-13973014D01*
X16489033Y-13992062D01*
X16393795Y-14011109D01*
X16565224Y-14068252D02*
X16584271Y-14077776D01*
X16622367Y-14077776D01*
X16641414Y-14068252D01*
X16650938Y-14049205D01*
X16650938Y-14039681D01*
X16641414Y-14020633D01*
X16622367Y-14011109D01*
X16593795Y-14011109D01*
X16574748Y-14001586D01*
X16565224Y-13982538D01*
X16565224Y-13973014D01*
X16574748Y-13953967D01*
X16593795Y-13944443D01*
X16622367Y-13944443D01*
X16641414Y-13953967D01*
X16717605Y-14153967D02*
X16727128Y-14144443D01*
X16746176Y-14115871D01*
X16755700Y-14096824D01*
X16765224Y-14068252D01*
X16774748Y-14020633D01*
X16774748Y-13982538D01*
X16765224Y-13934919D01*
X16755700Y-13906348D01*
X16746176Y-13887300D01*
X16727128Y-13858728D01*
X16717605Y-13849205D01*
D15*
X11931056Y-14286656D02*
X11931056Y-14215944D01*
X11860344Y-14215944D01*
X11860344Y-14286656D01*
X11931056Y-14286656D01*
D11*
X12308081Y-14341776D02*
X12193795Y-14341776D01*
X12250938Y-14341776D02*
X12250938Y-14141776D01*
X12231890Y-14170348D01*
X12212843Y-14189395D01*
X12193795Y-14198919D01*
X12393795Y-14322728D02*
X12403319Y-14332252D01*
X12393795Y-14341776D01*
X12384271Y-14332252D01*
X12393795Y-14322728D01*
X12393795Y-14341776D01*
X12527128Y-14141776D02*
X12546176Y-14141776D01*
X12565224Y-14151300D01*
X12574748Y-14160824D01*
X12584271Y-14179871D01*
X12593795Y-14217967D01*
X12593795Y-14265586D01*
X12584271Y-14303681D01*
X12574748Y-14322728D01*
X12565224Y-14332252D01*
X12546176Y-14341776D01*
X12527128Y-14341776D01*
X12508081Y-14332252D01*
X12498557Y-14322728D01*
X12489033Y-14303681D01*
X12479509Y-14265586D01*
X12479509Y-14217967D01*
X12489033Y-14179871D01*
X12498557Y-14160824D01*
X12508081Y-14151300D01*
X12527128Y-14141776D01*
X12717605Y-14141776D02*
X12736652Y-14141776D01*
X12755700Y-14151300D01*
X12765224Y-14160824D01*
X12774748Y-14179871D01*
X12784271Y-14217967D01*
X12784271Y-14265586D01*
X12774748Y-14303681D01*
X12765224Y-14322728D01*
X12755700Y-14332252D01*
X12736652Y-14341776D01*
X12717605Y-14341776D01*
X12698557Y-14332252D01*
X12689033Y-14322728D01*
X12679509Y-14303681D01*
X12669986Y-14265586D01*
X12669986Y-14217967D01*
X12679509Y-14179871D01*
X12689033Y-14160824D01*
X12698557Y-14151300D01*
X12717605Y-14141776D01*
X12908081Y-14141776D02*
X12927128Y-14141776D01*
X12946176Y-14151300D01*
X12955700Y-14160824D01*
X12965224Y-14179871D01*
X12974748Y-14217967D01*
X12974748Y-14265586D01*
X12965224Y-14303681D01*
X12955700Y-14322728D01*
X12946176Y-14332252D01*
X12927128Y-14341776D01*
X12908081Y-14341776D01*
X12889033Y-14332252D01*
X12879509Y-14322728D01*
X12869986Y-14303681D01*
X12860462Y-14265586D01*
X12860462Y-14217967D01*
X12869986Y-14179871D01*
X12879509Y-14160824D01*
X12889033Y-14151300D01*
X12908081Y-14141776D01*
X13060462Y-14341776D02*
X13060462Y-14208443D01*
X13060462Y-14227490D02*
X13069986Y-14217967D01*
X13089033Y-14208443D01*
X13117605Y-14208443D01*
X13136652Y-14217967D01*
X13146176Y-14237014D01*
X13146176Y-14341776D01*
X13146176Y-14237014D02*
X13155700Y-14217967D01*
X13174748Y-14208443D01*
X13203319Y-14208443D01*
X13222367Y-14217967D01*
X13231890Y-14237014D01*
X13231890Y-14341776D01*
X13327128Y-14341776D02*
X13327128Y-14208443D01*
X13327128Y-14227490D02*
X13336652Y-14217967D01*
X13355700Y-14208443D01*
X13384271Y-14208443D01*
X13403319Y-14217967D01*
X13412843Y-14237014D01*
X13412843Y-14341776D01*
X13412843Y-14237014D02*
X13422367Y-14217967D01*
X13441414Y-14208443D01*
X13469986Y-14208443D01*
X13489033Y-14217967D01*
X13498557Y-14237014D01*
X13498557Y-14341776D01*
X13889033Y-14132252D02*
X13717605Y-14389395D01*
X14146176Y-14141776D02*
X14165224Y-14141776D01*
X14184271Y-14151300D01*
X14193795Y-14160824D01*
X14203319Y-14179871D01*
X14212843Y-14217967D01*
X14212843Y-14265586D01*
X14203319Y-14303681D01*
X14193795Y-14322728D01*
X14184271Y-14332252D01*
X14165224Y-14341776D01*
X14146176Y-14341776D01*
X14127128Y-14332252D01*
X14117605Y-14322728D01*
X14108081Y-14303681D01*
X14098557Y-14265586D01*
X14098557Y-14217967D01*
X14108081Y-14179871D01*
X14117605Y-14160824D01*
X14127128Y-14151300D01*
X14146176Y-14141776D01*
X14298557Y-14322728D02*
X14308081Y-14332252D01*
X14298557Y-14341776D01*
X14289033Y-14332252D01*
X14298557Y-14322728D01*
X14298557Y-14341776D01*
X14431890Y-14141776D02*
X14450938Y-14141776D01*
X14469986Y-14151300D01*
X14479509Y-14160824D01*
X14489033Y-14179871D01*
X14498557Y-14217967D01*
X14498557Y-14265586D01*
X14489033Y-14303681D01*
X14479509Y-14322728D01*
X14469986Y-14332252D01*
X14450938Y-14341776D01*
X14431890Y-14341776D01*
X14412843Y-14332252D01*
X14403319Y-14322728D01*
X14393795Y-14303681D01*
X14384271Y-14265586D01*
X14384271Y-14217967D01*
X14393795Y-14179871D01*
X14403319Y-14160824D01*
X14412843Y-14151300D01*
X14431890Y-14141776D01*
X14565224Y-14141776D02*
X14689033Y-14141776D01*
X14622367Y-14217967D01*
X14650938Y-14217967D01*
X14669986Y-14227490D01*
X14679509Y-14237014D01*
X14689033Y-14256062D01*
X14689033Y-14303681D01*
X14679509Y-14322728D01*
X14669986Y-14332252D01*
X14650938Y-14341776D01*
X14593795Y-14341776D01*
X14574748Y-14332252D01*
X14565224Y-14322728D01*
X14784271Y-14341776D02*
X14822367Y-14341776D01*
X14841414Y-14332252D01*
X14850938Y-14322728D01*
X14869986Y-14294157D01*
X14879509Y-14256062D01*
X14879509Y-14179871D01*
X14869986Y-14160824D01*
X14860462Y-14151300D01*
X14841414Y-14141776D01*
X14803319Y-14141776D01*
X14784271Y-14151300D01*
X14774748Y-14160824D01*
X14765224Y-14179871D01*
X14765224Y-14227490D01*
X14774748Y-14246538D01*
X14784271Y-14256062D01*
X14803319Y-14265586D01*
X14841414Y-14265586D01*
X14860462Y-14256062D01*
X14869986Y-14246538D01*
X14879509Y-14227490D01*
X15050938Y-14208443D02*
X15050938Y-14341776D01*
X15003319Y-14132252D02*
X14955700Y-14275109D01*
X15079509Y-14275109D01*
X15146176Y-14141776D02*
X15146176Y-14179871D01*
X15222367Y-14141776D02*
X15222367Y-14179871D01*
X15517605Y-14417967D02*
X15508081Y-14408443D01*
X15489033Y-14379871D01*
X15479509Y-14360824D01*
X15469986Y-14332252D01*
X15460462Y-14284633D01*
X15460462Y-14246538D01*
X15469986Y-14198919D01*
X15479509Y-14170348D01*
X15489033Y-14151300D01*
X15508081Y-14122728D01*
X15517605Y-14113205D01*
X15679509Y-14141776D02*
X15641414Y-14141776D01*
X15622367Y-14151300D01*
X15612843Y-14160824D01*
X15593795Y-14189395D01*
X15584271Y-14227490D01*
X15584271Y-14303681D01*
X15593795Y-14322728D01*
X15603319Y-14332252D01*
X15622367Y-14341776D01*
X15660462Y-14341776D01*
X15679509Y-14332252D01*
X15689033Y-14322728D01*
X15698557Y-14303681D01*
X15698557Y-14256062D01*
X15689033Y-14237014D01*
X15679509Y-14227490D01*
X15660462Y-14217967D01*
X15622367Y-14217967D01*
X15603319Y-14227490D01*
X15593795Y-14237014D01*
X15584271Y-14256062D01*
X15936652Y-14341776D02*
X15936652Y-14141776D01*
X16022367Y-14341776D02*
X16022367Y-14237014D01*
X16012843Y-14217967D01*
X15993795Y-14208443D01*
X15965224Y-14208443D01*
X15946176Y-14217967D01*
X15936652Y-14227490D01*
X16146176Y-14341776D02*
X16127128Y-14332252D01*
X16117605Y-14322728D01*
X16108081Y-14303681D01*
X16108081Y-14246538D01*
X16117605Y-14227490D01*
X16127128Y-14217967D01*
X16146176Y-14208443D01*
X16174748Y-14208443D01*
X16193795Y-14217967D01*
X16203319Y-14227490D01*
X16212843Y-14246538D01*
X16212843Y-14303681D01*
X16203319Y-14322728D01*
X16193795Y-14332252D01*
X16174748Y-14341776D01*
X16146176Y-14341776D01*
X16327128Y-14341776D02*
X16308081Y-14332252D01*
X16298557Y-14313205D01*
X16298557Y-14141776D01*
X16479509Y-14332252D02*
X16460462Y-14341776D01*
X16422367Y-14341776D01*
X16403319Y-14332252D01*
X16393795Y-14313205D01*
X16393795Y-14237014D01*
X16403319Y-14217967D01*
X16422367Y-14208443D01*
X16460462Y-14208443D01*
X16479509Y-14217967D01*
X16489033Y-14237014D01*
X16489033Y-14256062D01*
X16393795Y-14275109D01*
X16565224Y-14332252D02*
X16584271Y-14341776D01*
X16622367Y-14341776D01*
X16641414Y-14332252D01*
X16650938Y-14313205D01*
X16650938Y-14303681D01*
X16641414Y-14284633D01*
X16622367Y-14275109D01*
X16593795Y-14275109D01*
X16574748Y-14265586D01*
X16565224Y-14246538D01*
X16565224Y-14237014D01*
X16574748Y-14217967D01*
X16593795Y-14208443D01*
X16622367Y-14208443D01*
X16641414Y-14217967D01*
X16717605Y-14417967D02*
X16727128Y-14408443D01*
X16746176Y-14379871D01*
X16755700Y-14360824D01*
X16765224Y-14332252D01*
X16774748Y-14284633D01*
X16774748Y-14246538D01*
X16765224Y-14198919D01*
X16755700Y-14170348D01*
X16746176Y-14151300D01*
X16727128Y-14122728D01*
X16717605Y-14113205D01*
M02*
